SplineFontDB: 3.0
FontName: Exo-ExtraLightItalic
FullName: Exo ExtraLight Italic
FamilyName: Exo
Weight: Extra-Light
Copyright: Copyright (c) 2011 Natanael Gama (exo@ndiscovered.com), with Reserved Font Name "Exo"
Version: 1.00
ItalicAngle: 0
UnderlinePosition: -50
UnderlineWidth: 50
Ascent: 800
Descent: 200
sfntRevision: 0x00010000
LayerCount: 2
Layer: 0 1 "Back"  1
Layer: 1 1 "Fore"  0
XUID: [1021 889 1067683894 15839973]
FSType: 0
OS2Version: 4
OS2_WeightWidthSlopeOnly: 0
OS2_UseTypoMetrics: 1
CreationTime: 1317846679
ModificationTime: 1328305024
PfmFamily: 17
TTFWeight: 200
TTFWidth: 5
LineGap: 0
VLineGap: 0
Panose: 2 0 3 3 0 0 0 0 0 0
OS2TypoAscent: 202
OS2TypoAOffset: 1
OS2TypoDescent: -127
OS2TypoDOffset: 1
OS2TypoLinegap: 0
OS2WinAscent: 0
OS2WinAOffset: 1
OS2WinDescent: 53
OS2WinDOffset: 1
HheadAscent: 0
HheadAOffset: 1
HheadDescent: -53
HheadDOffset: 1
OS2SubXSize: 650
OS2SubYSize: 700
OS2SubXOff: 0
OS2SubYOff: 140
OS2SupXSize: 650
OS2SupYSize: 700
OS2SupXOff: 0
OS2SupYOff: 480
OS2StrikeYSize: 49
OS2StrikeYPos: 258
OS2Vendor: 'PfEd'
OS2CodePages: 20000093.00000000
OS2UnicodeRanges: a00000ef.4000204b.00000000.00000000
Lookup: 4 0 0 "'ordn' Ordinals lookup 0"  {"'ordn' Ordinals lookup 0 subtable"  } ['ordn' ('DFLT' <'dflt' > 'grek' <'dflt' > 'latn' <'dflt' > ) ]
Lookup: 1 0 0 "'smcp' Lowercase to Small Capitals lookup 1"  {"'smcp' Lowercase to Small Capitals lookup 1 subtable"  } ['smcp' ('DFLT' <'dflt' > 'grek' <'dflt' > 'latn' <'FRA ' 'dflt' > ) ]
Lookup: 1 0 0 "'c2sc' Capitals to Small Capitals in Latin lookup 2"  {"'c2sc' Capitals to Small Capitals in Latin lookup 2 subtable"  } ['c2sc' ('latn' <'dflt' > ) ]
Lookup: 4 0 0 "'dlig' Discretionary Ligatures lookup 3"  {"'dlig' Discretionary Ligatures lookup 3 subtable"  } ['dlig' ('DFLT' <'dflt' > 'grek' <'dflt' > 'latn' <'dflt' > ) ]
Lookup: 4 0 1 "'liga' Standard Ligatures lookup 4"  {"'liga' Standard Ligatures lookup 4 subtable"  } ['liga' ('DFLT' <'dflt' > 'grek' <'dflt' > 'latn' <'FRA ' 'dflt' > ) ]

StartChar: .notdef
Encoding: 0 -1 0
AltUni2: 000000.ffffffff.0
Width: 758
Flags: W
LayerCount: 2
Fore
SplineSet
100 0 m 1,0,-1
 100 531 l 1,1,-1
 658 531 l 1,2,-1
 658 0 l 1,3,-1
 100 0 l 1,0,-1
114 22 m 1,4,-1
 370 266 l 1,5,-1
 114 507 l 1,6,-1
 114 22 l 1,4,-1
124 518 m 1,7,-1
 381 276 l 1,8,-1
 635 518 l 1,9,-1
 124 518 l 1,7,-1
127 13 m 1,10,-1
 634 13 l 1,11,-1
 381 256 l 1,12,-1
 127 13 l 1,10,-1
392 266 m 1,13,-1
 644 25 l 1,14,-1
 644 506 l 1,15,-1
 392 266 l 1,13,-1
EndSplineSet
EndChar

StartChar: exclam
Encoding: 33 33 4
Width: 245
GlyphClass: 2
Flags: W
LayerCount: 2
Fore
SplineSet
113 92 m 2,0,-1
 138 92 l 2,1,2
 154 92 154 92 152 76 c 2,3,-1
 142 16 l 2,4,5
 140 0 140 0 124 0 c 2,6,-1
 98 0 l 2,7,8
 91 0 91 0 87 4.5 c 128,-1,9
 83 9 83 9 84 16 c 2,10,-1
 94 76 l 2,11,12
 96 92 96 92 113 92 c 2,0,-1
123 197 m 1,13,-1
 202 731 l 1,14,-1
 247 731 l 1,15,-1
 157 197 l 1,16,-1
 123 197 l 1,13,-1
EndSplineSet
Substitution2: "'smcp' Lowercase to Small Capitals lookup 1 subtable" exclam.smcp
EndChar

StartChar: quotedbl
Encoding: 34 34 5
Width: 318
GlyphClass: 2
Flags: W
LayerCount: 2
Fore
SplineSet
132 531 m 1,0,-1
 145 665 l 1,1,-1
 156 732 l 1,2,-1
 198 732 l 1,3,-1
 187 665 l 1,4,-1
 159 531 l 1,5,-1
 132 531 l 1,0,-1
244 531 m 1,6,-1
 257 665 l 1,7,-1
 268 732 l 1,8,-1
 310 732 l 1,9,-1
 299 665 l 1,10,-1
 271 531 l 1,11,-1
 244 531 l 1,6,-1
EndSplineSet
Substitution2: "'smcp' Lowercase to Small Capitals lookup 1 subtable" quotedbl.smcp
EndChar

StartChar: numbersign
Encoding: 35 35 6
Width: 650
GlyphClass: 2
Flags: W
LayerCount: 2
Fore
SplineSet
56 244 m 1,0,-1
 64 269 l 1,1,-1
 236 269 l 1,2,-1
 296 461 l 1,3,-1
 124 461 l 1,4,-1
 133 486 l 1,5,-1
 305 486 l 1,6,-1
 383 732 l 1,7,-1
 408 732 l 1,8,-1
 330 486 l 1,9,-1
 509 486 l 1,10,-1
 587 732 l 1,11,-1
 612 732 l 1,12,-1
 535 486 l 1,13,-1
 712 486 l 1,14,-1
 703 461 l 1,15,-1
 526 461 l 1,16,-1
 466 268 l 1,17,-1
 643 268 l 1,18,-1
 635 243 l 1,19,-1
 458 243 l 1,20,-1
 380 0 l 1,21,-1
 355 0 l 1,22,-1
 432 243 l 1,23,-1
 253 244 l 1,24,-1
 176 0 l 1,25,-1
 150 0 l 1,26,-1
 227 244 l 1,27,-1
 56 244 l 1,0,-1
262 269 m 1,28,-1
 440 268 l 1,29,-1
 500 461 l 1,30,-1
 322 461 l 1,31,-1
 262 269 l 1,28,-1
EndSplineSet
Substitution2: "'smcp' Lowercase to Small Capitals lookup 1 subtable" numbersign.smcp
EndChar

StartChar: dollar
Encoding: 36 36 7
Width: 574
GlyphClass: 2
Flags: W
LayerCount: 2
Fore
SplineSet
313 32 m 0,0,1
 470 32 470 32 489 156 c 2,2,-1
 499 224 l 1,3,4
 503 244 503 244 503 269.5 c 128,-1,5
 503 295 503 295 489 312 c 0,6,7
 468 338 468 338 398 338 c 2,8,-1
 287 338 l 2,9,10
 214 338 214 338 179.5 363.5 c 128,-1,11
 145 389 145 389 138 424 c 0,12,13
 134 442 134 442 134 459 c 128,-1,14
 134 476 134 476 137 494 c 2,15,-1
 148 560 l 2,16,17
 165 665 165 665 225 703 c 0,18,19
 280 737 280 737 378 738 c 1,20,-1
 391 824 l 1,21,-1
 423 824 l 1,22,-1
 409 736 l 1,23,24
 483 732 483 732 588 717 c 1,25,-1
 584 689 l 1,26,-1
 376 698 l 2,27,28
 368 698 368 698 359 698 c 0,29,30
 290 698 290 698 246 670.5 c 128,-1,31
 202 643 202 643 189 560 c 2,32,-1
 178 494 l 2,33,34
 175 477 175 477 175 463 c 0,35,36
 175 423 175 423 199.5 401 c 128,-1,37
 224 379 224 379 292 379 c 2,38,-1
 405 379 l 2,39,40
 502 379 502 379 528 332 c 0,41,42
 545 302 545 302 545 273 c 128,-1,43
 545 244 545 244 540 224 c 1,44,-1
 530 156 l 1,45,46
 507 9 507 9 356 -6 c 0,47,48
 335 -8 335 -8 318 -8 c 128,-1,49
 301 -8 301 -8 291 -8 c 1,50,-1
 278 -89 l 1,51,-1
 247 -89 l 1,52,-1
 260 -6 l 1,53,54
 124 3 124 3 80 10 c 1,55,-1
 85 38 l 1,56,57
 180 32 180 32 313 32 c 0,0,1
EndSplineSet
Substitution2: "'smcp' Lowercase to Small Capitals lookup 1 subtable" dollar.smcp
EndChar

StartChar: percent
Encoding: 37 37 8
Width: 977
GlyphClass: 2
Flags: W
LayerCount: 2
Fore
SplineSet
284 732 m 2,0,-1
 385 732 l 2,1,2
 455 732 455 732 479 703 c 0,3,4
 496 682 496 682 496 654.5 c 128,-1,5
 496 627 496 627 493 607 c 2,6,-1
 472 474 l 2,7,8
 465 428 465 428 450 402 c 0,9,10
 421 349 421 349 325 349 c 2,11,-1
 224 349 l 2,12,13
 157 349 157 349 131 379 c 0,14,15
 112 402 112 402 112 441 c 0,16,17
 112 456 112 456 115 474 c 2,18,-1
 136 607 l 2,19,20
 146 674 146 674 177.5 703 c 128,-1,21
 209 732 209 732 284 732 c 2,0,-1
147 474 m 2,22,23
 144 457 144 457 144 435.5 c 128,-1,24
 144 414 144 414 159.5 397.5 c 128,-1,25
 175 381 175 381 228 381 c 2,26,-1
 329 381 l 2,27,28
 365 381 365 381 386 389 c 0,29,30
 429 404 429 404 440 474 c 2,31,-1
 461 607 l 2,32,33
 464 627 464 627 464 636.5 c 128,-1,34
 464 646 464 646 463.5 657 c 128,-1,35
 463 668 463 668 454 679 c 0,36,37
 436 700 436 700 381 700 c 2,38,-1
 280 700 l 2,39,40
 225 700 225 700 201 680.5 c 128,-1,41
 177 661 177 661 168 607 c 2,42,-1
 147 474 l 2,22,23
225 0 m 1,43,-1
 779 732 l 1,44,-1
 817 732 l 1,45,-1
 263 0 l 1,46,-1
 225 0 l 1,43,-1
726 385 m 2,47,-1
 827 385 l 2,48,49
 896 385 896 385 921 356 c 0,50,51
 939 335 939 335 939 295 c 0,52,53
 939 279 939 279 936 260 c 2,54,-1
 915 127 l 2,55,56
 904 59 904 59 872.5 30.5 c 128,-1,57
 841 2 841 2 767 2 c 2,58,-1
 666 2 l 2,59,60
 599 2 599 2 574 32 c 0,61,62
 555 54 555 54 555 94 c 0,63,64
 555 109 555 109 558 127 c 2,65,-1
 579 260 l 2,66,67
 586 305 586 305 600 331 c 0,68,69
 629 385 629 385 726 385 c 2,47,-1
590 127 m 2,70,71
 587 110 587 110 587 88.5 c 128,-1,72
 587 67 587 67 602.5 50.5 c 128,-1,73
 618 34 618 34 670 34 c 2,74,-1
 771 34 l 2,75,76
 825 34 825 34 849.5 53 c 128,-1,77
 874 72 874 72 883 127 c 2,78,-1
 904 260 l 2,79,80
 907 277 907 277 907 298 c 128,-1,81
 907 319 907 319 895 333 c 0,82,83
 879 353 879 353 823 353 c 2,84,-1
 722 353 l 2,85,86
 667 353 667 353 643 334 c 128,-1,87
 619 315 619 315 611 260 c 2,88,-1
 590 127 l 2,70,71
EndSplineSet
Substitution2: "'smcp' Lowercase to Small Capitals lookup 1 subtable" percent.smcp
EndChar

StartChar: ampersand
Encoding: 38 38 9
Width: 666
GlyphClass: 2
Flags: W
LayerCount: 2
Fore
SplineSet
63 181 m 0,0,1
 63 207 63 207 71 232 c 0,2,3
 94 307 94 307 171 366 c 2,4,-1
 268 439 l 1,5,-1
 219 524 l 2,6,7
 192 570 192 570 192 606 c 128,-1,8
 192 642 192 642 207 665 c 0,9,10
 240 715 240 715 306 726 c 1,11,12
 353 732 353 732 389 732 c 0,13,14
 496 732 496 732 586 719 c 1,15,-1
 582 694 l 1,16,-1
 372 694 l 2,17,18
 283 694 283 694 247 656 c 0,19,20
 230 639 230 639 230 609 c 128,-1,21
 230 579 230 579 253 539 c 2,22,-1
 466 168 l 1,23,-1
 632 309 l 1,24,-1
 644 297 l 1,25,-1
 566 201 l 1,26,-1
 488 134 l 1,27,-1
 567 0 l 1,28,-1
 526 0 l 1,29,-1
 459 111 l 1,30,-1
 379 44 l 2,31,32
 322 -5 322 -5 248 -5 c 0,33,34
 212 -5 212 -5 177 10 c 1,35,36
 124 30 124 30 92 81 c 1,37,38
 63 131 63 131 63 181 c 0,0,1
251 34 m 0,39,40
 305 34 305 34 352 73 c 2,41,-1
 438 144 l 1,42,-1
 287 404 l 1,43,-1
 199 338 l 2,44,45
 101 264 101 264 101 180 c 0,46,47
 101 141 101 141 125 103 c 0,48,49
 168 34 168 34 251 34 c 0,39,40
EndSplineSet
AlternateSubs2: "'salt' Stylistic Alternatives in Latin lookup 16 subtable" ampersand.salt
Substitution2: "'smcp' Lowercase to Small Capitals lookup 1 subtable" ampersand.smcp
EndChar

StartChar: quotesingle
Encoding: 39 39 10
Width: 150
GlyphClass: 2
Flags: W
LayerCount: 2
Fore
SplineSet
110 531 m 1,0,-1
 123 665 l 1,1,-1
 134 732 l 1,2,-1
 176 732 l 1,3,-1
 165 665 l 1,4,-1
 137 531 l 1,5,-1
 110 531 l 1,0,-1
EndSplineSet
Substitution2: "'smcp' Lowercase to Small Capitals lookup 1 subtable" quotesingle.smcp
EndChar

StartChar: parenleft
Encoding: 40 40 11
Width: 295
GlyphClass: 2
Flags: W
LayerCount: 2
Fore
SplineSet
164 349 m 0,0,1
 154 287 154 287 154 245.5 c 128,-1,2
 154 204 154 204 155.5 157.5 c 128,-1,3
 157 111 157 111 171 45 c 0,4,5
 197 -76 197 -76 232 -144 c 2,6,-1
 245 -170 l 1,7,-1
 200 -170 l 1,8,9
 161 -97 161 -97 134 27 c 0,10,11
 114 121 114 121 114 218 c 0,12,13
 114 381 114 381 169 535 c 1,14,15
 212 659 212 659 295 795 c 0,16,17
 327 846 327 846 347 873 c 2,18,-1
 367 900 l 1,19,-1
 414 900 l 1,20,21
 326 789 326 789 252 630 c 0,22,23
 186 490 186 490 164 349 c 0,0,1
EndSplineSet
Substitution2: "'case' Case-Sensitive Forms lookup 18 subtable" parenleft.alt
Substitution2: "'c2sc' Capitals to Small Capitals in Latin lookup 2 subtable" parenleft.smcp
Substitution2: "'smcp' Lowercase to Small Capitals lookup 1 subtable" parenleft.smcp
EndChar

StartChar: parenright
Encoding: 41 41 12
Width: 296
GlyphClass: 2
Flags: W
LayerCount: 2
Fore
SplineSet
189 193.5 m 128,-1,1
 221 281 221 281 234 359 c 128,-1,2
 247 437 247 437 247 477 c 128,-1,3
 247 517 247 517 245 563.5 c 128,-1,4
 243 610 243 610 229 677 c 0,5,6
 203 799 203 799 169 872 c 2,7,-1
 156 900 l 1,8,-1
 200 900 l 1,9,10
 239 819 239 819 265 694 c 0,11,12
 285 595 285 595 285 498 c 0,13,14
 285 346 285 346 231 188 c 0,15,16
 187 60 187 60 105 -72 c 0,17,18
 75 -121 75 -121 55 -146 c 2,19,-1
 35 -170 l 1,20,-1
 -13 -170 l 1,21,22
 14 -138 14 -138 55 -75 c 128,-1,23
 96 -12 96 -12 126.5 47 c 128,-1,0
 157 106 157 106 189 193.5 c 128,-1,1
EndSplineSet
Substitution2: "'case' Case-Sensitive Forms lookup 18 subtable" parenright.alt
Substitution2: "'c2sc' Capitals to Small Capitals in Latin lookup 2 subtable" parenright.smcp
Substitution2: "'smcp' Lowercase to Small Capitals lookup 1 subtable" parenright.smcp
EndChar

StartChar: asterisk
Encoding: 42 42 13
Width: 468
GlyphClass: 2
Flags: W
LayerCount: 2
Fore
SplineSet
139 583 m 1,0,-1
 142 606 l 1,1,-1
 286 618 l 1,2,-1
 281 578 l 1,3,-1
 139 583 l 1,0,-1
188 411 m 1,4,-1
 239 545 l 1,5,-1
 280 537 l 1,6,-1
 208 404 l 1,7,-1
 188 411 l 1,4,-1
291 489 m 1,8,-1
 319 525 l 1,9,-1
 420 439 l 1,10,-1
 405 421 l 1,11,-1
 291 489 l 1,8,-1
295 721 m 1,12,-1
 318 729 l 1,13,-1
 369 608 l 1,14,-1
 327 590 l 1,15,-1
 295 721 l 1,12,-1
346 558 m 1,16,-1
 473 639 l 1,17,-1
 482 619 l 1,18,-1
 369 527 l 1,19,-1
 346 558 l 1,16,-1
EndSplineSet
Substitution2: "'smcp' Lowercase to Small Capitals lookup 1 subtable" asterisk.smcp
EndChar

StartChar: plus
Encoding: 43 43 14
Width: 521
GlyphClass: 2
Flags: W
LayerCount: 2
Fore
SplineSet
100 336 m 1,0,-1
 107 376 l 1,1,-1
 284 376 l 1,2,-1
 312 554 l 1,3,-1
 353 554 l 1,4,-1
 325 376 l 1,5,-1
 503 376 l 1,6,-1
 496 336 l 1,7,-1
 318 336 l 1,8,-1
 290 158 l 1,9,-1
 249 158 l 1,10,-1
 277 336 l 1,11,-1
 100 336 l 1,0,-1
EndSplineSet
EndChar

StartChar: comma
Encoding: 44 44 15
Width: 203
GlyphClass: 2
Flags: W
LayerCount: 2
Fore
SplineSet
69 -60 m 0,0,1
 89 -60 89 -60 92 -40 c 2,2,-1
 99 0 l 1,3,-1
 91 0 l 2,4,5
 74 0 74 0 77 17 c 2,6,-1
 86 76 l 2,7,8
 89 94 89 94 106 94 c 2,9,-1
 130 94 l 2,10,11
 145 94 145 94 143 76 c 2,12,-1
 126 -28 l 2,13,14
 122 -54 122 -54 107.5 -65 c 128,-1,15
 93 -76 93 -76 86.5 -76 c 128,-1,16
 80 -76 80 -76 79 -76 c 2,17,-1
 66 -75 l 1,18,-1
 68 -60 l 1,19,20
 68 -60 68 -60 69 -60 c 0,0,1
EndSplineSet
EndChar

StartChar: hyphen
Encoding: 45 45 16
Width: 339
GlyphClass: 2
Flags: W
LayerCount: 2
Fore
SplineSet
60 270 m 1,0,-1
 67 310 l 1,1,-1
 361 310 l 1,2,-1
 354 270 l 1,3,-1
 60 270 l 1,0,-1
EndSplineSet
Substitution2: "'case' Case-Sensitive Forms lookup 18 subtable" hyphen.alt
Substitution2: "'c2sc' Capitals to Small Capitals in Latin lookup 2 subtable" hyphen.smcp
Substitution2: "'smcp' Lowercase to Small Capitals lookup 1 subtable" hyphen.smcp
EndChar

StartChar: period
Encoding: 46 46 17
Width: 205
GlyphClass: 2
Flags: W
LayerCount: 2
Fore
SplineSet
105 92 m 2,0,-1
 130 92 l 2,1,2
 147 92 147 92 144 76 c 2,3,-1
 134 16 l 2,4,5
 132 0 132 0 116 0 c 2,6,-1
 91 0 l 2,7,8
 83 0 83 0 79.5 4.5 c 128,-1,9
 76 9 76 9 77 16 c 2,10,-1
 86 76 l 2,11,12
 89 92 89 92 105 92 c 2,0,-1
EndSplineSet
EndChar

StartChar: slash
Encoding: 47 47 18
Width: 328
GlyphClass: 2
Flags: W
LayerCount: 2
Fore
SplineSet
8 -72 m 1,0,-1
 422 770 l 1,1,-1
 463 770 l 1,2,-1
 49 -72 l 1,3,-1
 8 -72 l 1,0,-1
EndSplineSet
Substitution2: "'numr' Numerators in Latin lookup 13 subtable" fraction
Substitution2: "'frac' Diagonal Fractions lookup 6 subtable" fraction
EndChar

StartChar: zero
Encoding: 48 48 19
Width: 646
GlyphClass: 2
Flags: W
LayerCount: 2
Fore
SplineSet
367 732 m 2,0,-1
 511 732 l 2,1,2
 597 732 597 732 631 687 c 0,3,4
 656 653 656 653 656 604 c 0,5,6
 656 588 656 588 653 570 c 2,7,-1
 588 162 l 2,8,9
 562 0 562 0 395 0 c 2,10,-1
 251 0 l 2,11,12
 176 0 176 0 134 39 c 0,13,14
 102 69 102 69 102 125 c 0,15,16
 102 142 102 142 105 162 c 2,17,-1
 170 570 l 2,18,19
 183 650 183 650 236 691 c 128,-1,20
 289 732 289 732 367 732 c 2,0,-1
615 600 m 0,21,22
 615 691 615 691 505 691 c 2,23,-1
 361 691 l 2,24,25
 298 691 298 691 259 658.5 c 128,-1,26
 220 626 220 626 211 570 c 2,27,-1
 146 162 l 2,28,29
 144 147 144 147 144 134 c 0,30,31
 144 41 144 41 258 41 c 2,32,-1
 402 41 l 2,33,34
 528 41 528 41 547 162 c 2,35,-1
 612 570 l 2,36,37
 615 586 615 586 615 600 c 0,21,22
EndSplineSet
Substitution2: "'dnom' Denominators in Latin lookup 19 subtable" zero.denominator
Substitution2: "'sups' Superscript lookup 17 subtable" zerosuperior
Substitution2: "'onum' Oldstyle Figures in Latin lookup 15 subtable" zero.oldstyle
Substitution2: "'tnum' Tabular Numbers in Latin lookup 14 subtable" zero.tnum
Substitution2: "'numr' Numerators in Latin lookup 13 subtable" zero.numerator
Substitution2: "'zero' Slashed Zero lookup 12 subtable" uni0338
Substitution2: "'sinf' Scientific Inferiors lookup 11 subtable" zeroinferior
Substitution2: "'frac' Diagonal Fractions lookup 5 subtable" zero.numerator
Substitution2: "'smcp' Lowercase to Small Capitals lookup 1 subtable" zero.smcp
EndChar

StartChar: one
Encoding: 49 49 20
Width: 390
GlyphClass: 2
Flags: W
LayerCount: 2
Fore
SplineSet
134 614 m 1,0,-1
 139 642 l 1,1,2
 209 642 209 642 306 700 c 0,3,4
 328 714 328 714 340 723 c 2,5,-1
 352 732 l 1,6,-1
 391 732 l 1,7,-1
 277 0 l 1,8,-1
 236 0 l 1,9,-1
 345 680 l 1,10,11
 313 657 313 657 255 635.5 c 128,-1,12
 197 614 197 614 134 614 c 1,0,-1
EndSplineSet
Substitution2: "'dnom' Denominators in Latin lookup 19 subtable" one.denominator
Substitution2: "'sups' Superscript lookup 17 subtable" onesuperior
Substitution2: "'onum' Oldstyle Figures in Latin lookup 15 subtable" one.oldstyle
Substitution2: "'tnum' Tabular Numbers in Latin lookup 14 subtable" one.tnum
Substitution2: "'numr' Numerators in Latin lookup 13 subtable" one.numerator
Substitution2: "'sinf' Scientific Inferiors lookup 11 subtable" oneinferior
Substitution2: "'frac' Diagonal Fractions lookup 5 subtable" one.numerator
Substitution2: "'smcp' Lowercase to Small Capitals lookup 1 subtable" one.smcp
EndChar

StartChar: two
Encoding: 50 50 21
Width: 581
GlyphClass: 2
Flags: W
LayerCount: 2
Fore
SplineSet
573 580 m 0,0,1
 573 632 573 632 548 660 c 0,2,3
 513 700 513 700 431 700 c 2,4,-1
 151 700 l 1,5,-1
 155 729 l 1,6,7
 263 742 263 742 442 742 c 0,8,9
 544 742 544 742 585 684 c 0,10,11
 615 641 615 641 615 577 c 0,12,13
 615 555 615 555 610.5 523.5 c 128,-1,14
 606 492 606 492 579.5 446.5 c 128,-1,15
 553 401 553 401 517.5 360 c 128,-1,16
 482 319 482 319 432.5 273.5 c 128,-1,17
 383 228 383 228 342.5 194.5 c 128,-1,18
 302 161 302 161 252 125 c 1,19,20
 190 78 190 78 133 41 c 1,21,-1
 532 41 l 1,22,-1
 526 0 l 1,23,-1
 47 0 l 1,24,-1
 53 38 l 1,25,26
 214 147 214 147 276 197 c 128,-1,27
 338 247 338 247 391 293 c 128,-1,28
 444 339 444 339 477 377 c 0,29,30
 558 469 558 469 569 533 c 0,31,32
 573 558 573 558 573 580 c 0,0,1
EndSplineSet
Substitution2: "'dnom' Denominators in Latin lookup 19 subtable" two.denominator
Substitution2: "'sups' Superscript lookup 17 subtable" twosuperior
Substitution2: "'onum' Oldstyle Figures in Latin lookup 15 subtable" two.oldstyle
Substitution2: "'tnum' Tabular Numbers in Latin lookup 14 subtable" two.tnum
Substitution2: "'numr' Numerators in Latin lookup 13 subtable" two.numerator
Substitution2: "'sinf' Scientific Inferiors lookup 11 subtable" twoinferior
Substitution2: "'frac' Diagonal Fractions lookup 5 subtable" two.numerator
Substitution2: "'smcp' Lowercase to Small Capitals lookup 1 subtable" two.smcp
EndChar

StartChar: three
Encoding: 51 51 22
Width: 584
GlyphClass: 2
Flags: W
LayerCount: 2
Fore
SplineSet
325 35 m 2,0,1
 381 35 381 35 423 62 c 0,2,3
 471 92 471 92 483 164 c 2,4,-1
 493 223 l 2,5,6
 495 237 495 237 495 249 c 0,7,8
 495 339 495 339 377 343 c 2,9,-1
 155 350 l 1,10,-1
 159 379 l 1,11,-1
 384 386 l 2,12,13
 443 388 443 388 487 418 c 128,-1,14
 531 448 531 448 539 503 c 2,15,-1
 550 572 l 2,16,17
 552 587 552 587 552 600 c 0,18,19
 552 643 552 643 523.5 668 c 128,-1,20
 495 693 495 693 436 693 c 2,21,-1
 141 693 l 1,22,-1
 145 718 l 1,23,24
 213 735 213 735 380 735 c 0,25,26
 412 735 412 735 447 734 c 0,27,28
 528 733 528 733 565 687 c 0,29,30
 593 652 593 652 593 602 c 0,31,32
 593 586 593 586 591 569 c 2,33,-1
 580 500 l 2,34,35
 566 411 566 411 488 375 c 0,36,37
 471 367 471 367 457 365 c 1,38,39
 487 355 487 355 507 331 c 0,40,41
 538 296 538 296 538 249 c 0,42,43
 538 235 538 235 536 220 c 2,44,-1
 526 161 l 1,45,46
 500 -7 500 -7 322 -7 c 0,47,48
 96 -7 96 -7 39 10 c 1,49,-1
 44 35 l 1,50,-1
 325 35 l 2,0,1
EndSplineSet
Substitution2: "'dnom' Denominators in Latin lookup 19 subtable" three.denominator
Substitution2: "'sups' Superscript lookup 17 subtable" threesuperior
Substitution2: "'onum' Oldstyle Figures in Latin lookup 15 subtable" three.oldstyle
Substitution2: "'tnum' Tabular Numbers in Latin lookup 14 subtable" three.tnum
Substitution2: "'numr' Numerators in Latin lookup 13 subtable" three.numerator
Substitution2: "'sinf' Scientific Inferiors lookup 11 subtable" threeinferior
Substitution2: "'frac' Diagonal Fractions lookup 5 subtable" three.numerator
Substitution2: "'smcp' Lowercase to Small Capitals lookup 1 subtable" three.smcp
EndChar

StartChar: four
Encoding: 52 52 23
Width: 582
GlyphClass: 2
Flags: W
LayerCount: 2
Fore
SplineSet
55 233 m 1,0,-1
 445 732 l 1,1,-1
 495 732 l 1,2,-1
 117 246 l 1,3,-1
 460 246 l 1,4,-1
 496 472 l 1,5,-1
 528 547 l 1,6,-1
 550 547 l 1,7,-1
 502 246 l 1,8,-1
 592 246 l 1,9,-1
 588 217 l 1,10,-1
 496 204 l 1,11,-1
 464 2 l 1,12,-1
 422 2 l 1,13,-1
 454 204 l 1,14,-1
 70 204 l 1,15,-1
 55 233 l 1,0,-1
EndSplineSet
Substitution2: "'dnom' Denominators in Latin lookup 19 subtable" four.denominator
Substitution2: "'sups' Superscript lookup 17 subtable" foursuperior
Substitution2: "'onum' Oldstyle Figures in Latin lookup 15 subtable" four.oldstyle
Substitution2: "'tnum' Tabular Numbers in Latin lookup 14 subtable" four.tnum
Substitution2: "'numr' Numerators in Latin lookup 13 subtable" four.numerator
Substitution2: "'sinf' Scientific Inferiors lookup 11 subtable" fourinferior
Substitution2: "'frac' Diagonal Fractions lookup 5 subtable" four.numerator
Substitution2: "'smcp' Lowercase to Small Capitals lookup 1 subtable" four.smcp
EndChar

StartChar: five
Encoding: 53 53 24
Width: 618
GlyphClass: 2
Flags: W
LayerCount: 2
Fore
SplineSet
359 437 m 2,0,-1
 450 436 l 2,1,2
 529 436 529 436 564 390 c 0,3,4
 590 356 590 356 590 305 c 0,5,6
 590 288 590 288 587 268 c 2,7,-1
 570 166 l 1,8,9
 556 75 556 75 494 30 c 1,10,11
 449 -4 449 -4 366 -4 c 0,12,13
 172 -4 172 -4 79 10 c 1,14,-1
 83 38 l 1,15,-1
 383 38 l 2,16,17
 436 38 436 38 478.5 74 c 128,-1,18
 521 110 521 110 530 168 c 2,19,-1
 546 266 l 2,20,21
 549 286 549 286 549 302 c 0,22,23
 549 395 549 395 447 395 c 2,24,-1
 295 395 l 2,25,26
 250 395 250 395 210 363.5 c 128,-1,27
 170 332 170 332 163 287 c 1,28,-1
 124 287 l 1,29,-1
 216 732 l 1,30,-1
 639 732 l 1,31,-1
 633 691 l 1,32,-1
 249 691 l 1,33,-1
 185 382 l 1,34,35
 200 401 200 401 230.5 418.5 c 128,-1,36
 261 436 261 436 300 436.5 c 128,-1,37
 339 437 339 437 359 437 c 2,0,-1
EndSplineSet
Substitution2: "'dnom' Denominators in Latin lookup 19 subtable" five.denominator
Substitution2: "'sups' Superscript lookup 17 subtable" fivesuperior
Substitution2: "'onum' Oldstyle Figures in Latin lookup 15 subtable" five.oldstyle
Substitution2: "'tnum' Tabular Numbers in Latin lookup 14 subtable" five.tnum
Substitution2: "'numr' Numerators in Latin lookup 13 subtable" five.numerator
Substitution2: "'sinf' Scientific Inferiors lookup 11 subtable" fiveinferior
Substitution2: "'frac' Diagonal Fractions lookup 5 subtable" five.numerator
Substitution2: "'smcp' Lowercase to Small Capitals lookup 1 subtable" five.smcp
EndChar

StartChar: six
Encoding: 54 54 25
Width: 630
GlyphClass: 2
Flags: W
LayerCount: 2
Fore
SplineSet
167 398 m 1,0,1
 292 413 292 413 441 413 c 0,2,3
 488 413 488 413 520.5 400.5 c 128,-1,4
 553 388 553 388 566 367 c 0,5,6
 587 335 587 335 587 296 c 0,7,8
 587 281 587 281 583 266 c 1,9,-1
 565 148 l 1,10,11
 547 42 547 42 473 13 c 0,12,13
 438 -1 438 -1 389 -1 c 2,14,-1
 258 -1 l 2,15,16
 149 -1 149 -1 120 116 c 0,17,18
 109 157 109 157 109 224.5 c 128,-1,19
 109 292 109 292 124 385 c 128,-1,20
 139 478 139 478 164 548.5 c 128,-1,21
 189 619 189 619 220 659 c 0,22,23
 281 738 281 738 352 738 c 0,24,25
 538 738 538 738 632 726 c 1,26,-1
 627 697 l 1,27,-1
 354 697 l 2,28,29
 314 697 314 697 280 666 c 128,-1,30
 246 635 246 635 224 585 c 0,31,32
 183 493 183 493 167 398 c 1,0,1
149 221 m 0,33,34
 149 39 149 39 260 39 c 2,35,-1
 389 39 l 2,36,37
 506 39 506 39 524 149 c 1,38,-1
 541 261 l 2,39,40
 544 280 544 280 544 295 c 0,41,42
 544 332 544 332 522.5 351.5 c 128,-1,43
 501 371 501 371 438 371 c 2,44,-1
 163 371 l 1,45,46
 149 285 149 285 149 221 c 0,33,34
EndSplineSet
Substitution2: "'dnom' Denominators in Latin lookup 19 subtable" six.denominator
Substitution2: "'sups' Superscript lookup 17 subtable" sixsuperior
Substitution2: "'onum' Oldstyle Figures in Latin lookup 15 subtable" six.oldstyle
Substitution2: "'tnum' Tabular Numbers in Latin lookup 14 subtable" six.tnum
Substitution2: "'numr' Numerators in Latin lookup 13 subtable" six.numerator
Substitution2: "'sinf' Scientific Inferiors lookup 11 subtable" sixinferior
Substitution2: "'frac' Diagonal Fractions lookup 5 subtable" six.numerator
Substitution2: "'smcp' Lowercase to Small Capitals lookup 1 subtable" six.smcp
EndChar

StartChar: seven
Encoding: 55 55 26
Width: 542
GlyphClass: 2
Flags: W
LayerCount: 2
Fore
SplineSet
134 691 m 1,0,-1
 141 732 l 1,1,-1
 586 732 l 1,2,-1
 600 700 l 1,3,-1
 242 0 l 1,4,-1
 194 0 l 1,5,-1
 548 691 l 1,6,-1
 134 691 l 1,0,-1
EndSplineSet
Substitution2: "'dnom' Denominators in Latin lookup 19 subtable" seven.denominator
Substitution2: "'sups' Superscript lookup 17 subtable" sevensuperior
Substitution2: "'onum' Oldstyle Figures in Latin lookup 15 subtable" seven.oldstyle
Substitution2: "'tnum' Tabular Numbers in Latin lookup 14 subtable" seven.tnum
Substitution2: "'numr' Numerators in Latin lookup 13 subtable" seven.numerator
Substitution2: "'sinf' Scientific Inferiors lookup 11 subtable" seveninferior
Substitution2: "'frac' Diagonal Fractions lookup 5 subtable" seven.numerator
Substitution2: "'smcp' Lowercase to Small Capitals lookup 1 subtable" seven.smcp
EndChar

StartChar: eight
Encoding: 56 56 27
Width: 639
GlyphClass: 2
Flags: W
LayerCount: 2
Fore
SplineSet
230 365 m 1,0,1
 150 383 150 383 150 477 c 0,2,3
 150 491 150 491 153 504 c 2,4,-1
 163 569 l 2,5,6
 178 664 178 664 227 700.5 c 128,-1,7
 276 737 276 737 362 737 c 2,8,-1
 489 737 l 2,9,10
 631 737 631 737 631 604 c 0,11,12
 631 584 631 584 628 559 c 1,13,-1
 617 494 l 1,14,15
 609 440 609 440 564 404 c 0,16,17
 540 384 540 384 511 380 c 1,18,19
 581 359 581 359 581 284 c 0,20,21
 581 269 581 269 578 252 c 2,22,-1
 563 154 l 1,23,24
 538 0 538 0 380 0 c 2,25,-1
 255 0 l 2,26,27
 157 0 157 0 120 48 c 0,28,29
 96 79 96 79 96 126 c 0,30,31
 96 137 96 137 99 154 c 2,32,-1
 114 253 l 2,33,34
 122 305 122 305 157.5 334.5 c 128,-1,35
 193 364 193 364 230 365 c 1,0,1
138 127 m 0,36,37
 138 41 138 41 261 41 c 2,38,-1
 382 41 l 2,39,40
 449 41 449 41 490 86 c 0,41,42
 514 112 514 112 520 151 c 2,43,-1
 537 256 l 2,44,45
 539 268 539 268 539 279.5 c 128,-1,46
 539 291 539 291 535.5 305 c 128,-1,47
 532 319 532 319 522.5 329 c 128,-1,48
 513 339 513 339 498 345 c 0,49,50
 474 354 474 354 439 354 c 2,51,-1
 297 354 l 2,52,53
 233 354 233 354 188 314 c 0,54,55
 162 291 162 291 157 256 c 2,56,-1
 140 151 l 2,57,58
 138 138 138 138 138 127 c 0,36,37
193 494 m 2,59,60
 191 481 191 481 191 467.5 c 128,-1,61
 191 454 191 454 197 437 c 128,-1,62
 203 420 203 420 222 410 c 0,63,64
 253 394 253 394 301 394 c 2,65,-1
 441 394 l 2,66,67
 501 394 501 394 535 425 c 128,-1,68
 569 456 569 456 575 494 c 2,69,-1
 586 562 l 2,70,71
 590 584 590 584 590 614 c 128,-1,72
 590 644 590 644 572 665 c 0,73,74
 546 696 546 696 482 696 c 2,75,-1
 357 696 l 2,76,77
 283 696 283 696 248.5 664.5 c 128,-1,78
 214 633 214 633 203 562 c 2,79,-1
 193 494 l 2,59,60
EndSplineSet
Substitution2: "'dnom' Denominators in Latin lookup 19 subtable" eight.denominator
Substitution2: "'sups' Superscript lookup 17 subtable" eightsuperior
Substitution2: "'onum' Oldstyle Figures in Latin lookup 15 subtable" eight.oldstyle
Substitution2: "'tnum' Tabular Numbers in Latin lookup 14 subtable" eight.tnum
Substitution2: "'numr' Numerators in Latin lookup 13 subtable" eight.numerator
Substitution2: "'sinf' Scientific Inferiors lookup 11 subtable" eightinferior
Substitution2: "'frac' Diagonal Fractions lookup 5 subtable" eight.numerator
Substitution2: "'smcp' Lowercase to Small Capitals lookup 1 subtable" eight.smcp
EndChar

StartChar: nine
Encoding: 57 57 28
Width: 630
GlyphClass: 2
Flags: W
LayerCount: 2
Fore
SplineSet
551 336 m 1,0,1
 426 321 426 321 272 321 c 0,2,3
 132 321 132 321 132 435 c 0,4,5
 132 452 132 452 135 472 c 2,6,-1
 153 589 l 2,7,8
 166 669 166 669 213.5 702 c 128,-1,9
 261 735 261 735 338 735 c 2,10,-1
 464 735 l 2,11,12
 610 735 610 735 610 511 c 0,13,14
 610 439 610 439 595 344.5 c 128,-1,15
 580 250 580 250 554.5 180.5 c 128,-1,16
 529 111 529 111 498 72 c 0,17,18
 438 -4 438 -4 367 -4 c 0,19,20
 168 -4 168 -4 86 8 c 1,21,-1
 90 37 l 1,22,-1
 364 37 l 2,23,24
 397 37 397 37 426 58.5 c 128,-1,25
 455 80 455 80 475 112 c 128,-1,26
 495 144 495 144 511 187 c 0,27,28
 538 257 538 257 551 336 c 1,0,1
173 438 m 0,29,30
 173 400 173 400 197.5 381.5 c 128,-1,31
 222 363 222 363 283 363 c 2,32,-1
 555 363 l 1,33,34
 569 451 569 451 569 516 c 0,35,36
 569 695 569 695 461 695 c 2,37,-1
 332 695 l 2,38,39
 210 695 210 695 193 585 c 2,40,-1
 175 468 l 2,41,42
 173 452 173 452 173 438 c 0,29,30
EndSplineSet
Substitution2: "'dnom' Denominators in Latin lookup 19 subtable" nine.denominator
Substitution2: "'sups' Superscript lookup 17 subtable" ninesuperior
Substitution2: "'onum' Oldstyle Figures in Latin lookup 15 subtable" nine.oldstyle
Substitution2: "'tnum' Tabular Numbers in Latin lookup 14 subtable" nine.tnum
Substitution2: "'numr' Numerators in Latin lookup 13 subtable" nine.numerator
Substitution2: "'sinf' Scientific Inferiors lookup 11 subtable" nineinferior
Substitution2: "'frac' Diagonal Fractions lookup 5 subtable" nine.numerator
Substitution2: "'smcp' Lowercase to Small Capitals lookup 1 subtable" nine.smcp
EndChar

StartChar: colon
Encoding: 58 58 29
Width: 209
GlyphClass: 2
Flags: W
LayerCount: 2
Fore
SplineSet
108 92 m 2,0,-1
 134 92 l 2,1,2
 150 92 150 92 147 76 c 2,3,-1
 138 16 l 2,4,5
 135 0 135 0 119 0 c 2,6,-1
 94 0 l 2,7,8
 87 0 87 0 83 4.5 c 128,-1,9
 79 9 79 9 80 16 c 2,10,-1
 90 76 l 2,11,12
 92 92 92 92 108 92 c 2,0,-1
174 531 m 2,13,-1
 200 531 l 2,14,15
 216 531 216 531 214 514 c 2,16,-1
 204 453 l 2,17,18
 201 438 201 438 185 438 c 2,19,-1
 160 438 l 2,20,21
 144 438 144 438 146 453 c 2,22,-1
 156 514 l 2,23,24
 158 531 158 531 174 531 c 2,13,-1
EndSplineSet
EndChar

StartChar: semicolon
Encoding: 59 59 30
Width: 206
GlyphClass: 2
Flags: W
LayerCount: 2
Fore
SplineSet
69 -60 m 0,0,1
 89 -60 89 -60 92 -40 c 2,2,-1
 99 0 l 1,3,-1
 91 0 l 2,4,5
 84 0 84 0 80 5 c 128,-1,6
 76 10 76 10 77 17 c 2,7,-1
 86 76 l 2,8,9
 89 94 89 94 106 94 c 2,10,-1
 130 94 l 2,11,12
 145 94 145 94 143 76 c 2,13,-1
 126 -28 l 2,14,15
 122 -54 122 -54 107.5 -65 c 128,-1,16
 93 -76 93 -76 86.5 -76 c 128,-1,17
 80 -76 80 -76 79 -76 c 2,18,-1
 66 -75 l 1,19,-1
 68 -60 l 1,20,21
 68 -60 68 -60 69 -60 c 0,0,1
175 531 m 2,22,-1
 200 531 l 2,23,24
 217 531 217 531 214 515 c 2,25,-1
 205 454 l 2,26,27
 202 439 202 439 186 439 c 2,28,-1
 161 439 l 2,29,30
 145 439 145 439 147 454 c 2,31,-1
 156 515 l 2,32,33
 159 531 159 531 175 531 c 2,22,-1
EndSplineSet
EndChar

StartChar: less
Encoding: 60 60 31
Width: 472
GlyphClass: 2
Flags: W
LayerCount: 2
Fore
SplineSet
99 334 m 1,0,-1
 105 375 l 1,1,-1
 490 557 l 1,2,-1
 482 512 l 1,3,-1
 150 353 l 1,4,-1
 430 182 l 1,5,-1
 424 141 l 1,6,-1
 99 334 l 1,0,-1
EndSplineSet
EndChar

StartChar: equal
Encoding: 61 61 32
Width: 463
GlyphClass: 2
Flags: W
LayerCount: 2
Fore
SplineSet
53 212 m 1,0,-1
 60 253 l 1,1,-1
 487 253 l 1,2,-1
 480 212 l 1,3,-1
 53 212 l 1,0,-1
91 454 m 1,4,-1
 98 495 l 1,5,-1
 525 495 l 1,6,-1
 518 454 l 1,7,-1
 91 454 l 1,4,-1
EndSplineSet
EndChar

StartChar: greater
Encoding: 62 62 33
Width: 473
GlyphClass: 2
Flags: W
LayerCount: 2
Fore
SplineSet
72 141 m 1,0,-1
 79 186 l 1,1,-1
 416 356 l 1,2,-1
 131 518 l 1,3,-1
 138 557 l 1,4,-1
 464 375 l 1,5,-1
 458 334 l 1,6,-1
 72 141 l 1,0,-1
EndSplineSet
EndChar

StartChar: question
Encoding: 63 63 34
Width: 541
GlyphClass: 2
Flags: W
LayerCount: 2
Fore
SplineSet
264 297 m 1,0,-1
 248 195 l 1,1,-1
 205 195 l 1,2,-1
 226 331 l 1,3,4
 265 330 265 330 294 330 c 128,-1,5
 323 330 323 330 342 331 c 0,6,7
 487 332 487 332 507 453 c 2,8,-1
 523 554 l 2,9,10
 526 575 526 575 526 593 c 0,11,12
 526 642 526 642 502 666 c 0,13,14
 470 699 470 699 381 699 c 2,15,-1
 125 699 l 1,16,-1
 129 726 l 1,17,18
 245 739 245 739 357 739 c 0,19,20
 374 739 374 739 382.5 739 c 128,-1,21
 391 739 391 739 392 739 c 0,22,23
 567 739 567 739 567 599 c 0,24,25
 567 578 567 578 563 554 c 2,26,-1
 548 453 l 2,27,28
 532 351 532 351 464 316 c 0,29,30
 416 292 416 292 339 292 c 0,31,32
 304 292 304 292 264 297 c 1,0,-1
201 92 m 2,33,-1
 226 92 l 2,34,35
 242 92 242 92 240 76 c 2,36,-1
 230 16 l 2,37,38
 228 0 228 0 211 0 c 2,39,-1
 186 0 l 2,40,41
 179 0 179 0 175 4.5 c 128,-1,42
 171 9 171 9 172 16 c 2,43,-1
 182 76 l 2,44,45
 184 92 184 92 201 92 c 2,33,-1
EndSplineSet
Substitution2: "'smcp' Lowercase to Small Capitals lookup 1 subtable" question.smcp
EndChar

StartChar: at
Encoding: 64 64 35
Width: 889
GlyphClass: 2
Flags: W
LayerCount: 2
Fore
SplineSet
350 699 m 2,0,-1
 725 699 l 2,1,2
 807 699 807 699 843 653 c 1,3,4
 868 619 868 619 868 564 c 0,5,6
 868 544 868 544 865 521 c 2,7,-1
 812 167 l 2,8,9
 801 89 801 89 763 49 c 0,10,11
 747 31 747 31 715.5 17 c 128,-1,12
 684 3 684 3 643 3 c 2,13,-1
 605 3 l 1,14,-1
 599 63 l 1,15,16
 566 27 566 27 484 6 c 0,17,18
 364 -24 364 -24 299 28 c 0,19,20
 276 46 276 46 265 78 c 0,21,22
 249 124 249 124 249 174 c 128,-1,23
 249 224 249 224 258.5 281 c 128,-1,24
 268 338 268 338 286.5 387 c 128,-1,25
 305 436 305 436 326.5 464 c 128,-1,26
 348 492 348 492 375 511 c 0,27,28
 426 545 426 545 487 545 c 0,29,30
 635 545 635 545 700 482 c 1,31,-1
 636 43 l 1,32,33
 699 43 699 43 730 73.5 c 128,-1,34
 761 104 761 104 771 167 c 2,35,-1
 824 521 l 2,36,37
 828 542 828 542 828 556.5 c 128,-1,38
 828 571 828 571 825 587.5 c 128,-1,39
 822 604 822 604 815 619.5 c 128,-1,40
 808 635 808 635 793 643 c 0,41,42
 766 658 766 658 723 658 c 2,43,-1
 346 658 l 2,44,45
 238 658 238 658 200 570 c 0,46,47
 190 548 190 548 186 521 c 2,48,-1
 105 9 l 2,49,50
 102 -9 102 -9 102 -24 c 0,51,52
 102 -69 102 -69 125 -98 c 1,53,54
 155 -138 155 -138 219 -138 c 2,55,-1
 604 -138 l 1,56,-1
 600 -163 l 1,57,58
 521 -179 521 -179 309 -179 c 2,59,-1
 211 -179 l 2,60,61
 134 -179 134 -179 92 -126 c 1,62,63
 61 -85 61 -85 61 -28 c 0,64,65
 61 -10 61 -10 64 9 c 2,66,-1
 145 521 l 2,67,68
 162 628 162 628 239 673 c 0,69,70
 282 699 282 699 350 699 c 2,0,-1
297 254 m 1,71,72
 291 216 291 216 291 194.5 c 128,-1,73
 291 173 291 173 293 148.5 c 128,-1,74
 295 124 295 124 302.5 100 c 128,-1,75
 310 76 310 76 326 62 c 0,76,77
 356 37 356 37 412 37 c 0,78,79
 522 37 522 37 602 97 c 1,80,-1
 658 471 l 1,81,82
 587 503 587 503 493 503 c 0,83,84
 487 503 487 503 480 503 c 0,85,86
 327 499 327 499 297 254 c 1,71,72
EndSplineSet
Substitution2: "'case' Case-Sensitive Forms lookup 18 subtable" at.alt
Substitution2: "'smcp' Lowercase to Small Capitals lookup 1 subtable" at.smcp
EndChar

StartChar: A
Encoding: 65 65 36
Width: 648
GlyphClass: 2
Flags: W
LayerCount: 2
Fore
SplineSet
45 0 m 1,0,-1
 433 732 l 1,1,-1
 481 732 l 1,2,-1
 625 0 l 1,3,-1
 584 0 l 1,4,-1
 537 236 l 1,5,-1
 216 236 l 1,6,-1
 91 0 l 1,7,-1
 45 0 l 1,0,-1
238 277 m 1,8,-1
 529 277 l 1,9,-1
 451 681 l 1,10,-1
 238 277 l 1,8,-1
EndSplineSet
Substitution2: "'c2sc' Capitals to Small Capitals in Latin lookup 2 subtable" a.smcp
EndChar

StartChar: B
Encoding: 66 66 37
Width: 592
GlyphClass: 2
Flags: W
LayerCount: 2
Fore
SplineSet
459 732 m 2,0,1
 624 732 624 732 624 593 c 0,2,3
 624 497 624 497 569 436 c 1,4,5
 527 391 527 391 477 383 c 1,6,7
 511 375 511 375 543 331 c 0,8,9
 571 292 571 292 571 232 c 0,10,11
 571 216 571 216 569 198 c 0,12,13
 540 0 540 0 343 0 c 2,14,-1
 80 0 l 1,15,-1
 196 732 l 1,16,-1
 459 732 l 2,0,1
528 205 m 0,18,19
 531 219 531 219 531 239.5 c 128,-1,20
 531 260 531 260 519.5 290 c 128,-1,21
 508 320 508 320 476.5 341.5 c 128,-1,22
 445 363 445 363 403 363 c 0,23,24
 402 363 402 363 401 363 c 2,25,-1
 179 363 l 1,26,-1
 128 42 l 1,27,-1
 350 42 l 2,28,17
 502 42 502 42 528 205 c 0,18,19
546 472 m 0,29,30
 570 505 570 505 576.5 541 c 128,-1,31
 583 577 583 577 583 593.5 c 128,-1,32
 583 610 583 610 581 620 c 0,33,34
 572 691 572 691 453 691 c 2,35,-1
 231 691 l 1,36,-1
 186 404 l 1,37,-1
 408 404 l 2,38,39
 497 404 497 404 546 472 c 0,29,30
EndSplineSet
Substitution2: "'c2sc' Capitals to Small Capitals in Latin lookup 2 subtable" b.smcp
EndChar

StartChar: C
Encoding: 67 67 38
Width: 568
GlyphClass: 2
Flags: W
LayerCount: 2
Fore
SplineSet
327 729 m 0,0,1
 367 740 367 740 434.5 740 c 128,-1,2
 502 740 502 740 638 714 c 1,3,-1
 634 685 l 1,4,5
 519 699 519 699 422 699 c 0,6,7
 375 699 375 699 345.5 692 c 128,-1,8
 316 685 316 685 285.5 664.5 c 128,-1,9
 255 644 255 644 233 608 c 0,10,11
 183 528 183 528 157 366 c 0,12,13
 146 298 146 298 146 244 c 0,14,15
 146 38 146 38 306 35 c 0,16,17
 310 35 310 35 345.5 35 c 128,-1,18
 381 35 381 35 533 46 c 1,19,-1
 529 16 l 1,20,21
 425 -6 425 -6 301 -6 c 0,22,23
 247 -6 247 -6 208 15 c 0,24,25
 105 68 105 68 105 246 c 0,26,27
 105 349 105 349 138 481 c 1,28,29
 164 590 164 590 205 644 c 0,30,31
 254 710 254 710 327 729 c 0,0,1
EndSplineSet
Substitution2: "'c2sc' Capitals to Small Capitals in Latin lookup 2 subtable" c.smcp
EndChar

StartChar: D
Encoding: 68 68 39
Width: 661
GlyphClass: 2
Flags: W
LayerCount: 2
Fore
SplineSet
455 732 m 0,0,1
 565 732 565 732 614 666 c 1,2,3
 661 601 661 601 666 517 c 0,4,5
 667 495 667 495 667 474 c 0,6,7
 667 344 667 344 618 217 c 0,8,9
 534 0 534 0 344 0 c 2,10,-1
 80 0 l 1,11,-1
 196 732 l 1,12,13
 196 732 196 732 455 732 c 0,0,1
627 479 m 0,14,15
 627 691 627 691 448 691 c 2,16,-1
 230 691 l 1,17,-1
 128 42 l 1,18,-1
 348 42 l 2,19,20
 395 42 395 42 436 61.5 c 128,-1,21
 477 81 477 81 506 112.5 c 128,-1,22
 535 144 535 144 558 187 c 0,23,24
 600 264 600 264 613.5 346 c 128,-1,25
 627 428 627 428 627 479 c 0,14,15
EndSplineSet
Substitution2: "'c2sc' Capitals to Small Capitals in Latin lookup 2 subtable" d.smcp
EndChar

StartChar: E
Encoding: 69 69 40
Width: 563
GlyphClass: 2
Flags: W
LayerCount: 2
Fore
SplineSet
313 732 m 0,0,1
 316 732 316 732 320 732 c 2,2,-1
 622 720 l 1,3,-1
 618 691 l 1,4,-1
 314 691 l 2,5,6
 229 691 229 691 215 602 c 2,7,-1
 180 384 l 1,8,-1
 528 377 l 1,9,-1
 523 348 l 1,10,-1
 174 341 l 1,11,-1
 139 123 l 2,12,13
 137 110 137 110 137 98 c 128,-1,14
 137 86 137 86 141 72.5 c 128,-1,15
 145 59 145 59 159 51 c 0,16,17
 182 38 182 38 221 38 c 2,18,-1
 515 38 l 1,19,-1
 510 9 l 1,20,-1
 214 -3 l 2,21,22
 210 -3 210 -3 197 -3 c 128,-1,23
 184 -3 184 -3 164 2 c 0,24,25
 95 19 95 19 95 94 c 0,26,27
 95 109 95 109 98 126 c 2,28,-1
 174 605 l 2,29,30
 185 674 185 674 223.5 703 c 128,-1,31
 262 732 262 732 313 732 c 0,0,1
EndSplineSet
Substitution2: "'c2sc' Capitals to Small Capitals in Latin lookup 2 subtable" e.smcp
EndChar

StartChar: F
Encoding: 70 70 41
Width: 559
GlyphClass: 2
Flags: W
LayerCount: 2
Fore
SplineSet
313 732 m 0,0,1
 317 732 317 732 321 732 c 2,2,-1
 623 720 l 1,3,-1
 619 691 l 1,4,-1
 314 691 l 2,5,6
 249 691 249 691 227 641 c 0,7,8
 220 625 220 625 216 602 c 2,9,-1
 182 384 l 1,10,-1
 530 377 l 1,11,-1
 525 348 l 1,12,-1
 175 341 l 1,13,-1
 121 0 l 1,14,-1
 80 0 l 1,15,-1
 174 599 l 2,16,17
 186 675 186 675 223 703.5 c 128,-1,18
 260 732 260 732 313 732 c 0,0,1
EndSplineSet
Substitution2: "'c2sc' Capitals to Small Capitals in Latin lookup 2 subtable" f.smcp
EndChar

StartChar: G
Encoding: 71 71 42
Width: 629
GlyphClass: 2
Flags: W
LayerCount: 2
Fore
SplineSet
643 679 m 1,0,1
 490 699 490 699 396.5 699 c 128,-1,2
 303 699 303 699 247.5 624 c 128,-1,3
 192 549 192 549 164 367 c 0,4,5
 151 284 151 284 151 220 c 128,-1,6
 151 156 151 156 166 115 c 0,7,8
 195 35 195 35 299 35 c 0,9,10
 334 35 334 35 391 48 c 128,-1,11
 448 61 448 61 488 74 c 2,12,-1
 527 87 l 1,13,-1
 569 347 l 1,14,-1
 371 347 l 1,15,-1
 375 373 l 1,16,17
 436 389 436 389 549 389 c 0,18,19
 581 389 581 389 617 386 c 1,20,-1
 556 0 l 1,21,-1
 527 0 l 1,22,-1
 524 55 l 1,23,24
 494 36 494 36 423 15 c 128,-1,25
 352 -6 352 -6 294 -6 c 2,26,27
 294 -6 294 -6 293 -6 c 0,28,29
 196 -6 196 -6 154 49 c 0,30,31
 111 106 111 106 109 189 c 0,32,33
 108 203 108 203 108 226 c 0,34,35
 108 320 108 320 138 461 c 0,36,37
 158 553 158 553 179.5 594.5 c 128,-1,38
 201 636 201 636 222.5 662 c 128,-1,39
 244 688 244 688 270 704 c 0,40,41
 327 740 327 740 408 740 c 0,42,43
 409 740 409 740 428 740 c 128,-1,44
 447 740 447 740 521 731 c 128,-1,45
 595 722 595 722 648 712 c 1,46,-1
 643 679 l 1,0,1
EndSplineSet
Substitution2: "'c2sc' Capitals to Small Capitals in Latin lookup 2 subtable" g.smcp
EndChar

StartChar: H
Encoding: 72 72 43
Width: 648
GlyphClass: 2
Flags: W
LayerCount: 2
Fore
SplineSet
85 0 m 1,0,-1
 201 732 l 1,1,-1
 242 732 l 1,2,-1
 185 374 l 1,3,-1
 594 374 l 1,4,-1
 651 732 l 1,5,-1
 692 732 l 1,6,-1
 576 0 l 1,7,-1
 535 0 l 1,8,-1
 588 334 l 1,9,-1
 179 334 l 1,10,-1
 126 0 l 1,11,-1
 85 0 l 1,0,-1
EndSplineSet
Substitution2: "'c2sc' Capitals to Small Capitals in Latin lookup 2 subtable" h.smcp
EndChar

StartChar: I
Encoding: 73 73 44
Width: 203
GlyphClass: 2
Flags: W
LayerCount: 2
Fore
SplineSet
90 0 m 1,0,-1
 206 732 l 1,1,-1
 247 732 l 1,2,-1
 131 0 l 1,3,-1
 90 0 l 1,0,-1
EndSplineSet
Substitution2: "'c2sc' Capitals to Small Capitals in Latin lookup 2 subtable" i.smcp
EndChar

StartChar: J
Encoding: 74 74 45
Width: 332
GlyphClass: 2
Flags: W
LayerCount: 2
Fore
SplineSet
46 49 m 1,0,1
 97 34 97 34 118 34 c 128,-1,2
 139 34 139 34 159 35.5 c 128,-1,3
 179 37 179 37 200 49 c 128,-1,4
 221 61 221 61 239 90.5 c 128,-1,5
 257 120 257 120 264 165 c 2,6,-1
 354 732 l 1,7,-1
 395 732 l 1,8,-1
 305 165 l 1,9,10
 289 55 289 55 230 18 c 0,11,12
 193 -6 193 -6 137 -6 c 0,13,14
 75 -6 75 -6 38 21 c 1,15,-1
 46 49 l 1,0,1
EndSplineSet
Substitution2: "'c2sc' Capitals to Small Capitals in Latin lookup 2 subtable" j.smcp
EndChar

StartChar: K
Encoding: 75 75 46
Width: 542
GlyphClass: 2
Flags: W
LayerCount: 2
Fore
SplineSet
80 0 m 1,0,-1
 196 732 l 1,1,-1
 237 732 l 1,2,-1
 182 388 l 1,3,-1
 313 388 l 1,4,-1
 600 732 l 1,5,-1
 652 732 l 1,6,-1
 349 366 l 1,7,-1
 536 0 l 1,8,-1
 487 0 l 1,9,-1
 311 346 l 1,10,-1
 177 346 l 1,11,-1
 122 0 l 1,12,-1
 80 0 l 1,0,-1
EndSplineSet
Substitution2: "'c2sc' Capitals to Small Capitals in Latin lookup 2 subtable" k.smcp
EndChar

StartChar: L
Encoding: 76 76 47
Width: 542
GlyphClass: 2
Flags: W
LayerCount: 2
Fore
SplineSet
140 126 m 2,0,1
 138 113 138 113 138 101 c 128,-1,2
 138 89 138 89 142 75.5 c 128,-1,3
 146 62 146 62 160 54 c 0,4,5
 183 41 183 41 222 41 c 2,6,-1
 508 41 l 1,7,-1
 502 0 l 1,8,-1
 218 0 l 2,9,10
 96 0 96 0 96 95 c 0,11,12
 96 109 96 109 99 126 c 2,13,-1
 196 732 l 1,14,-1
 236 732 l 1,15,-1
 140 126 l 2,0,1
EndSplineSet
Substitution2: "'c2sc' Capitals to Small Capitals in Latin lookup 2 subtable" l.smcp
EndChar

StartChar: M
Encoding: 77 77 48
Width: 790
GlyphClass: 2
Flags: W
LayerCount: 2
Fore
SplineSet
71 0 m 1,0,-1
 257 732 l 1,1,-1
 312 732 l 1,2,-1
 416 69 l 1,3,-1
 724 732 l 1,4,-1
 784 732 l 1,5,-1
 742 0 l 1,6,-1
 701 0 l 1,7,-1
 739 666 l 1,8,-1
 429 0 l 1,9,-1
 384 0 l 1,10,-1
 283 663 l 1,11,-1
 113 0 l 1,12,-1
 71 0 l 1,0,-1
EndSplineSet
AlternateSubs2: "'salt' Stylistic Alternatives in Latin lookup 16 subtable" M.salt
Substitution2: "'c2sc' Capitals to Small Capitals in Latin lookup 2 subtable" m.smcp
EndChar

StartChar: N
Encoding: 78 78 49
Width: 648
GlyphClass: 2
Flags: W
LayerCount: 2
Fore
SplineSet
80 0 m 1,0,-1
 196 732 l 1,1,-1
 237 732 l 1,2,-1
 550 75 l 1,3,-1
 654 732 l 1,4,-1
 695 732 l 1,5,-1
 579 0 l 1,6,-1
 540 0 l 1,7,-1
 226 657 l 1,8,-1
 121 0 l 1,9,-1
 80 0 l 1,0,-1
EndSplineSet
AlternateSubs2: "'salt' Stylistic Alternatives in Latin lookup 16 subtable" N.salt
Substitution2: "'c2sc' Capitals to Small Capitals in Latin lookup 2 subtable" n.smcp
EndChar

StartChar: O
Encoding: 79 79 50
Width: 678
GlyphClass: 2
Flags: W
LayerCount: 2
Fore
SplineSet
449 737 m 0,0,1
 488 737 488 737 517 733.5 c 128,-1,2
 546 730 546 730 575 720.5 c 128,-1,3
 604 711 604 711 622 694 c 0,4,5
 665 653 665 653 674 580 c 0,6,7
 677 553 677 553 677 527 c 0,8,9
 677 393 677 393 642 248 c 0,10,11
 608 108 608 108 546 55 c 0,12,13
 503 18 503 18 464 9 c 0,14,15
 369 -12 369 -12 264 -1 c 0,16,17
 192 6 192 6 159 37 c 1,18,19
 115 76 115 76 106 147 c 0,20,21
 103 173 103 173 103 198 c 0,22,23
 103 330 103 330 139 480 c 0,24,25
 161 568 161 568 199 634 c 1,26,27
 227 680 227 680 281 710 c 0,28,29
 330 737 330 737 449 737 c 0,0,1
207 58 m 0,30,31
 251 37 251 37 321 37 c 128,-1,32
 391 37 391 37 426.5 44 c 128,-1,33
 462 51 462 51 495 70.5 c 128,-1,34
 528 90 528 90 550 126 c 0,35,36
 597 202 597 202 622 361 c 0,37,38
 637 454 637 454 637 525 c 0,39,40
 637 584 637 584 617 631 c 0,41,42
 604 660 604 660 567 679 c 0,43,44
 542 692 542 692 506.5 694 c 128,-1,45
 471 696 471 696 443 696 c 128,-1,46
 415 696 415 696 397.5 695 c 128,-1,47
 380 694 380 694 356 691 c 128,-1,48
 332 688 332 688 317 681.5 c 128,-1,49
 302 675 302 675 283 663 c 128,-1,50
 264 651 264 651 251 634 c 128,-1,51
 238 617 238 617 223 592 c 0,52,53
 199 550 199 550 171 433 c 128,-1,54
 143 316 143 316 143 202.5 c 128,-1,55
 143 89 143 89 207 58 c 0,30,31
EndSplineSet
Substitution2: "'c2sc' Capitals to Small Capitals in Latin lookup 2 subtable" o.smcp
EndChar

StartChar: P
Encoding: 80 80 51
Width: 587
GlyphClass: 2
Flags: W
LayerCount: 2
Fore
SplineSet
477 732 m 2,0,1
 625 732 625 732 625 584 c 0,2,3
 625 517 625 517 608 466 c 128,-1,4
 591 415 591 415 578.5 393 c 128,-1,5
 566 371 566 371 547.5 355.5 c 128,-1,6
 529 340 529 340 515 332 c 128,-1,7
 501 324 501 324 479 320 c 0,8,9
 451 314 451 314 415 314 c 128,-1,10
 379 314 379 314 275.5 319.5 c 128,-1,11
 172 325 172 325 168 327 c 1,12,-1
 116 0 l 1,13,-1
 75 0 l 1,14,-1
 191 732 l 1,15,-1
 477 732 l 2,0,1
417 356 m 2,16,17
 517 356 517 356 554 439 c 0,18,19
 571 475 571 475 577 513.5 c 128,-1,20
 583 552 583 552 583 565 c 128,-1,21
 583 578 583 578 582 592.5 c 128,-1,22
 581 607 581 607 578 624.5 c 128,-1,23
 575 642 575 642 565.5 653.5 c 128,-1,24
 556 665 556 665 547 672.5 c 128,-1,25
 538 680 538 680 524 684 c 0,26,27
 500 690 500 690 470 690 c 2,28,-1
 225 690 l 1,29,-1
 172 356 l 1,30,-1
 417 356 l 2,16,17
EndSplineSet
Substitution2: "'c2sc' Capitals to Small Capitals in Latin lookup 2 subtable" p.smcp
EndChar

StartChar: Q
Encoding: 81 81 52
Width: 683
GlyphClass: 2
Flags: W
LayerCount: 2
Fore
SplineSet
453 737 m 0,0,1
 492 737 492 737 521 733.5 c 128,-1,2
 550 730 550 730 579 720.5 c 128,-1,3
 608 711 608 711 626 694 c 0,4,5
 669 653 669 653 678 580 c 0,6,7
 681 553 681 553 681 527 c 0,8,9
 681 393 681 393 646 248 c 0,10,11
 612 108 612 108 550 55 c 0,12,13
 507 18 507 18 468 9 c 0,14,15
 373 -12 373 -12 268 -1 c 0,16,17
 196 6 196 6 163 37 c 1,18,19
 119 76 119 76 110 147 c 0,20,21
 107 173 107 173 107 198 c 0,22,23
 107 330 107 330 143 480 c 0,24,25
 165 568 165 568 203 634 c 1,26,27
 231 680 231 680 285 710 c 0,28,29
 334 737 334 737 453 737 c 0,0,1
178 449 m 0,30,31
 147 305 147 305 147 200 c 0,32,33
 147 89 147 89 211 58 c 0,34,35
 255 37 255 37 325 37 c 128,-1,36
 395 37 395 37 430.5 44 c 128,-1,37
 466 51 466 51 499 70.5 c 128,-1,38
 532 90 532 90 554 126 c 0,39,40
 601 202 601 202 626 361 c 0,41,42
 641 454 641 454 641 525 c 0,43,44
 641 584 641 584 621 631 c 0,45,46
 608 660 608 660 571 679 c 0,47,48
 546 692 546 692 510.5 694 c 128,-1,49
 475 696 475 696 448.5 696 c 128,-1,50
 422 696 422 696 406 695.5 c 128,-1,51
 390 695 390 695 368 692.5 c 128,-1,52
 346 690 346 690 332 685 c 128,-1,53
 318 680 318 680 300 671.5 c 128,-1,54
 282 663 282 663 270 650 c 128,-1,55
 258 637 258 637 243.5 619 c 128,-1,56
 229 601 229 601 219 576 c 0,57,58
 192 513 192 513 178 449 c 0,30,31
343 -33 m 1,59,60
 369 -93 369 -93 441 -93 c 0,61,62
 472 -93 472 -93 508 -81 c 1,63,-1
 501 -124 l 1,64,65
 472 -135 472 -135 440.5 -135 c 128,-1,66
 409 -135 409 -135 381.5 -125 c 128,-1,67
 354 -115 354 -115 335.5 -91 c 128,-1,68
 317 -67 317 -67 316 -33 c 1,69,-1
 343 -33 l 1,59,60
EndSplineSet
Substitution2: "'c2sc' Capitals to Small Capitals in Latin lookup 2 subtable" q.smcp
EndChar

StartChar: R
Encoding: 82 82 53
Width: 611
GlyphClass: 2
Flags: W
LayerCount: 2
Fore
SplineSet
479 732 m 2,0,1
 624 732 624 732 624 579 c 0,2,3
 624 497 624 497 596 429 c 0,4,5
 580 389 580 389 562.5 368.5 c 128,-1,6
 545 348 545 348 520.5 335.5 c 128,-1,7
 496 323 496 323 479 320 c 128,-1,8
 462 317 462 317 440 316 c 1,9,-1
 548 0 l 1,10,-1
 503 0 l 1,11,-1
 397 313 l 1,12,13
 367 314 367 314 268 318.5 c 128,-1,14
 169 323 169 323 168 324 c 1,15,-1
 116 0 l 1,16,-1
 75 0 l 1,17,-1
 191 732 l 1,18,-1
 479 732 l 2,0,1
578 525 m 1,19,20
 582 571 582 571 582 593.5 c 128,-1,21
 582 616 582 616 574 633.5 c 128,-1,22
 566 651 566 651 558 662.5 c 128,-1,23
 550 674 550 674 534 680 c 0,24,25
 509 690 509 690 473 690 c 2,26,-1
 226 690 l 1,27,-1
 173 356 l 1,28,-1
 418 356 l 2,29,30
 518 356 518 356 555 438 c 0,31,32
 571 474 571 474 578 525 c 1,19,20
EndSplineSet
Substitution2: "'c2sc' Capitals to Small Capitals in Latin lookup 2 subtable" r.smcp
EndChar

StartChar: S
Encoding: 83 83 54
Width: 567
GlyphClass: 2
Flags: W
LayerCount: 2
Fore
SplineSet
83 40 m 1,0,1
 151 33 151 33 253 33 c 128,-1,2
 355 33 355 33 380 37.5 c 128,-1,3
 405 42 405 42 431 54 c 0,4,5
 486 80 486 80 498 156 c 2,6,-1
 508 224 l 2,7,8
 511 241 511 241 511 266 c 128,-1,9
 511 291 511 291 495 311 c 0,10,11
 473 338 473 338 407 338 c 2,12,-1
 286 338 l 2,13,14
 196 338 196 338 162 372 c 0,15,16
 132 403 132 403 132 444 c 0,17,18
 132 456 132 456 136 497 c 1,19,-1
 147 563 l 2,20,21
 164 670 164 670 226 707 c 0,22,23
 279 738 279 738 363 738 c 0,24,25
 402 738 402 738 480 731 c 128,-1,26
 558 724 558 724 597 717 c 1,27,-1
 593 689 l 1,28,-1
 363 697 l 2,29,30
 355 697 355 697 348 697 c 0,31,32
 282 697 282 697 241 668.5 c 128,-1,33
 200 640 200 640 188 560 c 1,34,-1
 177 494 l 1,35,36
 176 474 176 474 174 459 c 128,-1,37
 172 444 172 444 176.5 432 c 128,-1,38
 181 420 181 420 185 411.5 c 128,-1,39
 189 403 189 403 198.5 397.5 c 128,-1,40
 208 392 208 392 216.5 388.5 c 128,-1,41
 225 385 225 385 238 383 c 0,42,43
 260 379 260 379 291 379 c 2,44,-1
 414 379 l 2,45,46
 553 379 553 379 553 261 c 0,47,48
 553 242 553 242 549 221 c 2,49,-1
 539 153 l 1,50,51
 516 10 516 10 373 -5 c 0,52,53
 348 -8 348 -8 310 -8 c 128,-1,54
 272 -8 272 -8 191 -2 c 128,-1,55
 110 4 110 4 79 10 c 1,56,-1
 83 40 l 1,0,1
EndSplineSet
Substitution2: "'c2sc' Capitals to Small Capitals in Latin lookup 2 subtable" s.smcp
EndChar

StartChar: T
Encoding: 84 84 55
Width: 613
GlyphClass: 2
Flags: W
LayerCount: 2
Fore
SplineSet
139 691 m 1,0,-1
 146 732 l 1,1,-1
 674 732 l 1,2,-1
 667 691 l 1,3,-1
 420 691 l 1,4,-1
 311 0 l 1,5,-1
 270 0 l 1,6,-1
 379 691 l 1,7,-1
 139 691 l 1,0,-1
EndSplineSet
Substitution2: "'c2sc' Capitals to Small Capitals in Latin lookup 2 subtable" t.smcp
EndChar

StartChar: U
Encoding: 85 85 56
Width: 672
GlyphClass: 2
Flags: W
LayerCount: 2
Fore
SplineSet
171 314 m 2,0,1
 161 248 161 248 161 207 c 128,-1,2
 161 166 161 166 164 140.5 c 128,-1,3
 167 115 167 115 179.5 94.5 c 128,-1,4
 192 74 192 74 205.5 62.5 c 128,-1,5
 219 51 219 51 243 45 c 0,6,7
 279 36 279 36 331 36 c 128,-1,8
 383 36 383 36 413 41 c 128,-1,9
 443 46 443 46 474.5 62.5 c 128,-1,10
 506 79 506 79 528 109 c 0,11,12
 577 175 577 175 599 314 c 2,13,-1
 665 732 l 1,14,-1
 706 732 l 1,15,-1
 640 314 l 2,16,17
 610 122 610 122 535 56 c 0,18,19
 496 22 496 22 450.5 8.5 c 128,-1,20
 405 -5 405 -5 355 -5 c 128,-1,21
 305 -5 305 -5 280 -2.5 c 128,-1,22
 255 0 255 0 227 7.5 c 128,-1,23
 199 15 199 15 181 28 c 0,24,25
 137 62 137 62 125 123 c 0,26,27
 119 154 119 154 119 177.5 c 128,-1,28
 119 201 119 201 119.5 226.5 c 128,-1,29
 120 252 120 252 130 314 c 2,30,-1
 196 732 l 1,31,-1
 237 732 l 1,32,-1
 171 314 l 2,0,1
EndSplineSet
Substitution2: "'c2sc' Capitals to Small Capitals in Latin lookup 2 subtable" u.smcp
EndChar

StartChar: V
Encoding: 86 86 57
Width: 668
GlyphClass: 2
Flags: W
LayerCount: 2
Fore
SplineSet
150 732 m 1,0,-1
 193 732 l 1,1,-1
 326 58 l 1,2,-1
 683 732 l 1,3,-1
 730 732 l 1,4,-1
 342 0 l 1,5,-1
 294 0 l 1,6,-1
 150 732 l 1,0,-1
EndSplineSet
Substitution2: "'c2sc' Capitals to Small Capitals in Latin lookup 2 subtable" v.smcp
EndChar

StartChar: W
Encoding: 87 87 58
Width: 987
GlyphClass: 2
Flags: W
LayerCount: 2
Fore
SplineSet
150 732 m 1,0,-1
 191 732 l 1,1,-1
 325 58 l 1,2,-1
 671 732 l 1,3,-1
 717 732 l 1,4,-1
 573 448 l 1,5,-1
 658 55 l 1,6,-1
 1004 732 l 1,7,-1
 1049 732 l 1,8,-1
 674 0 l 1,9,-1
 626 0 l 1,10,-1
 542 389 l 1,11,-1
 342 0 l 1,12,-1
 294 0 l 1,13,-1
 150 732 l 1,0,-1
EndSplineSet
Substitution2: "'c2sc' Capitals to Small Capitals in Latin lookup 2 subtable" w.smcp
EndChar

StartChar: X
Encoding: 88 88 59
Width: 562
GlyphClass: 2
Flags: W
LayerCount: 2
Fore
SplineSet
38 0 m 1,0,-1
 313 365 l 1,1,-1
 151 732 l 1,2,-1
 196 732 l 1,3,-1
 342 402 l 1,4,-1
 595 732 l 1,5,-1
 645 732 l 1,6,-1
 361 360 l 1,7,-1
 522 0 l 1,8,-1
 477 0 l 1,9,-1
 333 322 l 1,10,-1
 89 0 l 1,11,-1
 38 0 l 1,0,-1
EndSplineSet
AlternateSubs2: "'salt' Stylistic Alternatives in Latin lookup 16 subtable" X.salt
Substitution2: "'c2sc' Capitals to Small Capitals in Latin lookup 2 subtable" x.smcp
EndChar

StartChar: Y
Encoding: 89 89 60
Width: 628
GlyphClass: 2
Flags: W
LayerCount: 2
Fore
SplineSet
150 732 m 1,0,-1
 194 732 l 1,1,-1
 341 312 l 1,2,-1
 641 732 l 1,3,-1
 690 732 l 1,4,-1
 356 260 l 1,5,-1
 315 0 l 1,6,-1
 274 0 l 1,7,-1
 315 260 l 1,8,-1
 150 732 l 1,0,-1
EndSplineSet
Substitution2: "'c2sc' Capitals to Small Capitals in Latin lookup 2 subtable" y.smcp
EndChar

StartChar: Z
Encoding: 90 90 61
Width: 526
GlyphClass: 2
Flags: W
LayerCount: 2
Fore
SplineSet
35 0 m 1,0,-1
 42 41 l 1,1,-1
 563 691 l 1,2,-1
 144 691 l 1,3,-1
 151 732 l 1,4,-1
 624 732 l 1,5,-1
 617 691 l 1,6,-1
 96 41 l 1,7,-1
 515 41 l 1,8,-1
 508 0 l 1,9,-1
 35 0 l 1,0,-1
EndSplineSet
Substitution2: "'c2sc' Capitals to Small Capitals in Latin lookup 2 subtable" z.smcp
EndChar

StartChar: bracketleft
Encoding: 91 91 62
Width: 284
GlyphClass: 2
Flags: W
LayerCount: 2
Fore
SplineSet
353 882 m 2,0,-1
 412 882 l 1,1,-1
 406 841 l 1,2,-1
 346 841 l 2,3,4
 251 841 251 841 231 716 c 2,5,-1
 118 2 l 2,6,7
 114 -23 114 -23 114 -49 c 0,8,9
 114 -129 114 -129 192 -129 c 2,10,-1
 253 -129 l 1,11,-1
 246 -170 l 1,12,-1
 186 -170 l 2,13,14
 152 -170 152 -170 128 -158 c 0,15,16
 73 -129 73 -129 73 -43 c 0,17,18
 73 -23 73 -23 77 2 c 2,19,-1
 190 716 l 2,20,21
 201 790 201 790 230 826 c 0,22,23
 260 863 260 863 291.5 872.5 c 128,-1,24
 323 882 323 882 353 882 c 2,0,-1
EndSplineSet
EndChar

StartChar: backslash
Encoding: 92 92 63
Width: 418
GlyphClass: 2
Flags: W
LayerCount: 2
Fore
SplineSet
141 770 m 1,0,-1
 178 770 l 1,1,-1
 326 -72 l 1,2,-1
 289 -72 l 1,3,-1
 141 770 l 1,0,-1
EndSplineSet
EndChar

StartChar: bracketright
Encoding: 93 93 64
Width: 287
GlyphClass: 2
Flags: W
LayerCount: 2
Fore
SplineSet
286 757 m 0,0,1
 286 841 286 841 207 841 c 2,2,-1
 147 841 l 1,3,-1
 154 882 l 1,4,-1
 214 882 l 2,5,6
 249 882 249 882 272 869 c 0,7,8
 327 840 327 840 327 756 c 0,9,10
 327 736 327 736 323 710 c 2,11,-1
 210 -5 l 2,12,13
 195 -95 195 -95 153 -134 c 0,14,15
 114 -170 114 -170 47 -170 c 2,16,-1
 -13 -170 l 1,17,-1
 -6 -129 l 1,18,-1
 54 -129 l 2,19,20
 148 -129 148 -129 169 -5 c 1,21,-1
 282 710 l 2,22,23
 286 736 286 736 286 757 c 0,0,1
EndSplineSet
EndChar

StartChar: asciicircum
Encoding: 94 94 65
Width: 415
GlyphClass: 2
Flags: W
LayerCount: 2
Fore
SplineSet
134 531 m 1,0,-1
 282 661 l 1,1,-1
 320 661 l 1,2,-1
 413 531 l 1,3,-1
 378 531 l 1,4,-1
 298 634 l 1,5,-1
 174 531 l 1,6,-1
 134 531 l 1,0,-1
EndSplineSet
EndChar

StartChar: underscore
Encoding: 95 95 66
Width: 656
GlyphClass: 2
Flags: W
LayerCount: 2
Fore
SplineSet
19 -1 m 1,0,-1
 26 40 l 1,1,-1
 640 40 l 1,2,-1
 633 -1 l 1,3,-1
 19 -1 l 1,0,-1
EndSplineSet
EndChar

StartChar: grave
Encoding: 96 96 67
Width: 230
GlyphClass: 2
Flags: W
LayerCount: 2
Fore
SplineSet
125 664 m 1,0,-1
 172 664 l 1,1,-1
 274 531 l 1,2,-1
 241 531 l 1,3,-1
 125 664 l 1,0,-1
EndSplineSet
Substitution2: "'smcp' Lowercase to Small Capitals lookup 1 subtable" grave.smcp
EndChar

StartChar: a
Encoding: 97 97 68
Width: 543
GlyphClass: 2
Flags: W
LayerCount: 2
Fore
SplineSet
257.5 531.5 m 128,-1,1
 279 537 279 537 302 540 c 128,-1,2
 325 543 325 543 355.5 543 c 128,-1,3
 386 543 386 543 447.5 528.5 c 128,-1,4
 509 514 509 514 545 479 c 1,5,-1
 475 0 l 1,6,-1
 448 0 l 1,7,-1
 445 60 l 1,8,9
 412 39 412 39 354 16 c 128,-1,10
 296 -7 296 -7 255.5 -7 c 128,-1,11
 215 -7 215 -7 191 -2 c 128,-1,12
 167 3 167 3 145 14 c 0,13,14
 104 36 104 36 87 99 c 0,15,16
 79 128 79 128 79 150 c 128,-1,17
 79 172 79 172 79.5 196.5 c 128,-1,18
 80 221 80 221 90.5 282 c 128,-1,19
 101 343 101 343 120 391 c 128,-1,20
 139 439 139 439 159.5 465.5 c 128,-1,21
 180 492 180 492 208 509 c 128,-1,0
 236 526 236 526 257.5 531.5 c 128,-1,1
120 173 m 0,22,23
 120 33 120 33 240 33 c 0,24,25
 307 33 307 33 371 57 c 0,26,27
 393 66 393 66 417.5 76.5 c 128,-1,28
 442 87 442 87 447 89 c 1,29,-1
 502 468 l 1,30,31
 422 503 422 503 350 503 c 0,32,33
 274 503 274 503 225 471 c 0,34,35
 155 424 155 424 127 248 c 0,36,37
 120 207 120 207 120 173 c 0,22,23
EndSplineSet
AlternateSubs2: "'salt' Stylistic Alternatives in Latin lookup 16 subtable" a.salt
Substitution2: "'smcp' Lowercase to Small Capitals lookup 1 subtable" a.smcp
EndChar

StartChar: b
Encoding: 98 98 69
Width: 548
GlyphClass: 2
Flags: W
LayerCount: 2
Fore
SplineSet
381 539 m 0,0,1
 528 539 528 539 528 356 c 0,2,3
 528 311 528 311 520 258 c 0,4,5
 477 -6 477 -6 302 -6 c 0,6,7
 252 -6 252 -6 190 17 c 128,-1,8
 128 40 128 40 109 59 c 1,9,-1
 87 0 l 1,10,-1
 60 0 l 1,11,-1
 184 785 l 1,12,-1
 223 785 l 1,13,-1
 178 499 l 1,14,15
 226 517 226 517 285 528 c 128,-1,16
 344 539 344 539 381 539 c 0,0,1
302 35 m 0,17,18
 366 35 366 35 413.5 92 c 128,-1,19
 461 149 461 149 479 263 c 0,20,21
 487 314 487 314 487 347 c 0,22,23
 487 442 487 442 446 476 c 0,24,25
 420 498 420 498 375 498 c 0,26,27
 289 498 289 498 175 469 c 1,28,-1
 114 87 l 1,29,30
 216 35 216 35 302 35 c 0,17,18
EndSplineSet
AlternateSubs2: "'salt' Stylistic Alternatives in Latin lookup 16 subtable" b.salt
Substitution2: "'smcp' Lowercase to Small Capitals lookup 1 subtable" b.smcp
EndChar

StartChar: c
Encoding: 99 99 70
Width: 492
GlyphClass: 2
Flags: W
LayerCount: 2
Fore
SplineSet
308 537 m 0,0,1
 389 537 389 537 512 510 c 1,2,-1
 507 482 l 1,3,4
 390 496 390 496 332 496 c 128,-1,5
 274 496 274 496 255.5 491.5 c 128,-1,6
 237 487 237 487 216.5 473 c 128,-1,7
 196 459 196 459 182 434 c 0,8,9
 149 378 149 378 130 262 c 0,10,11
 121 208 121 208 121 167.5 c 128,-1,12
 121 127 121 127 128 102 c 128,-1,13
 135 77 135 77 151 61 c 0,14,15
 177 35 177 35 223 35 c 0,16,17
 310 35 310 35 412 49 c 1,18,-1
 446 53 l 1,19,-1
 442 23 l 1,20,21
 362 2 362 2 315 -1.5 c 128,-1,22
 268 -5 268 -5 230.5 -5 c 128,-1,23
 193 -5 193 -5 169 2.5 c 128,-1,24
 145 10 145 10 124 28 c 0,25,26
 86 61 86 61 80 157 c 0,27,28
 80 166 80 166 80 191.5 c 128,-1,29
 80 217 80 217 90.5 278.5 c 128,-1,30
 101 340 101 340 118.5 389.5 c 128,-1,31
 136 439 136 439 154.5 467.5 c 128,-1,32
 173 496 173 496 199.5 512 c 128,-1,33
 226 528 226 528 250 532.5 c 128,-1,34
 274 537 274 537 308 537 c 0,0,1
EndSplineSet
Substitution2: "'smcp' Lowercase to Small Capitals lookup 1 subtable" c.smcp
EndChar

StartChar: d
Encoding: 100 100 71
Width: 531
GlyphClass: 2
Flags: W
LayerCount: 2
Fore
SplineSet
234.5 523.5 m 128,-1,1
 270 539 270 539 310.5 539 c 128,-1,2
 351 539 351 539 406.5 528 c 128,-1,3
 462 517 462 517 505 499 c 1,4,-1
 550 785 l 1,5,-1
 589 785 l 1,6,-1
 465 0 l 1,7,-1
 438 0 l 1,8,-1
 434 59 l 1,9,10
 408 39 408 39 343 16.5 c 128,-1,11
 278 -6 278 -6 234 -6 c 128,-1,12
 190 -6 190 -6 160 11 c 0,13,14
 82 55 82 55 82 189 c 0,15,16
 82 263 82 263 106 350 c 0,17,18
 130 436 130 436 176 484 c 0,19,0
 199 508 199 508 234.5 523.5 c 128,-1,1
499 469 m 1,20,21
 394 498 394 498 309 498 c 0,22,23
 206 498 206 498 160 381 c 0,24,25
 141 333 141 333 132 276.5 c 128,-1,26
 123 220 123 220 123 173.5 c 128,-1,27
 123 127 123 127 142 92 c 0,28,29
 173 35 173 35 231.5 35 c 128,-1,30
 290 35 290 35 336.5 48.5 c 128,-1,31
 383 62 383 62 438 87 c 1,32,-1
 499 469 l 1,20,21
EndSplineSet
AlternateSubs2: "'salt' Stylistic Alternatives in Latin lookup 16 subtable" d.salt
Substitution2: "'smcp' Lowercase to Small Capitals lookup 1 subtable" d.smcp
EndChar

StartChar: e
Encoding: 101 101 72
Width: 532
GlyphClass: 2
Flags: W
LayerCount: 2
Fore
SplineSet
344 541 m 0,0,1
 445 541 445 541 490 509 c 128,-1,2
 535 477 535 477 535 416 c 0,3,4
 535 346 535 346 500 305 c 128,-1,5
 465 264 465 264 422 249 c 0,6,7
 347 222 347 222 268 222 c 0,8,9
 222 222 222 222 178 229 c 128,-1,10
 134 236 134 236 123 240 c 1,11,12
 116 191 116 191 116 150 c 128,-1,13
 116 109 116 109 127 82 c 0,14,15
 147 34 147 34 216 33 c 0,16,17
 227 33 227 33 239 33 c 0,18,19
 323 33 323 33 458 52 c 1,20,-1
 453 22 l 1,21,22
 347 -7 347 -7 214 -7 c 0,23,24
 120 -7 120 -7 91 62 c 0,25,26
 75 98 75 98 75 153 c 128,-1,27
 75 208 75 208 84 257.5 c 128,-1,28
 93 307 93 307 97.5 328 c 128,-1,29
 102 349 102 349 109 373.5 c 128,-1,30
 116 398 116 398 123.5 415.5 c 128,-1,31
 131 433 131 433 142 451.5 c 128,-1,32
 153 470 153 470 166 482.5 c 128,-1,33
 179 495 179 495 197 507 c 128,-1,34
 215 519 215 519 236 526 c 0,35,36
 283 541 283 541 344 541 c 0,0,1
127 268 m 1,37,38
 179 259 179 259 217 259 c 128,-1,39
 255 259 255 259 275.5 259.5 c 128,-1,40
 296 260 296 260 337 267 c 128,-1,41
 378 274 378 274 408.5 287 c 128,-1,42
 439 300 439 300 463 326 c 0,43,44
 493 359 493 359 493 411 c 0,45,46
 493 467 493 467 444 486 c 0,47,48
 410 500 410 500 364.5 500 c 128,-1,49
 319 500 319 500 295 496 c 128,-1,50
 271 492 271 492 252.5 487 c 128,-1,51
 234 482 234 482 218.5 470.5 c 128,-1,52
 203 459 203 459 192.5 450.5 c 128,-1,53
 182 442 182 442 173 424.5 c 128,-1,54
 164 407 164 407 158.5 395.5 c 128,-1,55
 153 384 153 384 147 361 c 0,56,57
 140 332 140 332 135 307.5 c 128,-1,58
 130 283 130 283 129 281 c 0,59,60
 128 274 128 274 127 268 c 1,37,38
EndSplineSet
Substitution2: "'smcp' Lowercase to Small Capitals lookup 1 subtable" e.smcp
EndChar

StartChar: f
Encoding: 102 102 73
Width: 373
GlyphClass: 2
Flags: W
LayerCount: 2
Fore
SplineSet
306 781 m 128,-1,1
 323 785 323 785 334.5 785.5 c 128,-1,2
 346 786 346 786 360 786 c 128,-1,3
 374 786 374 786 415.5 781 c 128,-1,4
 457 776 457 776 477 770 c 1,5,-1
 474 745 l 1,6,-1
 342 745 l 2,7,8
 292 745 292 745 272 710 c 0,9,10
 254 679 254 679 243 609 c 2,11,-1
 231 531 l 1,12,-1
 405 531 l 1,13,-1
 398 490 l 1,14,-1
 224 490 l 1,15,-1
 146 0 l 1,16,-1
 105 0 l 1,17,-1
 183 490 l 1,18,-1
 92 490 l 1,19,-1
 96 518 l 1,20,-1
 190 531 l 1,21,-1
 202 609 l 2,22,23
 214 681 214 681 221.5 697.5 c 128,-1,24
 229 714 229 714 236.5 729 c 128,-1,25
 244 744 244 744 253.5 752.5 c 128,-1,26
 263 761 263 761 276 769 c 128,-1,0
 289 777 289 777 306 781 c 128,-1,1
EndSplineSet
AlternateSubs2: "'salt' Stylistic Alternatives in Latin lookup 16 subtable" f.salt
Substitution2: "'smcp' Lowercase to Small Capitals lookup 1 subtable" f.smcp
EndChar

StartChar: g
Encoding: 103 103 74
Width: 539
GlyphClass: 2
Flags: W
LayerCount: 2
Fore
SplineSet
284 -232 m 0,0,1
 325 -232 325 -232 365.5 -200 c 128,-1,2
 406 -168 406 -168 416 -104 c 2,3,-1
 437 29 l 1,4,5
 373 4 373 4 316 -3 c 128,-1,6
 259 -10 259 -10 235 -10 c 0,7,8
 179 -10 179 -10 143.5 12.5 c 128,-1,9
 108 35 108 35 95 73 c 0,10,11
 81 117 81 117 81 170 c 128,-1,12
 81 223 81 223 91 275 c 1,13,14
 111 402 111 402 168 469.5 c 128,-1,15
 225 537 225 537 315 537 c 0,16,17
 397 537 397 537 458.5 530.5 c 128,-1,18
 520 524 520 524 534 522.5 c 128,-1,19
 548 521 548 521 556 521 c 1,20,-1
 457 -104 l 2,21,22
 443 -192 443 -192 392.5 -232.5 c 128,-1,23
 342 -273 342 -273 288 -273 c 0,24,25
 279 -273 279 -273 271 -272 c 2,26,-1
 37 -248 l 1,27,-1
 41 -222 l 1,28,-1
 278 -232 l 2,29,30
 281 -232 281 -232 284 -232 c 0,0,1
124 162 m 0,31,32
 124 31 124 31 237 31 c 0,33,34
 288 31 288 31 328 37.5 c 128,-1,35
 368 44 368 44 442 63 c 1,36,-1
 511 493 l 1,37,-1
 318 496 l 2,38,39
 317 496 317 496 315 496 c 0,40,41
 205 496 205 496 153 354 c 0,42,43
 124 272 124 272 124 162 c 0,31,32
EndSplineSet
AlternateSubs2: "'salt' Stylistic Alternatives in Latin lookup 16 subtable" g.salt
Substitution2: "'smcp' Lowercase to Small Capitals lookup 1 subtable" g.smcp
EndChar

StartChar: h
Encoding: 104 104 75
Width: 541
GlyphClass: 2
Flags: W
LayerCount: 2
Fore
SplineSet
398 540 m 0,0,1
 474 540 474 540 509 490 c 0,2,3
 536 452 536 452 536 403 c 0,4,5
 536 387 536 387 533 370 c 2,6,-1
 474 0 l 1,7,-1
 433 0 l 1,8,-1
 492 370 l 2,9,10
 494 385 494 385 494 398 c 0,11,12
 494 438 494 438 474 464 c 0,13,14
 446 499 446 499 388 499 c 128,-1,15
 330 499 330 499 284 485.5 c 128,-1,16
 238 472 238 472 171 439 c 1,17,-1
 101 0 l 1,18,-1
 60 0 l 1,19,-1
 184 784 l 1,20,-1
 225 784 l 1,21,-1
 175 469 l 1,22,23
 301 540 301 540 398 540 c 0,0,1
EndSplineSet
Substitution2: "'smcp' Lowercase to Small Capitals lookup 1 subtable" h.smcp
EndChar

StartChar: i
Encoding: 105 105 76
Width: 161
GlyphClass: 2
Flags: W
LayerCount: 2
Fore
SplineSet
60 0 m 1,0,-1
 144 531 l 1,1,-1
 185 531 l 1,2,-1
 101 0 l 1,3,-1
 60 0 l 1,0,-1
179 696 m 2,4,-1
 204 696 l 2,5,6
 218 696 218 696 216 679 c 2,7,-1
 209 633 l 2,8,9
 207 617 207 617 191 617 c 2,10,-1
 167 617 l 2,11,12
 151 617 151 617 153 633 c 2,13,-1
 160 679 l 2,14,15
 162 696 162 696 179 696 c 2,4,-1
EndSplineSet
Substitution2: "'smcp' Lowercase to Small Capitals lookup 1 subtable" i.smcp
EndChar

StartChar: j
Encoding: 106 106 77
Width: 173
GlyphClass: 2
Flags: W
LayerCount: 2
Fore
SplineSet
28 -270 m 1,0,-1
 155 531 l 1,1,-1
 196 531 l 1,2,-1
 111 -4 l 1,3,4
 86 -172 86 -172 53 -270 c 1,5,-1
 28 -270 l 1,0,-1
189 696 m 2,6,-1
 214 696 l 2,7,8
 229 696 229 696 227 679 c 2,9,-1
 219 633 l 2,10,11
 217 617 217 617 201 617 c 2,12,-1
 177 617 l 2,13,14
 170 617 170 617 166 621.5 c 128,-1,15
 162 626 162 626 163 633 c 2,16,-1
 171 679 l 2,17,18
 173 696 173 696 189 696 c 2,6,-1
EndSplineSet
Substitution2: "'smcp' Lowercase to Small Capitals lookup 1 subtable" j.smcp
EndChar

StartChar: k
Encoding: 107 107 78
Width: 479
GlyphClass: 2
Flags: W
LayerCount: 2
Fore
SplineSet
233 279 m 1,0,1
 198 271 198 271 177 271 c 128,-1,2
 156 271 156 271 145 272 c 1,3,-1
 101 0 l 1,4,-1
 60 0 l 1,5,-1
 184 782 l 1,6,-1
 225 782 l 1,7,-1
 149 303 l 1,8,9
 211 306 211 306 266 328.5 c 128,-1,10
 321 351 321 351 359 385 c 0,11,12
 437 454 437 454 458 531 c 1,13,-1
 503 531 l 1,14,15
 473 422 473 422 378 349 c 0,16,17
 328 310 328 310 274 291 c 1,18,-1
 455 0 l 1,19,-1
 406 0 l 1,20,-1
 233 279 l 1,0,1
EndSplineSet
Substitution2: "'smcp' Lowercase to Small Capitals lookup 1 subtable" k.smcp
EndChar

StartChar: l
Encoding: 108 108 79
Width: 305
GlyphClass: 2
Flags: W
LayerCount: 2
Fore
SplineSet
190 0 m 2,0,1
 83 0 83 0 83 122 c 0,2,3
 83 152 83 152 89 189 c 2,4,-1
 183 783 l 1,5,-1
 224 783 l 1,6,-1
 130 189 l 2,7,8
 125 156 125 156 125 133.5 c 128,-1,9
 125 111 125 111 126 98.5 c 128,-1,10
 127 86 127 86 133.5 75 c 128,-1,11
 140 64 140 64 144 58.5 c 128,-1,12
 148 53 148 53 158 49 c 0,13,14
 170 44 170 44 213 36 c 128,-1,15
 256 28 256 28 261 28 c 1,16,-1
 256 0 l 1,17,-1
 190 0 l 2,0,1
EndSplineSet
Substitution2: "'smcp' Lowercase to Small Capitals lookup 1 subtable" l.smcp
EndChar

StartChar: m
Encoding: 109 109 80
Width: 913
GlyphClass: 2
Flags: W
LayerCount: 2
Fore
SplineSet
398 539 m 128,-1,1
 441 539 441 539 475 516 c 128,-1,2
 509 493 509 493 522 456 c 1,3,4
 571 489 571 489 638.5 514 c 128,-1,5
 706 539 706 539 772.5 539 c 128,-1,6
 839 539 839 539 877 489 c 0,7,8
 906 451 906 451 906 400 c 0,9,10
 906 385 906 385 903 369 c 2,11,-1
 845 0 l 1,12,-1
 804 0 l 1,13,-1
 862 369 l 2,14,15
 864 382 864 382 864 394 c 0,16,17
 864 433 864 433 843 461 c 0,18,19
 815 498 815 498 760 498 c 0,20,21
 655 498 655 498 530 433 c 1,22,23
 534 421 534 421 534 404.5 c 128,-1,24
 534 388 534 388 531 368 c 2,25,-1
 472 0 l 1,26,-1
 431 0 l 1,27,-1
 490 369 l 2,28,29
 492 382 492 382 492 394 c 0,30,31
 492 433 492 433 470 461 c 0,32,33
 442 498 442 498 384.5 498 c 128,-1,34
 327 498 327 498 282.5 484.5 c 128,-1,35
 238 471 238 471 170 439 c 1,36,-1
 101 0 l 1,37,-1
 60 0 l 1,38,-1
 144 531 l 1,39,-1
 171 531 l 1,40,-1
 175 468 l 1,41,42
 252 512 252 512 303.5 525.5 c 128,-1,0
 355 539 355 539 398 539 c 128,-1,1
EndSplineSet
AlternateSubs2: "'salt' Stylistic Alternatives in Latin lookup 16 subtable" m.salt
Substitution2: "'smcp' Lowercase to Small Capitals lookup 1 subtable" m.smcp
EndChar

StartChar: n
Encoding: 110 110 81
Width: 541
GlyphClass: 2
Flags: W
LayerCount: 2
Fore
SplineSet
396 540 m 0,0,1
 472 540 472 540 508 490 c 0,2,3
 536 452 536 452 536 402 c 0,4,5
 536 387 536 387 533 370 c 2,6,-1
 474 0 l 1,7,-1
 433 0 l 1,8,-1
 492 370 l 2,9,10
 494 384 494 384 494 397 c 0,11,12
 494 436 494 436 474 463 c 0,13,14
 446 499 446 499 388 499 c 128,-1,15
 330 499 330 499 284 485.5 c 128,-1,16
 238 472 238 472 171 439 c 1,17,-1
 101 0 l 1,18,-1
 60 0 l 1,19,-1
 144 531 l 1,20,-1
 171 531 l 1,21,-1
 175 469 l 1,22,23
 301 540 301 540 396 540 c 0,0,1
EndSplineSet
AlternateSubs2: "'salt' Stylistic Alternatives in Latin lookup 16 subtable" n.salt
Substitution2: "'smcp' Lowercase to Small Capitals lookup 1 subtable" n.smcp
EndChar

StartChar: o
Encoding: 111 111 82
Width: 561
GlyphClass: 2
Flags: W
LayerCount: 2
Fore
SplineSet
357 536 m 0,0,1
 482 536 482 536 522 467 c 0,2,3
 547 424 547 424 547 365.5 c 128,-1,4
 547 307 547 307 539 253 c 0,5,6
 515 106 515 106 459 50.5 c 128,-1,7
 403 -5 403 -5 275.5 -5 c 128,-1,8
 148 -5 148 -5 107 56 c 1,9,10
 82 95 82 95 82 168 c 0,11,12
 82 210 82 210 92.5 277.5 c 128,-1,13
 103 345 103 345 123 397 c 128,-1,14
 143 449 143 449 175.5 480.5 c 128,-1,15
 208 512 208 512 251 524 c 128,-1,16
 294 536 294 536 357 536 c 0,0,1
193 45 m 0,17,18
 226 36 226 36 277.5 36 c 128,-1,19
 329 36 329 36 361 44 c 128,-1,20
 393 52 393 52 421 75 c 0,21,22
 475 117 475 117 498 258 c 0,23,24
 507 314 507 314 507 350 c 128,-1,25
 507 386 507 386 500 410.5 c 128,-1,26
 493 435 493 435 481.5 452 c 128,-1,27
 470 469 470 469 449 478 c 0,28,29
 413 495 413 495 366 495 c 128,-1,30
 319 495 319 495 296.5 492.5 c 128,-1,31
 274 490 274 490 250 481.5 c 128,-1,32
 226 473 226 473 210 457 c 0,33,34
 171 419 171 419 147 336.5 c 128,-1,35
 123 254 123 254 123 160 c 128,-1,36
 123 66 123 66 193 45 c 0,17,18
EndSplineSet
Substitution2: "'smcp' Lowercase to Small Capitals lookup 1 subtable" o.smcp
EndChar

StartChar: p
Encoding: 112 112 83
Width: 537
GlyphClass: 2
Flags: W
LayerCount: 2
Fore
SplineSet
382 536 m 0,0,1
 534 536 534 536 534 338 c 0,2,3
 534 300 534 300 525.5 249 c 128,-1,4
 517 198 517 198 501.5 152.5 c 128,-1,5
 486 107 486 107 461 69 c 0,6,7
 409 -9 409 -9 302 -9 c 0,8,9
 263 -9 263 -9 205 1 c 128,-1,10
 147 11 147 11 105 29 c 1,11,-1
 58 -270 l 1,12,-1
 17 -270 l 1,13,-1
 146 525 l 1,14,15
 225 536 225 536 382 536 c 0,0,1
492 346 m 0,16,17
 492 495 492 495 377 495 c 2,18,-1
 181 495 l 1,19,-1
 111 60 l 1,20,21
 214 32 214 32 279 32 c 0,22,23
 292 32 292 32 305 32 c 0,24,25
 380 35 380 35 422.5 89.5 c 128,-1,26
 465 144 465 144 485 266 c 0,27,28
 492 310 492 310 492 346 c 0,16,17
EndSplineSet
AlternateSubs2: "'salt' Stylistic Alternatives in Latin lookup 16 subtable" p.salt
Substitution2: "'smcp' Lowercase to Small Capitals lookup 1 subtable" p.smcp
EndChar

StartChar: q
Encoding: 113 113 84
Width: 552
GlyphClass: 2
Flags: W
LayerCount: 2
Fore
SplineSet
319 537 m 0,0,1
 451 537 451 537 554 523 c 1,2,-1
 429 -270 l 1,3,-1
 388 -270 l 1,4,-1
 435 29 l 1,5,6
 370 4 370 4 314 -3 c 128,-1,7
 258 -10 258 -10 235 -10 c 0,8,9
 179 -10 179 -10 144 12 c 128,-1,10
 109 34 109 34 96 73 c 0,11,12
 82 116 82 116 82 169 c 128,-1,13
 82 222 82 222 92 274 c 1,14,15
 134 537 134 537 319 537 c 0,0,1
124 178 m 128,-1,17
 124 150 124 150 124 142 c 0,18,19
 126 90 126 90 154 60.5 c 128,-1,20
 182 31 182 31 237 31 c 128,-1,21
 292 31 292 31 331.5 37 c 128,-1,22
 371 43 371 43 440 60 c 1,23,-1
 509 496 l 1,24,-1
 313 496 l 2,25,26
 220 496 220 496 171 396 c 0,27,28
 144 341 144 341 134 273.5 c 128,-1,16
 124 206 124 206 124 178 c 128,-1,17
EndSplineSet
Substitution2: "'smcp' Lowercase to Small Capitals lookup 1 subtable" q.smcp
EndChar

StartChar: r
Encoding: 114 114 85
Width: 404
GlyphClass: 2
Flags: W
LayerCount: 2
Fore
SplineSet
312.5 524 m 128,-1,1
 357 537 357 537 404 537 c 128,-1,2
 451 537 451 537 470 529 c 1,3,-1
 463 489 l 1,4,5
 434 496 434 496 403 496 c 128,-1,6
 372 496 372 496 356.5 494.5 c 128,-1,7
 341 493 341 493 322.5 488.5 c 128,-1,8
 304 484 304 484 294.5 482 c 128,-1,9
 285 480 285 480 263 471 c 128,-1,10
 241 462 241 462 235.5 460 c 128,-1,11
 230 458 230 458 201.5 445 c 128,-1,12
 173 432 173 432 169 430 c 1,13,-1
 101 0 l 1,14,-1
 60 0 l 1,15,-1
 144 531 l 1,16,-1
 170 531 l 1,17,-1
 174 464 l 1,18,19
 223 489 223 489 245.5 500 c 128,-1,0
 268 511 268 511 312.5 524 c 128,-1,1
EndSplineSet
AlternateSubs2: "'salt' Stylistic Alternatives in Latin lookup 16 subtable" r.salt
Substitution2: "'smcp' Lowercase to Small Capitals lookup 1 subtable" r.smcp
EndChar

StartChar: s
Encoding: 115 115 86
Width: 505
GlyphClass: 2
Flags: W
LayerCount: 2
Fore
SplineSet
323 34 m 2,0,1
 372 34 372 34 392 51 c 0,2,3
 417 72 417 72 424 115 c 2,4,-1
 433 165 l 2,5,6
 434 174 434 174 434 190 c 128,-1,7
 434 206 434 206 418 224.5 c 128,-1,8
 402 243 402 243 358 243 c 2,9,-1
 221 243 l 2,10,11
 127 243 127 243 108 278 c 0,12,13
 94 303 94 303 94 325 c 128,-1,14
 94 347 94 347 98 365 c 2,15,-1
 106 413 l 2,16,17
 116 477 116 477 152.5 507.5 c 128,-1,18
 189 538 189 538 264 538 c 0,19,20
 303 538 303 538 384.5 534 c 128,-1,21
 466 530 466 530 504 526 c 1,22,-1
 499 498 l 1,23,-1
 258 498 l 2,24,25
 180 498 180 498 157 446 c 0,26,27
 150 430 150 430 147 409 c 2,28,-1
 139 361 l 2,29,30
 134 331 134 331 137.5 320 c 128,-1,31
 141 309 141 309 143.5 303.5 c 128,-1,32
 146 298 146 298 153 294 c 128,-1,33
 160 290 160 290 165 288 c 128,-1,34
 170 286 170 286 181 286 c 1,35,36
 196 284 196 284 209 284 c 128,-1,37
 222 284 222 284 224 284 c 2,38,-1
 360 284 l 2,39,40
 420 284 420 284 448 254.5 c 128,-1,41
 476 225 476 225 476 185 c 0,42,43
 476 174 476 174 474 161 c 2,44,-1
 465 108 l 1,45,46
 452 22 452 22 389 2 c 0,47,48
 359 -7 359 -7 319 -7 c 128,-1,49
 279 -7 279 -7 186 -2 c 128,-1,50
 93 3 93 3 64 6 c 1,51,-1
 68 34 l 1,52,-1
 323 34 l 2,0,1
EndSplineSet
Substitution2: "'smcp' Lowercase to Small Capitals lookup 1 subtable" s.smcp
EndChar

StartChar: t
Encoding: 116 116 87
Width: 355
GlyphClass: 2
Flags: W
LayerCount: 2
Fore
SplineSet
236 -1 m 2,0,1
 127 -1 127 -1 127 122 c 0,2,3
 127 152 127 152 133 188 c 2,4,-1
 181 491 l 1,5,-1
 92 491 l 1,6,-1
 97 521 l 1,7,-1
 188 532 l 1,8,-1
 222 680 l 1,9,-1
 252 680 l 1,10,-1
 229 532 l 1,11,-1
 397 532 l 1,12,-1
 390 491 l 1,13,-1
 222 491 l 1,14,-1
 174 188 l 2,15,16
 169 156 169 156 169 133.5 c 128,-1,17
 169 111 169 111 170.5 98 c 128,-1,18
 172 85 172 85 178 74 c 128,-1,19
 184 63 184 63 188.5 57.5 c 128,-1,20
 193 52 193 52 203 48 c 0,21,22
 214 43 214 43 257 35 c 128,-1,23
 300 27 300 27 305 27 c 1,24,-1
 301 -1 l 1,25,-1
 236 -1 l 2,0,1
EndSplineSet
AlternateSubs2: "'salt' Stylistic Alternatives in Latin lookup 16 subtable" t.salt
Substitution2: "'smcp' Lowercase to Small Capitals lookup 1 subtable" t.smcp
EndChar

StartChar: u
Encoding: 117 117 88
Width: 540
GlyphClass: 2
Flags: W
LayerCount: 2
Fore
SplineSet
114 133 m 0,0,1
 114 94 114 94 135 68 c 0,2,3
 162 33 162 33 220.5 33 c 128,-1,4
 279 33 279 33 324.5 46.5 c 128,-1,5
 370 60 370 60 438 92 c 1,6,-1
 507 532 l 1,7,-1
 548 532 l 1,8,-1
 464 1 l 1,9,-1
 437 1 l 1,10,-1
 433 63 l 1,11,12
 307 -8 307 -8 222 -8 c 128,-1,13
 137 -8 137 -8 100 41 c 1,14,15
 73 79 73 79 73 129 c 0,16,17
 73 145 73 145 75 162 c 2,18,-1
 134 532 l 1,19,-1
 175 532 l 1,20,-1
 116 162 l 2,21,22
 114 147 114 147 114 133 c 0,0,1
EndSplineSet
AlternateSubs2: "'salt' Stylistic Alternatives in Latin lookup 16 subtable" u.salt
Substitution2: "'smcp' Lowercase to Small Capitals lookup 1 subtable" u.smcp
EndChar

StartChar: v
Encoding: 118 118 89
Width: 526
GlyphClass: 2
Flags: W
LayerCount: 2
Fore
SplineSet
544 515 m 0,0,1
 544 485 544 485 521 440 c 1,2,-1
 275 0 l 1,3,-1
 225 0 l 1,4,-1
 94 531 l 1,5,-1
 136 531 l 1,6,-1
 256 53 l 1,7,-1
 479 449 l 1,8,9
 508 503 508 503 512 532 c 1,10,-1
 542 532 l 1,11,12
 544 524 544 524 544 515 c 0,0,1
EndSplineSet
Substitution2: "'smcp' Lowercase to Small Capitals lookup 1 subtable" v.smcp
EndChar

StartChar: w
Encoding: 119 119 90
Width: 803
GlyphClass: 2
Flags: W
LayerCount: 2
Fore
SplineSet
539 513 m 0,0,1
 539 484 539 484 516 437 c 1,2,-1
 464 343 l 1,3,-1
 534 54 l 1,4,-1
 759 448 l 1,5,6
 790 505 790 505 794 532 c 1,7,-1
 822 532 l 1,8,9
 825 523 825 523 825 513 c 0,10,11
 825 483 825 483 801 440 c 2,12,-1
 549 0 l 1,13,-1
 506 0 l 1,14,-1
 435 293 l 1,15,-1
 270 0 l 1,16,-1
 225 0 l 1,17,-1
 94 531 l 1,18,-1
 135 531 l 1,19,-1
 253 54 l 1,20,-1
 474 446 l 2,21,22
 505 503 505 503 509 529 c 1,23,-1
 537 529 l 1,24,25
 539 522 539 522 539 513 c 0,0,1
EndSplineSet
Substitution2: "'smcp' Lowercase to Small Capitals lookup 1 subtable" w.smcp
EndChar

StartChar: x
Encoding: 120 120 91
Width: 471
GlyphClass: 2
Flags: W
LayerCount: 2
Fore
SplineSet
24 0 m 1,0,-1
 258 267 l 1,1,-1
 108 531 l 1,2,-1
 158 531 l 1,3,-1
 289 301 l 1,4,-1
 491 531 l 1,5,-1
 544 531 l 1,6,-1
 310 264 l 1,7,-1
 459 0 l 1,8,-1
 409 0 l 1,9,-1
 280 228 l 1,10,-1
 79 0 l 1,11,-1
 24 0 l 1,0,-1
EndSplineSet
AlternateSubs2: "'salt' Stylistic Alternatives in Latin lookup 16 subtable" x.salt
Substitution2: "'smcp' Lowercase to Small Capitals lookup 1 subtable" x.smcp
EndChar

StartChar: y
Encoding: 121 121 92
Width: 540
GlyphClass: 2
Flags: W
LayerCount: 2
Fore
SplineSet
556 536 m 1,0,1
 560 525 560 525 560 503.5 c 128,-1,2
 560 482 560 482 540 443 c 2,3,-1
 324 1 l 2,4,5
 323 -2 323 -2 318 -11 c 0,6,7
 192 -262 192 -262 97 -269 c 1,8,-1
 97 -242 l 1,9,10
 164 -226 164 -226 269 -16 c 0,11,12
 276 -1 276 -1 277 0 c 1,13,14
 252 1 252 1 229 14 c 0,15,16
 183 40 183 40 170 110 c 2,17,-1
 94 531 l 1,18,-1
 136 531 l 1,19,-1
 212 116 l 2,20,21
 225 49 225 49 281 43 c 1,22,-1
 298 43 l 1,23,-1
 499 454 l 2,24,25
 520 498 520 498 526 536 c 1,26,-1
 556 536 l 1,0,1
EndSplineSet
Substitution2: "'smcp' Lowercase to Small Capitals lookup 1 subtable" y.smcp
EndChar

StartChar: z
Encoding: 122 122 93
Width: 451
GlyphClass: 2
Flags: W
LayerCount: 2
Fore
SplineSet
45 1 m 1,0,-1
 51 42 l 1,1,-1
 447 490 l 1,2,-1
 108 490 l 1,3,-1
 114 531 l 1,4,-1
 510 531 l 1,5,-1
 504 490 l 1,6,-1
 109 42 l 1,7,-1
 432 42 l 1,8,-1
 426 1 l 1,9,-1
 45 1 l 1,0,-1
EndSplineSet
Substitution2: "'smcp' Lowercase to Small Capitals lookup 1 subtable" z.smcp
EndChar

StartChar: braceleft
Encoding: 123 123 94
Width: 280
GlyphClass: 2
Flags: W
LayerCount: 2
Fore
SplineSet
403 841 m 0,0,1
 362 841 362 841 332 828 c 0,2,3
 268 800 268 800 252 696 c 2,4,-1
 215 460 l 2,5,6
 207 413 207 413 163 389 c 0,7,8
 143 378 143 378 119 374 c 1,9,10
 153 369 153 369 170.5 348 c 128,-1,11
 188 327 188 327 188 303 c 0,12,13
 188 297 188 297 187 291 c 2,14,-1
 143 16 l 2,15,16
 139 -11 139 -11 139 -43.5 c 128,-1,17
 139 -76 139 -76 157 -99 c 0,18,19
 183 -130 183 -130 247 -130 c 0,20,21
 249 -130 249 -130 251 -130 c 1,22,-1
 244 -170 l 1,23,24
 98 -170 98 -170 98 -33 c 0,25,26
 98 -8 98 -8 103 20 c 2,27,-1
 145 287 l 2,28,29
 146 292 146 292 146 298 c 0,30,31
 146 323 146 323 124 339.5 c 128,-1,32
 102 356 102 356 74 356 c 0,33,34
 71 356 71 356 67 356 c 1,35,-1
 73 397 l 1,36,37
 123 400 123 400 139 410 c 0,38,39
 169 430 169 430 174 460 c 2,40,-1
 212 700 l 2,41,42
 225 785 225 785 271.5 833.5 c 128,-1,43
 318 882 318 882 411 882 c 1,44,-1
 404 841 l 1,45,46
 404 841 404 841 403 841 c 0,0,1
EndSplineSet
EndChar

StartChar: bar
Encoding: 124 124 95
Width: 225
GlyphClass: 2
Flags: W
LayerCount: 2
Fore
SplineSet
74 -72 m 1,0,-1
 207 770 l 1,1,-1
 248 770 l 1,2,-1
 115 -72 l 1,3,-1
 74 -72 l 1,0,-1
EndSplineSet
EndChar

StartChar: braceright
Encoding: 125 125 96
Width: 277
GlyphClass: 2
Flags: W
LayerCount: 2
Fore
SplineSet
154 882 m 1,0,1
 298 882 298 882 298 731 c 0,2,3
 298 706 298 706 293 682 c 1,4,-1
 256 448 l 1,5,6
 249 396 249 396 306 382 c 0,7,8
 320 378 320 378 335 378 c 1,9,-1
 328 337 l 1,10,11
 325 338 325 338 322 338 c 0,12,13
 292 338 292 338 263 323 c 128,-1,14
 234 308 234 308 228 275 c 2,15,-1
 185 3 l 2,16,17
 165 -124 165 -124 76 -157 c 1,18,19
 38 -170 38 -170 -13 -170 c 1,20,-1
 -6 -130 l 1,21,22
 -6 -130 -6 -130 -5 -130 c 0,23,24
 60 -130 60 -130 96.5 -99.5 c 128,-1,25
 133 -69 133 -69 145 6 c 2,26,-1
 188 277 l 2,27,28
 193 310 193 310 220 332.5 c 128,-1,29
 247 355 247 355 282 361 c 1,30,31
 248 366 248 366 230.5 387 c 128,-1,32
 213 408 213 408 213 432 c 0,33,34
 213 439 213 439 214 446 c 2,35,-1
 253 686 l 2,36,37
 257 715 257 715 257 749.5 c 128,-1,38
 257 784 257 784 239 808 c 0,39,40
 213 843 213 843 151 843 c 0,41,42
 149 843 149 843 147 843 c 1,43,-1
 154 882 l 1,0,1
EndSplineSet
EndChar

StartChar: asciitilde
Encoding: 126 126 97
Width: 471
GlyphClass: 2
Flags: W
LayerCount: 2
Fore
SplineSet
317 603 m 128,-1,1
 353 573 353 573 365.5 573 c 128,-1,2
 378 573 378 573 386.5 575 c 128,-1,3
 395 577 395 577 403.5 580 c 128,-1,4
 412 583 412 583 419 586.5 c 128,-1,5
 426 590 426 590 434.5 595.5 c 128,-1,6
 443 601 443 601 448.5 604.5 c 128,-1,7
 454 608 454 608 462.5 614 c 128,-1,8
 471 620 471 620 475 622 c 1,9,-1
 483 603 l 1,10,11
 480 600 480 600 471 593 c 128,-1,12
 462 586 462 586 458.5 582.5 c 128,-1,13
 455 579 455 579 446.5 572.5 c 128,-1,14
 438 566 438 566 433.5 563 c 128,-1,15
 429 560 429 560 421 555 c 128,-1,16
 413 550 413 550 407 547.5 c 128,-1,17
 401 545 401 545 394 543 c 0,18,19
 380 538 380 538 361 538 c 128,-1,20
 342 538 342 538 306 568 c 128,-1,21
 270 598 270 598 254.5 598 c 128,-1,22
 239 598 239 598 224.5 593.5 c 128,-1,23
 210 589 210 589 201.5 584.5 c 128,-1,24
 193 580 193 580 174.5 568.5 c 128,-1,25
 156 557 156 557 148 553 c 1,26,-1
 140 572 l 1,27,28
 144 575 144 575 155 583.5 c 128,-1,29
 166 592 166 592 170 595 c 128,-1,30
 174 598 174 598 184 605 c 128,-1,31
 194 612 194 612 199 614.5 c 128,-1,32
 204 617 204 617 213 622 c 128,-1,33
 222 627 222 627 228 628 c 0,34,35
 246 633 246 633 263.5 633 c 128,-1,0
 281 633 281 633 317 603 c 128,-1,1
EndSplineSet
EndChar

StartChar: exclamdown
Encoding: 161 161 98
Width: 249
GlyphClass: 2
Flags: W
LayerCount: 2
Fore
SplineSet
45 -270 m 1,0,-1
 137 265 l 1,1,-1
 170 265 l 1,2,-1
 92 -270 l 1,3,-1
 45 -270 l 1,0,-1
143 386 m 2,4,-1
 153 446 l 2,5,6
 155 460 155 460 171 461 c 1,7,-1
 196 461 l 1,8,9
 211 460 211 460 209 445 c 2,10,-1
 199 386 l 2,11,12
 196 371 196 371 182 369 c 1,13,-1
 155 369 l 1,14,15
 141 370 141 370 143 386 c 2,4,-1
EndSplineSet
Substitution2: "'case' Case-Sensitive Forms lookup 18 subtable" exclamdown.alt
Substitution2: "'smcp' Lowercase to Small Capitals lookup 1 subtable" exclamdown.smcp
EndChar

StartChar: cent
Encoding: 162 162 99
Width: 481
GlyphClass: 2
Flags: W
LayerCount: 2
Fore
SplineSet
213 523.5 m 128,-1,1
 238 532 238 532 259 534.5 c 128,-1,2
 280 537 280 537 295 537 c 128,-1,3
 310 537 310 537 315 537 c 1,4,-1
 329 623 l 1,5,-1
 361 623 l 1,6,-1
 347 534 l 1,7,8
 424 528 424 528 503 510 c 1,9,-1
 498 482 l 1,10,11
 381 496 381 496 323 496 c 128,-1,12
 265 496 265 496 246.5 491.5 c 128,-1,13
 228 487 228 487 207.5 473.5 c 128,-1,14
 187 460 187 460 173 434 c 0,15,16
 141 378 141 378 121 262 c 0,17,18
 112 205 112 205 112 172 c 128,-1,19
 112 139 112 139 116 117.5 c 128,-1,20
 120 96 120 96 129 79 c 128,-1,21
 138 62 138 62 152 53 c 0,22,23
 178 35 178 35 219 35 c 0,24,25
 301 35 301 35 403 49 c 1,26,-1
 438 53 l 1,27,-1
 433 23 l 1,28,29
 345 -1 345 -1 262 -4 c 1,30,-1
 249 -87 l 1,31,-1
 217 -87 l 1,32,-1
 229 -5 l 1,33,34
 227 -5 227 -5 212.5 -5 c 128,-1,35
 198 -5 198 -5 175.5 -0.5 c 128,-1,36
 153 4 153 4 132 15 c 0,37,38
 93 36 93 36 77 97 c 0,39,40
 70 124 70 124 70 145.5 c 128,-1,41
 70 167 70 167 70.5 191 c 128,-1,42
 71 215 71 215 80.5 273 c 128,-1,43
 90 331 90 331 103 376 c 128,-1,44
 116 421 116 421 134 449.5 c 128,-1,45
 152 478 152 478 170 496.5 c 128,-1,0
 188 515 188 515 213 523.5 c 128,-1,1
EndSplineSet
EndChar

StartChar: sterling
Encoding: 163 163 100
Width: 571
GlyphClass: 2
Flags: W
LayerCount: 2
Fore
SplineSet
412.5 731 m 128,-1,1
 434 732 434 732 458 732 c 128,-1,2
 482 732 482 732 506 731 c 128,-1,3
 530 730 530 730 552 728 c 0,4,5
 599 725 599 725 628 722 c 2,6,-1
 641 721 l 1,7,-1
 635 692 l 1,8,-1
 464 692 l 2,9,10
 409 692 409 692 376 686 c 128,-1,11
 343 680 343 680 314 661 c 128,-1,12
 285 642 285 642 269 604.5 c 128,-1,13
 253 567 253 567 243 505 c 2,14,-1
 223 379 l 1,15,-1
 506 368 l 1,16,-1
 501 343 l 1,17,-1
 217 343 l 1,18,-1
 170 41 l 1,19,-1
 532 41 l 1,20,-1
 525 0 l 1,21,-1
 50 0 l 1,22,-1
 54 29 l 1,23,-1
 129 41 l 1,24,-1
 176 343 l 1,25,-1
 104 343 l 1,26,-1
 108 368 l 1,27,-1
 182 379 l 1,28,-1
 202 505 l 2,29,30
 223 638 223 638 280 685 c 0,31,32
 319 717 319 717 355 723.5 c 128,-1,0
 391 730 391 730 412.5 731 c 128,-1,1
EndSplineSet
Substitution2: "'smcp' Lowercase to Small Capitals lookup 1 subtable" sterling.smcp
EndChar

StartChar: currency
Encoding: 164 164 101
Width: 467
GlyphClass: 2
Flags: W
LayerCount: 2
Fore
SplineSet
436 336 m 0,0,1
 436 263 436 263 382 205 c 1,2,-1
 418 162 l 1,3,-1
 394 143 l 1,4,-1
 360 185 l 1,5,6
 310 143 310 143 246.5 143 c 128,-1,7
 183 143 183 143 145 188 c 1,8,-1
 97 146 l 1,9,-1
 79 168 l 1,10,-1
 128 210 l 1,11,12
 105 248 105 248 105 291 c 0,13,14
 105 365 105 365 161 419 c 1,15,-1
 122 465 l 1,16,-1
 144 483 l 1,17,-1
 182 437 l 1,18,19
 232 476 232 476 293 476 c 128,-1,20
 354 476 354 476 392 439 c 1,21,-1
 446 484 l 1,22,-1
 464 462 l 1,23,-1
 410 417 l 1,24,25
 436 381 436 381 436 336 c 0,0,1
136 290 m 0,26,27
 136 248 136 248 164 211 c 0,28,29
 193 174 193 174 250 174 c 128,-1,30
 307 174 307 174 351 214 c 0,31,32
 406 265 406 265 406 336 c 0,33,34
 406 376 406 376 377 411 c 128,-1,35
 348 446 348 446 291 446 c 256,36,37
 234 446 234 446 190 407 c 0,38,39
 136 359 136 359 136 290 c 0,26,27
EndSplineSet
EndChar

StartChar: yen
Encoding: 165 165 102
Width: 589
GlyphClass: 2
Flags: W
LayerCount: 2
Fore
SplineSet
106 183 m 1,0,-1
 110 212 l 1,1,-1
 296 212 l 1,2,-1
 308 292 l 1,3,-1
 123 292 l 1,4,-1
 128 321 l 1,5,-1
 310 321 l 1,6,-1
 141 732 l 1,7,-1
 186 732 l 1,8,-1
 338 364 l 1,9,-1
 631 732 l 1,10,-1
 681 732 l 1,11,-1
 355 321 l 1,12,-1
 555 321 l 1,13,-1
 550 292 l 1,14,-1
 349 292 l 1,15,-1
 337 212 l 1,16,-1
 537 212 l 1,17,-1
 533 183 l 1,18,-1
 333 183 l 1,19,-1
 306 0 l 1,20,-1
 265 0 l 1,21,-1
 292 183 l 1,22,-1
 106 183 l 1,0,-1
EndSplineSet
Substitution2: "'smcp' Lowercase to Small Capitals lookup 1 subtable" yen.smcp
EndChar

StartChar: brokenbar
Encoding: 166 166 103
Width: 226
GlyphClass: 2
Flags: W
LayerCount: 2
Fore
SplineSet
74 -72 m 1,0,-1
 126 256 l 1,1,-1
 167 256 l 1,2,-1
 115 -72 l 1,3,-1
 74 -72 l 1,0,-1
153 429 m 1,4,-1
 207 770 l 1,5,-1
 248 770 l 1,6,-1
 194 429 l 1,7,-1
 153 429 l 1,4,-1
EndSplineSet
EndChar

StartChar: section
Encoding: 167 167 104
Width: 556
GlyphClass: 2
Flags: W
LayerCount: 2
Fore
SplineSet
471 265 m 1,0,1
 508 255 508 255 508 219 c 0,2,3
 508 210 508 210 506 183 c 1,4,-1
 494 110 l 2,5,6
 481 32 481 32 437 10 c 0,7,8
 400 -8 400 -8 337 -8 c 0,9,10
 286 -8 286 -8 198.5 -2.5 c 128,-1,11
 111 3 111 3 93 5 c 1,12,-1
 97 33 l 1,13,-1
 344 33 l 2,14,15
 392 33 392 33 419 49.5 c 128,-1,16
 446 66 446 66 453 110 c 2,17,-1
 465 183 l 2,18,19
 466 195 466 195 466 210.5 c 128,-1,20
 466 226 466 226 454 236 c 128,-1,21
 442 246 442 246 384 246 c 2,22,-1
 226 246 l 2,23,24
 164 246 164 246 134 265 c 0,25,26
 109 281 109 281 109 324 c 0,27,28
 109 339 109 339 112 356 c 2,29,-1
 121 420 l 2,30,31
 127 459 127 459 142 480.5 c 128,-1,32
 157 502 157 502 187 508 c 1,33,34
 147 522 147 522 147 569 c 0,35,36
 147 579 147 579 149 590 c 2,37,-1
 160 661 l 2,38,39
 179 784 179 784 309 784 c 0,40,41
 361 784 361 784 452 778.5 c 128,-1,42
 543 773 543 773 561 771 c 1,43,-1
 557 743 l 1,44,-1
 303 743 l 2,45,46
 214 743 214 743 201 660 c 2,47,-1
 190 590 l 2,48,49
 188 581 188 581 188 573 c 0,50,51
 188 549 188 549 205.5 537.5 c 128,-1,52
 223 526 223 526 269 526 c 2,53,-1
 428 526 l 2,54,55
 502 526 502 526 527 498 c 0,56,57
 545 478 545 478 545 442 c 0,58,59
 545 428 545 428 543 411 c 2,60,-1
 533 349 l 2,61,62
 524 291 524 291 499 275 c 0,63,64
 487 267 487 267 471 265 c 1,0,1
152 353 m 2,65,66
 150 340 150 340 150 330 c 128,-1,67
 150 320 150 320 151.5 312 c 128,-1,68
 153 304 153 304 159 299.5 c 128,-1,69
 165 295 165 295 169.5 292.5 c 128,-1,70
 174 290 174 290 185 289 c 0,71,72
 202 288 202 288 231 288 c 2,73,-1
 390 288 l 2,74,75
 433 288 433 288 452.5 293.5 c 128,-1,76
 472 299 472 299 479.5 311.5 c 128,-1,77
 487 324 487 324 492 354 c 2,78,-1
 502 416 l 2,79,80
 504 430 504 430 504 441 c 0,81,82
 504 472 504 472 479 480 c 0,83,84
 461 486 461 486 422 486 c 2,85,-1
 262 486 l 2,86,87
 234 486 234 486 220.5 484.5 c 128,-1,88
 207 483 207 483 193 476.5 c 128,-1,89
 179 470 179 470 172.5 455 c 128,-1,90
 166 440 166 440 162 414 c 2,91,-1
 152 353 l 2,65,66
EndSplineSet
EndChar

StartChar: dieresis
Encoding: 168 168 105
Width: 447
GlyphClass: 2
Flags: W
LayerCount: 2
Fore
SplineSet
153 602 m 128,-1,1
 163 610 163 610 173 610 c 128,-1,2
 183 610 183 610 189 607 c 0,3,4
 208 595 208 595 195 571 c 0,5,6
 185 553 185 553 169.5 553 c 128,-1,7
 154 553 154 553 147.5 560.5 c 128,-1,8
 141 568 141 568 141 573.5 c 128,-1,9
 141 579 141 579 142 586.5 c 128,-1,0
 143 594 143 594 153 602 c 128,-1,1
408 602 m 128,-1,11
 418 610 418 610 428 610 c 0,12,13
 447 610 447 610 453 596 c 0,14,15
 454 592 454 592 454 588.5 c 128,-1,16
 454 585 454 585 453.5 580.5 c 128,-1,17
 453 576 453 576 450 570.5 c 128,-1,18
 447 565 447 565 442 561 c 0,19,20
 433 553 433 553 421 553 c 128,-1,21
 409 553 409 553 402.5 560.5 c 128,-1,22
 396 568 396 568 396 573.5 c 128,-1,23
 396 579 396 579 397 586.5 c 128,-1,10
 398 594 398 594 408 602 c 128,-1,11
EndSplineSet
Substitution2: "'smcp' Lowercase to Small Capitals lookup 1 subtable" dieresis.smcp
EndChar

StartChar: copyright
Encoding: 169 169 106
Width: 845
GlyphClass: 2
Flags: W
LayerCount: 2
Fore
SplineSet
404 732 m 2,0,-1
 662 732 l 2,1,2
 774 732 774 732 812 626 c 1,3,4
 833 571 833 571 833 514 c 0,5,6
 833 269 833 269 731 111 c 0,7,8
 698 59 698 59 651 29.5 c 128,-1,9
 604 0 604 0 550 0 c 2,10,-1
 292 0 l 2,11,12
 239 0 239 0 200 27 c 128,-1,13
 161 54 161 54 142 94 c 0,14,15
 104 172 104 172 104 279 c 0,16,17
 104 370 104 370 133 473 c 0,18,19
 184 654 184 654 303 710 c 0,20,21
 349 732 349 732 404 732 c 2,0,-1
142 368 m 1,22,23
 134 311 134 311 134 267 c 128,-1,24
 134 223 134 223 144 181.5 c 128,-1,25
 154 140 154 140 171.5 106 c 128,-1,26
 189 72 189 72 221 51.5 c 128,-1,27
 253 31 253 31 294 31 c 2,28,-1
 554 31 l 2,29,30
 663 31 663 31 736 183 c 0,31,32
 773 261 773 261 787.5 349.5 c 128,-1,33
 802 438 802 438 802 493 c 128,-1,34
 802 548 802 548 790.5 597 c 128,-1,35
 779 646 779 646 746 673.5 c 128,-1,36
 713 701 713 701 662 701 c 2,37,-1
 400 701 l 2,38,39
 316 701 316 701 249 633 c 0,40,41
 173 557 173 557 142 368 c 1,22,23
465 583 m 0,42,43
 535 583 535 583 639 564 c 1,44,-1
 636 540 l 1,45,46
 553 552 553 552 460 552 c 0,47,48
 347 552 347 552 317 362 c 0,49,50
 310 324 310 324 310 307 c 128,-1,51
 310 290 310 290 310.5 271 c 128,-1,52
 311 252 311 252 320 228 c 0,53,54
 338 178 338 178 400 178 c 0,55,56
 508 178 508 178 587 194 c 1,57,-1
 583 170 l 1,58,59
 496 147 496 147 396 147 c 0,60,61
 279 147 279 147 279 290 c 0,62,63
 279 324 279 324 286 367 c 0,64,65
 321 583 321 583 465 583 c 0,42,43
EndSplineSet
EndChar

StartChar: ordfeminine
Encoding: 170 170 107
Width: 348
GlyphClass: 3
Flags: W
LayerCount: 2
Fore
SplineSet
72 283 m 1,0,-1
 76 311 l 1,1,-1
 364 311 l 1,2,-1
 360 283 l 1,3,-1
 72 283 l 1,0,-1
235.5 728 m 128,-1,5
 248 731 248 731 259.5 732 c 128,-1,6
 271 733 271 733 285.5 733 c 128,-1,7
 300 733 300 733 325 729 c 128,-1,8
 350 725 350 725 376.5 713 c 128,-1,9
 403 701 403 701 419 684 c 1,10,-1
 373 381 l 1,11,-1
 354 381 l 1,12,-1
 352 437 l 1,13,14
 331 412 331 412 294 394.5 c 128,-1,15
 257 377 257 377 227 377 c 128,-1,16
 197 377 197 377 176 386 c 0,17,18
 105 415 105 415 105 513 c 0,19,20
 105 573 105 573 120 613 c 128,-1,21
 135 653 135 653 148.5 670.5 c 128,-1,22
 162 688 162 688 176 700 c 128,-1,23
 190 712 190 712 206.5 718.5 c 128,-1,4
 223 725 223 725 235.5 728 c 128,-1,5
140 555 m 0,24,25
 137 534 137 534 137 513.5 c 128,-1,26
 137 493 137 493 144 467 c 128,-1,27
 151 441 151 441 172.5 425 c 128,-1,28
 194 409 194 409 225 409 c 0,29,30
 281 409 281 409 356 465 c 1,31,-1
 387 672 l 1,32,33
 369 685 369 685 338 693 c 128,-1,34
 307 701 307 701 290.5 701 c 128,-1,35
 274 701 274 701 267 700 c 0,36,37
 162 693 162 693 140 555 c 0,24,25
EndSplineSet
Substitution2: "'smcp' Lowercase to Small Capitals lookup 1 subtable" ordfeminine.smcp
Ligature2: "'ordn' Ordinals lookup 0 subtable" a
EndChar

StartChar: guillemotleft
Encoding: 171 171 108
Width: 559
GlyphClass: 2
Flags: W
LayerCount: 2
Fore
SplineSet
106 354 m 1,0,-1
 343 558 l 1,1,-1
 369 528 l 1,2,-1
 163 350 l 1,3,-1
 313 172 l 1,4,-1
 283 145 l 1,5,-1
 106 354 l 1,0,-1
293 354 m 1,6,-1
 530 558 l 1,7,-1
 556 528 l 1,8,-1
 348 351 l 1,9,-1
 501 171 l 1,10,-1
 470 145 l 1,11,-1
 293 354 l 1,6,-1
EndSplineSet
EndChar

StartChar: logicalnot
Encoding: 172 172 109
Width: 532
GlyphClass: 2
Flags: W
LayerCount: 2
Fore
SplineSet
504 314 m 1,0,-1
 480 159 l 1,1,-1
 439 159 l 1,2,-1
 456 272 l 1,3,-1
 90 272 l 1,4,-1
 97 314 l 1,5,-1
 504 314 l 1,0,-1
EndSplineSet
EndChar

StartChar: uni00AD
Encoding: 173 173 110
Width: 358
GlyphClass: 2
Flags: W
LayerCount: 2
Fore
SplineSet
60 270 m 1,0,-1
 67 310 l 1,1,-1
 381 310 l 1,2,-1
 374 270 l 1,3,-1
 60 270 l 1,0,-1
EndSplineSet
Substitution2: "'case' Case-Sensitive Forms lookup 18 subtable" uni00AD.alt
Substitution2: "'c2sc' Capitals to Small Capitals in Latin lookup 2 subtable" uni00AD.smcp
Substitution2: "'smcp' Lowercase to Small Capitals lookup 1 subtable" uni00AD.smcp
EndChar

StartChar: registered
Encoding: 174 174 111
Width: 845
GlyphClass: 2
Flags: W
LayerCount: 2
Fore
SplineSet
404 732 m 2,0,-1
 662 732 l 2,1,2
 774 732 774 732 812 626 c 1,3,4
 833 571 833 571 833 514 c 0,5,6
 833 269 833 269 731 111 c 0,7,8
 698 59 698 59 651 29.5 c 128,-1,9
 604 0 604 0 550 0 c 2,10,-1
 292 0 l 2,11,12
 239 0 239 0 200 26.5 c 128,-1,13
 161 53 161 53 142 94 c 0,14,15
 104 172 104 172 104 279 c 0,16,17
 104 369 104 369 133 472 c 0,18,19
 184 653 184 653 303 710 c 0,20,21
 349 732 349 732 404 732 c 2,0,-1
185 530 m 0,22,23
 134 406 134 406 134 264 c 0,24,25
 134 154 134 154 184 85 c 0,26,27
 223 31 223 31 292 31 c 2,28,-1
 554 31 l 2,29,30
 633 31 633 31 699 119.5 c 128,-1,31
 765 208 765 208 791 368 c 0,32,33
 802 438 802 438 802 493.5 c 128,-1,34
 802 549 802 549 790.5 597.5 c 128,-1,35
 779 646 779 646 746.5 673.5 c 128,-1,36
 714 701 714 701 662 701 c 2,37,-1
 400 701 l 2,38,39
 316 701 316 701 249 633 c 0,40,41
 213 597 213 597 185 530 c 0,22,23
530 580 m 2,42,43
 640 580 640 580 640 481 c 0,44,45
 640 435 640 435 627.5 407 c 128,-1,46
 615 379 615 379 606 368 c 128,-1,47
 597 357 597 357 581.5 350 c 128,-1,48
 566 343 566 343 558 341.5 c 128,-1,49
 550 340 550 340 533 339 c 128,-1,50
 516 338 516 338 513 338 c 1,51,-1
 589 153 l 1,52,-1
 554 153 l 1,53,-1
 479 338 l 1,54,-1
 347 345 l 1,55,-1
 317 153 l 1,56,-1
 286 153 l 1,57,-1
 353 580 l 1,58,-1
 530 580 l 2,42,43
502 366 m 2,59,60
 552 366 552 366 575 383 c 128,-1,61
 598 400 598 400 606 452 c 0,62,63
 608 469 608 469 608 480.5 c 128,-1,64
 608 492 608 492 606.5 505.5 c 128,-1,65
 605 519 605 519 593 530 c 0,66,67
 572 549 572 549 532 549 c 2,68,-1
 380 549 l 1,69,-1
 350 366 l 1,70,-1
 502 366 l 2,59,60
EndSplineSet
EndChar

StartChar: macron
Encoding: 175 175 112
Width: 392
GlyphClass: 2
Flags: W
LayerCount: 2
Fore
SplineSet
134 531 m 1,0,-1
 139 562 l 1,1,-1
 404 562 l 1,2,-1
 400 531 l 1,3,-1
 134 531 l 1,0,-1
EndSplineSet
Substitution2: "'smcp' Lowercase to Small Capitals lookup 1 subtable" macron.smcp
EndChar

StartChar: degree
Encoding: 176 176 113
Width: 336
GlyphClass: 2
Flags: W
LayerCount: 2
Fore
SplineSet
260 735 m 128,-1,1
 302 735 302 735 327 707 c 128,-1,2
 352 679 352 679 352 644 c 0,3,4
 352 594 352 594 318 562 c 128,-1,5
 284 530 284 530 242 530 c 128,-1,6
 200 530 200 530 174 558 c 128,-1,7
 148 586 148 586 148 621 c 0,8,9
 148 670 148 670 183 702.5 c 128,-1,0
 218 735 218 735 260 735 c 128,-1,1
173 622 m 0,10,11
 173 597 173 597 191.5 576.5 c 128,-1,12
 210 556 210 556 241.5 556 c 128,-1,13
 273 556 273 556 298 578 c 0,14,15
 327 604 327 604 327 642 c 256,16,17
 327 680 327 680 297 699 c 0,18,19
 280 709 280 709 259.5 709 c 128,-1,20
 239 709 239 709 220 699 c 0,21,22
 173 673 173 673 173 622 c 0,10,11
EndSplineSet
Substitution2: "'smcp' Lowercase to Small Capitals lookup 1 subtable" degree.smcp
EndChar

StartChar: plusminus
Encoding: 177 177 114
Width: 516
GlyphClass: 2
Flags: W
LayerCount: 2
Fore
SplineSet
69 120 m 1,0,-1
 76 161 l 1,1,-1
 472 161 l 1,2,-1
 465 120 l 1,3,-1
 69 120 l 1,0,-1
114 403 m 1,4,-1
 120 444 l 1,5,-1
 297 444 l 1,6,-1
 326 621 l 1,7,-1
 367 621 l 1,8,-1
 338 444 l 1,9,-1
 516 444 l 1,10,-1
 510 403 l 1,11,-1
 332 403 l 1,12,-1
 304 225 l 1,13,-1
 263 225 l 1,14,-1
 291 403 l 1,15,-1
 114 403 l 1,4,-1
EndSplineSet
EndChar

StartChar: twosuperior
Encoding: 178 178 115
Width: 392
GlyphClass: 2
Flags: W
LayerCount: 2
Fore
SplineSet
388 656 m 128,-1,1
 401 679 401 679 404 697 c 128,-1,2
 407 715 407 715 407 737.5 c 128,-1,3
 407 760 407 760 395 778 c 0,4,5
 377 805 377 805 318 805 c 2,6,-1
 143 805 l 1,7,8
 141 807 141 807 143.5 818 c 128,-1,9
 146 829 146 829 147 828 c 1,10,11
 228 838 228 838 331 838 c 0,12,13
 376 838 376 838 403.5 816 c 128,-1,14
 431 794 431 794 437 770 c 128,-1,15
 443 746 443 746 443 729.5 c 128,-1,16
 443 713 443 713 438.5 687.5 c 128,-1,17
 434 662 434 662 406 621 c 128,-1,18
 378 580 378 580 337 542 c 128,-1,19
 296 504 296 504 260 475.5 c 128,-1,20
 224 447 224 447 186.5 419.5 c 128,-1,21
 149 392 149 392 145 389 c 1,22,-1
 389 389 l 1,23,-1
 384 356 l 1,24,-1
 75 356 l 1,25,-1
 79 385 l 1,26,27
 84 388 84 388 113.5 409 c 128,-1,28
 143 430 143 430 160.5 442 c 128,-1,29
 178 454 178 454 210.5 479 c 128,-1,30
 243 504 243 504 264.5 522 c 128,-1,31
 286 540 286 540 313.5 566 c 128,-1,32
 341 592 341 592 358 612.5 c 128,-1,0
 375 633 375 633 388 656 c 128,-1,1
EndSplineSet
EndChar

StartChar: threesuperior
Encoding: 179 179 116
Width: 418
GlyphClass: 2
Flags: W
LayerCount: 2
Fore
SplineSet
413 741 m 0,0,1
 413 800 413 800 332 800 c 2,2,-1
 141 800 l 1,3,-1
 144 822 l 1,4,5
 190 833 190 833 326 833 c 0,6,7
 333 833 333 833 341 833 c 0,8,9
 400 833 400 833 423 804 c 128,-1,10
 446 775 446 775 446 740 c 0,11,12
 446 731 446 731 444 720 c 2,13,-1
 438 683 l 2,14,15
 433 647 433 647 405.5 622.5 c 128,-1,16
 378 598 378 598 354 594 c 1,17,18
 387 581 387 581 403 545 c 0,19,20
 410 530 410 530 410 518 c 128,-1,21
 410 506 410 506 409 499 c 2,22,-1
 405 470 l 2,23,24
 396 412 396 412 363 382 c 128,-1,25
 330 352 330 352 261 352 c 0,26,27
 260 352 260 352 260 352 c 2,28,29
 124 352 124 352 76 365 c 1,30,-1
 79 385 l 1,31,-1
 255 385 l 2,32,33
 308 385 308 385 336 405 c 128,-1,34
 364 425 364 425 372 475 c 2,35,-1
 376 498 l 2,36,37
 377 506 377 506 377 513 c 0,38,39
 377 542 377 542 354.5 561 c 128,-1,40
 332 580 332 580 293 581 c 2,41,-1
 151 585 l 1,42,-1
 155 608 l 1,43,-1
 294 613 l 2,44,45
 338 614 338 614 370.5 635 c 128,-1,46
 403 656 403 656 408 689 c 1,47,-1
 411 721 l 2,48,49
 413 732 413 732 413 741 c 0,0,1
EndSplineSet
EndChar

StartChar: acute
Encoding: 180 180 117
Width: 212
GlyphClass: 2
Flags: W
LayerCount: 2
Fore
SplineSet
104 531 m 1,0,-1
 241 664 l 1,1,-1
 291 664 l 1,2,-1
 137 531 l 1,3,-1
 104 531 l 1,0,-1
EndSplineSet
Substitution2: "'smcp' Lowercase to Small Capitals lookup 1 subtable" acute.smcp
EndChar

StartChar: uni00B5
Encoding: 181 181 118
Width: 586
GlyphClass: 2
Flags: W
LayerCount: 2
Fore
SplineSet
154 135 m 0,0,1
 154 96 154 96 175 69 c 0,2,3
 202 33 202 33 260 33 c 128,-1,4
 318 33 318 33 364 46.5 c 128,-1,5
 410 60 410 60 478 92 c 1,6,-1
 547 532 l 1,7,-1
 588 532 l 1,8,-1
 504 1 l 1,9,-1
 477 1 l 1,10,-1
 473 63 l 1,11,12
 347 -8 347 -8 252 -8 c 0,13,14
 173 -8 173 -8 139 51 c 1,15,-1
 88 -270 l 1,16,-1
 47 -270 l 1,17,-1
 174 532 l 1,18,-1
 215 532 l 1,19,-1
 156 162 l 2,20,21
 154 148 154 148 154 135 c 0,0,1
EndSplineSet
EndChar

StartChar: paragraph
Encoding: 182 182 119
Width: 566
GlyphClass: 2
Flags: W
LayerCount: 2
Fore
SplineSet
311 732 m 2,0,-1
 657 732 l 1,1,-1
 650 689 l 1,2,-1
 581 689 l 1,3,-1
 472 0 l 1,4,-1
 431 0 l 1,5,-1
 540 691 l 1,6,-1
 400 691 l 1,7,-1
 247 -270 l 1,8,-1
 206 -270 l 1,9,-1
 308 367 l 1,10,11
 287 356 287 356 255 356 c 0,12,13
 252 356 252 356 250 356 c 0,14,15
 176 356 176 356 142 400 c 0,16,17
 116 435 116 435 116 479 c 0,18,19
 116 491 116 491 118 504 c 2,20,-1
 133 597 l 2,21,22
 149 698 149 698 253 725 c 0,23,24
 281 732 281 732 311 732 c 2,0,-1
159 501 m 2,25,26
 158 490 158 490 158 478 c 128,-1,27
 158 466 158 466 163 449.5 c 128,-1,28
 168 433 168 433 179.5 422.5 c 128,-1,29
 191 412 191 412 207 406 c 0,30,31
 231 396 231 396 257 396 c 2,32,-1
 312 396 l 1,33,-1
 359 692 l 1,34,-1
 305 692 l 2,35,36
 248 692 248 692 214 664 c 128,-1,37
 180 636 180 636 173 591 c 2,38,-1
 159 501 l 2,25,26
EndSplineSet
EndChar

StartChar: periodcentered
Encoding: 183 183 120
Width: 277
GlyphClass: 2
Flags: W
LayerCount: 2
Fore
SplineSet
162 412 m 2,0,-1
 188 412 l 2,1,2
 204 412 204 412 202 396 c 2,3,-1
 197 369 l 2,4,5
 195 353 195 353 179 353 c 2,6,-1
 153 353 l 2,7,8
 146 353 146 353 142 357.5 c 128,-1,9
 138 362 138 362 139 369 c 2,10,-1
 144 396 l 2,11,12
 146 412 146 412 162 412 c 2,0,-1
EndSplineSet
Substitution2: "'smcp' Lowercase to Small Capitals lookup 1 subtable" periodcentered.smcp
EndChar

StartChar: cedilla
Encoding: 184 184 121
Width: 264
GlyphClass: 2
Flags: W
LayerCount: 2
Fore
SplineSet
60 -173 m 2,0,-1
 22 -173 l 1,1,-1
 25 -156 l 1,2,-1
 66 -147 l 1,3,4
 104 -140 104 -140 122 -118 c 128,-1,5
 140 -96 140 -96 149 -37 c 1,6,-1
 183 -37 l 1,7,8
 170 -114 170 -114 145 -143.5 c 128,-1,9
 120 -173 120 -173 60 -173 c 2,0,-1
EndSplineSet
EndChar

StartChar: onesuperior
Encoding: 185 185 122
Width: 276
GlyphClass: 2
Flags: W
LayerCount: 2
Fore
SplineSet
115 745 m 1,0,-1
 118 767 l 1,1,2
 174 767 174 767 240 810 c 0,3,4
 256 820 256 820 264 827 c 2,5,-1
 272 834 l 1,6,-1
 304 834 l 1,7,-1
 228 356 l 1,8,-1
 195 356 l 1,9,-1
 264 791 l 1,10,11
 244 775 244 775 204.5 760 c 128,-1,12
 165 745 165 745 115 745 c 1,0,-1
EndSplineSet
EndChar

StartChar: ordmasculine
Encoding: 186 186 123
Width: 374
GlyphClass: 3
Flags: W
LayerCount: 2
Fore
SplineSet
83 284 m 1,0,-1
 87 312 l 1,1,-1
 376 312 l 1,2,-1
 372 284 l 1,3,-1
 83 284 l 1,0,-1
298 737 m 0,4,5
 387 737 387 737 414 696 c 0,6,7
 430 671 430 671 430 630 c 128,-1,8
 430 589 430 589 424 551 c 128,-1,9
 418 513 418 513 412 489.5 c 128,-1,10
 406 466 406 466 396.5 445.5 c 128,-1,11
 387 425 387 425 374 412 c 128,-1,12
 361 399 361 399 342 390 c 0,13,14
 308 373 308 373 241 373 c 0,15,16
 152 373 152 373 125 414 c 0,17,18
 108 440 108 440 108 479 c 128,-1,19
 108 518 108 518 115 563.5 c 128,-1,20
 122 609 122 609 133.5 642 c 128,-1,21
 145 675 145 675 165.5 697.5 c 128,-1,22
 186 720 186 720 217 729 c 0,23,24
 248 737 248 737 298 737 c 0,4,5
163.5 632.5 m 128,-1,26
 153 602 153 602 146 557 c 128,-1,27
 139 512 139 512 139 491.5 c 128,-1,28
 139 471 139 471 142.5 456 c 128,-1,29
 146 441 146 441 153.5 431 c 128,-1,30
 161 421 161 421 174 415 c 0,31,32
 199 404 199 404 240.5 404 c 128,-1,33
 282 404 282 404 303 408.5 c 128,-1,34
 324 413 324 413 343 428 c 0,35,36
 377 455 377 455 392 550 c 0,37,38
 399 595 399 595 399 620 c 128,-1,39
 399 645 399 645 394.5 662.5 c 128,-1,40
 390 680 390 680 377 689 c 0,41,42
 351 706 351 706 303 706 c 128,-1,43
 255 706 255 706 233.5 701 c 128,-1,44
 212 696 212 696 193 679.5 c 128,-1,25
 174 663 174 663 163.5 632.5 c 128,-1,26
EndSplineSet
Substitution2: "'smcp' Lowercase to Small Capitals lookup 1 subtable" ordmasculine.smcp
Ligature2: "'ordn' Ordinals lookup 0 subtable" o
EndChar

StartChar: guillemotright
Encoding: 187 187 124
Width: 556
GlyphClass: 2
Flags: W
LayerCount: 2
Fore
SplineSet
81 176 m 1,0,-1
 292 357 l 1,1,-1
 144 531 l 1,2,-1
 174 558 l 1,3,-1
 348 352 l 1,4,-1
 107 145 l 1,5,-1
 81 176 l 1,0,-1
269 176 m 1,6,-1
 480 356 l 1,7,-1
 332 532 l 1,8,-1
 362 558 l 1,9,-1
 536 352 l 1,10,-1
 295 145 l 1,11,-1
 269 176 l 1,6,-1
EndSplineSet
EndChar

StartChar: onequarter
Encoding: 188 188 125
Width: 915
GlyphClass: 3
Flags: W
LayerCount: 2
Fore
SplineSet
115 645 m 1,0,-1
 118 667 l 1,1,2
 174 667 174 667 240 710 c 0,3,4
 256 720 256 720 264 727 c 2,5,-1
 272 734 l 1,6,-1
 304 734 l 1,7,-1
 228 256 l 1,8,-1
 195 256 l 1,9,-1
 264 691 l 1,10,11
 244 675 244 675 204.5 660 c 128,-1,12
 165 645 165 645 115 645 c 1,0,-1
197 0 m 1,13,-1
 732 770 l 1,14,-1
 766 770 l 1,15,-1
 231 0 l 1,16,-1
 197 0 l 1,13,-1
508 166 m 1,17,-1
 753 475 l 1,18,-1
 793 475 l 1,19,-1
 566 186 l 1,20,-1
 793 186 l 1,21,-1
 812 307 l 1,22,-1
 836 355 l 1,23,-1
 853 355 l 1,24,-1
 826 186 l 1,25,-1
 885 186 l 1,26,-1
 882 163 l 1,27,-1
 821 151 l 1,28,-1
 797 1 l 1,29,-1
 764 1 l 1,30,-1
 788 151 l 1,31,-1
 516 151 l 1,32,-1
 508 166 l 1,17,-1
EndSplineSet
Ligature2: "'frac' Diagonal Fractions lookup 7 subtable" one fraction four
Ligature2: "'frac' Diagonal Fractions lookup 7 subtable" one slash four
EndChar

StartChar: onehalf
Encoding: 189 189 126
Width: 960
GlyphClass: 3
Flags: W
LayerCount: 2
Fore
SplineSet
115 645 m 1,0,-1
 118 667 l 1,1,2
 174 667 174 667 240 710 c 0,3,4
 256 720 256 720 264 727 c 2,5,-1
 272 734 l 1,6,-1
 304 734 l 1,7,-1
 228 256 l 1,8,-1
 195 256 l 1,9,-1
 264 691 l 1,10,11
 244 675 244 675 204.5 660 c 128,-1,12
 165 645 165 645 115 645 c 1,0,-1
163 0 m 1,13,-1
 698 770 l 1,14,-1
 732 770 l 1,15,-1
 197 0 l 1,16,-1
 163 0 l 1,13,-1
887.5 301 m 128,-1,18
 901 324 901 324 904 342 c 128,-1,19
 907 360 907 360 907 382 c 128,-1,20
 907 404 907 404 894 423 c 0,21,22
 876 450 876 450 818 450 c 2,23,-1
 643 450 l 1,24,25
 641 452 641 452 643.5 462.5 c 128,-1,26
 646 473 646 473 646 473 c 1,27,28
 728 483 728 483 831 483 c 0,29,30
 876 483 876 483 903 461 c 128,-1,31
 930 439 930 439 936 415.5 c 128,-1,32
 942 392 942 392 942 376 c 0,33,34
 942 319 942 319 910 271.5 c 128,-1,35
 878 224 878 224 837 185.5 c 128,-1,36
 796 147 796 147 761 119 c 128,-1,37
 726 91 726 91 687.5 63.5 c 128,-1,38
 649 36 649 36 646 34 c 1,39,-1
 889 34 l 1,40,-1
 884 1 l 1,41,-1
 575 1 l 1,42,-1
 579 30 l 1,43,44
 584 33 584 33 613.5 53.5 c 128,-1,45
 643 74 643 74 660 86.5 c 128,-1,46
 677 99 677 99 710 124 c 128,-1,47
 743 149 743 149 764 167 c 128,-1,48
 785 185 785 185 812.5 210.5 c 128,-1,49
 840 236 840 236 857 257 c 128,-1,17
 874 278 874 278 887.5 301 c 128,-1,18
EndSplineSet
Ligature2: "'frac' Diagonal Fractions lookup 7 subtable" one fraction two
Ligature2: "'frac' Diagonal Fractions lookup 7 subtable" one slash two
EndChar

StartChar: threequarters
Encoding: 190 190 127
Width: 1027
GlyphClass: 3
Flags: W
LayerCount: 2
Fore
SplineSet
413 641 m 0,0,1
 413 700 413 700 332 700 c 2,2,-1
 141 700 l 1,3,-1
 144 722 l 1,4,5
 190 733 190 733 326 733 c 0,6,7
 333 733 333 733 341 733 c 0,8,9
 400 733 400 733 423 704 c 128,-1,10
 446 675 446 675 446 640 c 0,11,12
 446 631 446 631 444 620 c 2,13,-1
 438 583 l 2,14,15
 433 547 433 547 405.5 522.5 c 128,-1,16
 378 498 378 498 354 494 c 1,17,18
 376 485 376 485 393 462.5 c 128,-1,19
 410 440 410 440 410 414 c 0,20,21
 410 407 410 407 409 399 c 2,22,-1
 405 370 l 2,23,24
 396 312 396 312 363 282 c 128,-1,25
 330 252 330 252 261 252 c 0,26,27
 260 252 260 252 260 252 c 2,28,29
 124 252 124 252 76 265 c 1,30,-1
 79 285 l 1,31,-1
 255 285 l 2,32,33
 308 285 308 285 336 305 c 128,-1,34
 364 325 364 325 372 375 c 2,35,-1
 376 398 l 2,36,37
 377 405 377 405 377 417.5 c 128,-1,38
 377 430 377 430 367 447 c 0,39,40
 347 480 347 480 293 481 c 2,41,-1
 151 485 l 1,42,-1
 155 508 l 1,43,-1
 294 513 l 2,44,45
 338 514 338 514 370.5 535 c 128,-1,46
 403 556 403 556 408 589 c 1,47,-1
 411 621 l 2,48,49
 413 632 413 632 413 641 c 0,0,1
300 0 m 1,50,-1
 836 770 l 1,51,-1
 870 770 l 1,52,-1
 334 0 l 1,53,-1
 300 0 l 1,50,-1
592 166 m 1,54,-1
 838 475 l 1,55,-1
 878 475 l 1,56,-1
 650 186 l 1,57,-1
 878 186 l 1,58,-1
 897 307 l 1,59,-1
 921 355 l 1,60,-1
 938 355 l 1,61,-1
 911 186 l 1,62,-1
 970 186 l 1,63,-1
 967 163 l 1,64,-1
 906 151 l 1,65,-1
 882 1 l 1,66,-1
 849 1 l 1,67,-1
 873 151 l 1,68,-1
 601 151 l 1,69,-1
 592 166 l 1,54,-1
EndSplineSet
Ligature2: "'frac' Diagonal Fractions lookup 7 subtable" three fraction four
Ligature2: "'frac' Diagonal Fractions lookup 7 subtable" three slash four
EndChar

StartChar: questiondown
Encoding: 191 191 128
Width: 539
GlyphClass: 2
Flags: W
LayerCount: 2
Fore
SplineSet
326 174 m 1,0,-1
 342 275 l 1,1,-1
 385 275 l 1,2,-1
 364 140 l 1,3,4
 324 140 324 140 294.5 140 c 128,-1,5
 265 140 265 140 246 140 c 0,6,7
 103 139 103 139 84 17 c 2,8,-1
 68 -84 l 2,9,10
 64 -107 64 -107 64 -126 c 0,11,12
 64 -174 64 -174 87 -197 c 0,13,14
 119 -229 119 -229 207 -229 c 2,15,-1
 465 -229 l 1,16,-1
 461 -255 l 1,17,18
 345 -269 345 -269 231 -269 c 0,19,20
 214 -269 214 -269 204 -269 c 128,-1,21
 194 -269 194 -269 191 -269 c 0,22,23
 23 -269 23 -269 23 -129 c 0,24,25
 23 -107 23 -107 27 -82 c 2,26,-1
 43 19 l 2,27,28
 59 118 59 118 128 154 c 0,29,30
 176 178 176 178 254 178 c 0,31,32
 287 178 287 178 326 174 c 1,0,-1
383 470 m 2,33,-1
 409 470 l 2,34,35
 416 470 416 470 420 465.5 c 128,-1,36
 424 461 424 461 423 454 c 2,37,-1
 414 394 l 2,38,39
 412 377 412 377 395 377 c 2,40,-1
 369 377 l 2,41,42
 354 377 354 377 356 394 c 2,43,-1
 365 454 l 2,44,45
 367 470 367 470 383 470 c 2,33,-1
EndSplineSet
Substitution2: "'case' Case-Sensitive Forms lookup 18 subtable" questiondown.alt
Substitution2: "'smcp' Lowercase to Small Capitals lookup 1 subtable" questiondown.smcp
EndChar

StartChar: Agrave
Encoding: 192 192 129
Width: 648
GlyphClass: 2
Flags: W
LayerCount: 2
Fore
SplineSet
335 930 m 1,0,-1
 382 930 l 1,1,-1
 484 797 l 1,2,-1
 451 797 l 1,3,-1
 335 930 l 1,0,-1
45 0 m 1,4,-1
 433 732 l 1,5,-1
 481 732 l 1,6,-1
 625 0 l 1,7,-1
 584 0 l 1,8,-1
 537 236 l 1,9,-1
 216 236 l 1,10,-1
 91 0 l 1,11,-1
 45 0 l 1,4,-1
238 277 m 1,12,-1
 529 277 l 1,13,-1
 451 681 l 1,14,-1
 238 277 l 1,12,-1
EndSplineSet
Substitution2: "'c2sc' Capitals to Small Capitals in Latin lookup 2 subtable" agrave.smcp
EndChar

StartChar: Aacute
Encoding: 193 193 130
Width: 648
GlyphClass: 2
Flags: W
LayerCount: 2
Fore
SplineSet
451 797 m 1,0,-1
 588 930 l 1,1,-1
 638 930 l 1,2,-1
 484 797 l 1,3,-1
 451 797 l 1,0,-1
45 0 m 1,4,-1
 433 732 l 1,5,-1
 481 732 l 1,6,-1
 625 0 l 1,7,-1
 584 0 l 1,8,-1
 537 236 l 1,9,-1
 216 236 l 1,10,-1
 91 0 l 1,11,-1
 45 0 l 1,4,-1
238 277 m 1,12,-1
 529 277 l 1,13,-1
 451 681 l 1,14,-1
 238 277 l 1,12,-1
EndSplineSet
Substitution2: "'c2sc' Capitals to Small Capitals in Latin lookup 2 subtable" aacute.smcp
EndChar

StartChar: Acircumflex
Encoding: 194 194 131
Width: 648
GlyphClass: 2
Flags: W
LayerCount: 2
Fore
SplineSet
328 797 m 1,0,-1
 476 927 l 1,1,-1
 514 927 l 1,2,-1
 607 797 l 1,3,-1
 574 797 l 1,4,-1
 492 901 l 1,5,-1
 367 797 l 1,6,-1
 328 797 l 1,0,-1
45 0 m 1,7,-1
 433 732 l 1,8,-1
 481 732 l 1,9,-1
 625 0 l 1,10,-1
 584 0 l 1,11,-1
 537 236 l 1,12,-1
 216 236 l 1,13,-1
 91 0 l 1,14,-1
 45 0 l 1,7,-1
238 277 m 1,15,-1
 529 277 l 1,16,-1
 451 681 l 1,17,-1
 238 277 l 1,15,-1
EndSplineSet
Substitution2: "'c2sc' Capitals to Small Capitals in Latin lookup 2 subtable" acircumflex.smcp
EndChar

StartChar: Atilde
Encoding: 195 195 132
Width: 648
GlyphClass: 2
Flags: W
LayerCount: 2
Fore
SplineSet
534 832 m 0,0,1
 574 832 574 832 638 878 c 1,2,-1
 647 859 l 1,3,4
 644 857 644 857 632.5 848 c 128,-1,5
 621 839 621 839 617 836.5 c 128,-1,6
 613 834 613 834 603 826.5 c 128,-1,7
 593 819 593 819 588 816.5 c 128,-1,8
 583 814 583 814 574 809 c 128,-1,9
 565 804 565 804 559 802 c 0,10,11
 541 797 541 797 524.5 797 c 128,-1,12
 508 797 508 797 487.5 812.5 c 128,-1,13
 467 828 467 828 449 842.5 c 128,-1,14
 431 857 431 857 418.5 857 c 128,-1,15
 406 857 406 857 395.5 855 c 128,-1,16
 385 853 385 853 373 847.5 c 128,-1,17
 361 842 361 842 354 838 c 128,-1,18
 347 834 347 834 332 825 c 128,-1,19
 317 816 317 816 311 812 c 1,20,-1
 304 831 l 1,21,22
 353 869 353 869 379 880 c 128,-1,23
 405 891 405 891 425.5 891 c 128,-1,24
 446 891 446 891 483 861.5 c 128,-1,25
 520 832 520 832 534 832 c 0,0,1
45 0 m 1,26,-1
 433 732 l 1,27,-1
 481 732 l 1,28,-1
 625 0 l 1,29,-1
 584 0 l 1,30,-1
 537 236 l 1,31,-1
 216 236 l 1,32,-1
 91 0 l 1,33,-1
 45 0 l 1,26,-1
238 277 m 1,34,-1
 529 277 l 1,35,-1
 451 681 l 1,36,-1
 238 277 l 1,34,-1
EndSplineSet
Substitution2: "'c2sc' Capitals to Small Capitals in Latin lookup 2 subtable" atilde.smcp
EndChar

StartChar: Adieresis
Encoding: 196 196 133
Width: 648
GlyphClass: 2
Flags: W
LayerCount: 2
Fore
SplineSet
350 854 m 128,-1,1
 362 854 362 854 368.5 846 c 128,-1,2
 375 838 375 838 373 826 c 128,-1,3
 371 814 371 814 361.5 805.5 c 128,-1,4
 352 797 352 797 340 797 c 128,-1,5
 328 797 328 797 321 805.5 c 128,-1,6
 314 814 314 814 316 826 c 128,-1,7
 318 838 318 838 328 846 c 128,-1,0
 338 854 338 854 350 854 c 128,-1,1
605 854 m 128,-1,9
 617 854 617 854 623 847 c 128,-1,10
 629 840 629 840 629 834.5 c 128,-1,11
 629 829 629 829 627.5 821.5 c 128,-1,12
 626 814 626 814 616.5 805.5 c 128,-1,13
 607 797 607 797 595 797 c 128,-1,14
 583 797 583 797 576 805.5 c 128,-1,15
 569 814 569 814 571 826 c 128,-1,16
 573 838 573 838 583 846 c 128,-1,8
 593 854 593 854 605 854 c 128,-1,9
45 0 m 1,17,-1
 433 732 l 1,18,-1
 481 732 l 1,19,-1
 625 0 l 1,20,-1
 584 0 l 1,21,-1
 537 236 l 1,22,-1
 216 236 l 1,23,-1
 91 0 l 1,24,-1
 45 0 l 1,17,-1
238 277 m 1,25,-1
 529 277 l 1,26,-1
 451 681 l 1,27,-1
 238 277 l 1,25,-1
EndSplineSet
Substitution2: "'c2sc' Capitals to Small Capitals in Latin lookup 2 subtable" adieresis.smcp
EndChar

StartChar: Aring
Encoding: 197 197 134
Width: 648
GlyphClass: 2
Flags: W
LayerCount: 2
Fore
SplineSet
489 935 m 128,-1,1
 447 935 447 935 409.5 902 c 128,-1,2
 372 869 372 869 372 811 c 0,3,4
 372 798 372 798 380 781 c 0,5,6
 402 730 402 730 468 730 c 0,7,8
 503 730 503 730 540 763 c 128,-1,9
 577 796 577 796 577 848 c 0,10,11
 577 881 577 881 554 908 c 128,-1,0
 531 935 531 935 489 935 c 128,-1,1
398 821 m 0,12,13
 398 859 398 859 429 886 c 0,14,15
 454 909 454 909 485.5 909 c 128,-1,16
 517 909 517 909 534.5 888.5 c 128,-1,17
 552 868 552 868 552 844 c 0,18,19
 552 792 552 792 504 767 c 0,20,21
 485 756 485 756 459 756 c 128,-1,22
 433 756 433 756 415.5 776.5 c 128,-1,23
 398 797 398 797 398 821 c 0,12,13
45 0 m 1,24,-1
 433 732 l 1,25,-1
 481 732 l 1,26,-1
 625 0 l 1,27,-1
 584 0 l 1,28,-1
 537 236 l 1,29,-1
 216 236 l 1,30,-1
 91 0 l 1,31,-1
 45 0 l 1,24,-1
238 277 m 1,32,-1
 529 277 l 1,33,-1
 451 681 l 1,34,-1
 238 277 l 1,32,-1
EndSplineSet
Substitution2: "'c2sc' Capitals to Small Capitals in Latin lookup 2 subtable" aring.smcp
EndChar

StartChar: AE
Encoding: 198 198 135
Width: 904
GlyphClass: 2
Flags: W
LayerCount: 2
Fore
SplineSet
549.5 682.5 m 128,-1,1
 582 712 582 712 614.5 722 c 128,-1,2
 647 732 647 732 672 732 c 128,-1,3
 697 732 697 732 704 732 c 2,4,-1
 986 720 l 1,5,-1
 982 691 l 1,6,-1
 697 691 l 2,7,8
 653 691 653 691 641.5 684 c 128,-1,9
 630 677 630 677 625 674.5 c 128,-1,10
 620 672 620 672 616.5 665.5 c 128,-1,11
 613 659 613 659 610.5 655 c 128,-1,12
 608 651 608 651 606 642 c 128,-1,13
 604 633 604 633 603 628.5 c 128,-1,14
 602 624 602 624 600.5 612.5 c 128,-1,15
 599 601 599 601 598 596 c 2,16,-1
 564 382 l 1,17,-1
 892 376 l 1,18,-1
 887 346 l 1,19,-1
 557 340 l 1,20,-1
 522 122 l 2,21,22
 520 109 520 109 520 97.5 c 128,-1,23
 520 86 520 86 524 72 c 128,-1,24
 528 58 528 58 542 50 c 0,25,26
 565 37 565 37 604 37 c 2,27,-1
 878 37 l 1,28,-1
 874 9 l 1,29,-1
 603 -4 l 2,30,31
 598 -4 598 -4 585 -4 c 128,-1,32
 572 -4 572 -4 552 0 c 0,33,34
 479 16 479 16 479 91 c 0,35,36
 479 105 479 105 481 121 c 2,37,-1
 501 245 l 1,38,-1
 261 245 l 1,39,-1
 79 0 l 1,40,-1
 30 0 l 1,41,-1
 474 595 l 2,42,0
 517 653 517 653 549.5 682.5 c 128,-1,1
291 286 m 1,43,-1
 508 286 l 1,44,-1
 566 651 l 1,45,-1
 291 286 l 1,43,-1
EndSplineSet
EndChar

StartChar: Ccedilla
Encoding: 199 199 136
Width: 568
GlyphClass: 2
Flags: W
LayerCount: 2
Fore
SplineSet
338.5 731.5 m 128,-1,1
 374 740 374 740 438 740 c 128,-1,2
 502 740 502 740 638 714 c 1,3,-1
 634 685 l 1,4,5
 519 699 519 699 422 699 c 0,6,7
 375 699 375 699 346 692 c 128,-1,8
 317 685 317 685 286.5 664.5 c 128,-1,9
 256 644 256 644 233 608 c 0,10,11
 183 528 183 528 158 366 c 0,12,13
 147 298 147 298 147 244 c 0,14,15
 147 38 147 38 306 35 c 0,16,17
 310 35 310 35 345.5 35 c 128,-1,18
 381 35 381 35 533 46 c 1,19,-1
 529 16 l 1,20,21
 425 -6 425 -6 301 -6 c 0,22,23
 247 -6 247 -6 208 15 c 0,24,25
 105 68 105 68 105 246 c 0,26,27
 105 339 105 339 134 467 c 0,28,29
 155 560 155 560 179 602 c 128,-1,30
 203 644 203 644 225.5 668.5 c 128,-1,31
 248 693 248 693 275.5 708 c 128,-1,0
 303 723 303 723 338.5 731.5 c 128,-1,1
230 -172 m 2,32,-1
 192 -172 l 1,33,-1
 195 -155 l 1,34,-1
 235 -147 l 2,35,36
 273 -140 273 -140 291.5 -118 c 128,-1,37
 310 -96 310 -96 318 -36 c 1,38,-1
 352 -36 l 1,39,40
 340 -114 340 -114 315 -143 c 128,-1,41
 290 -172 290 -172 230 -172 c 2,32,-1
EndSplineSet
Substitution2: "'c2sc' Capitals to Small Capitals in Latin lookup 2 subtable" ccedilla.smcp
EndChar

StartChar: Egrave
Encoding: 200 200 137
Width: 563
GlyphClass: 2
Flags: W
LayerCount: 2
Fore
SplineSet
299 925 m 1,0,-1
 346 925 l 1,1,-1
 448 792 l 1,2,-1
 416 792 l 1,3,-1
 299 925 l 1,0,-1
313 732 m 0,4,5
 316 732 316 732 320 732 c 2,6,-1
 622 720 l 1,7,-1
 618 691 l 1,8,-1
 314 691 l 2,9,10
 229 691 229 691 215 602 c 2,11,-1
 180 384 l 1,12,-1
 528 377 l 1,13,-1
 523 348 l 1,14,-1
 174 341 l 1,15,-1
 139 123 l 2,16,17
 137 110 137 110 137 98 c 128,-1,18
 137 86 137 86 141 72.5 c 128,-1,19
 145 59 145 59 159 51 c 0,20,21
 182 38 182 38 221 38 c 2,22,-1
 515 38 l 1,23,-1
 510 9 l 1,24,-1
 214 -3 l 2,25,26
 210 -3 210 -3 197 -3 c 128,-1,27
 184 -3 184 -3 164 2 c 0,28,29
 95 19 95 19 95 94 c 0,30,31
 95 109 95 109 98 126 c 2,32,-1
 174 605 l 2,33,34
 185 674 185 674 223.5 703 c 128,-1,35
 262 732 262 732 313 732 c 0,4,5
EndSplineSet
Substitution2: "'c2sc' Capitals to Small Capitals in Latin lookup 2 subtable" egrave.smcp
EndChar

StartChar: Eacute
Encoding: 201 201 138
Width: 563
GlyphClass: 2
Flags: W
LayerCount: 2
Fore
SplineSet
405 792 m 1,0,-1
 542 925 l 1,1,-1
 591 925 l 1,2,-1
 437 792 l 1,3,-1
 405 792 l 1,0,-1
313 732 m 0,4,5
 316 732 316 732 320 732 c 2,6,-1
 622 720 l 1,7,-1
 618 691 l 1,8,-1
 314 691 l 2,9,10
 229 691 229 691 215 602 c 2,11,-1
 180 384 l 1,12,-1
 528 377 l 1,13,-1
 523 348 l 1,14,-1
 174 341 l 1,15,-1
 139 123 l 2,16,17
 137 110 137 110 137 98 c 128,-1,18
 137 86 137 86 141 72.5 c 128,-1,19
 145 59 145 59 159 51 c 0,20,21
 182 38 182 38 221 38 c 2,22,-1
 515 38 l 1,23,-1
 510 9 l 1,24,-1
 214 -3 l 2,25,26
 210 -3 210 -3 197 -3 c 128,-1,27
 184 -3 184 -3 164 2 c 0,28,29
 95 19 95 19 95 94 c 0,30,31
 95 109 95 109 98 126 c 2,32,-1
 174 605 l 2,33,34
 185 674 185 674 223.5 703 c 128,-1,35
 262 732 262 732 313 732 c 0,4,5
EndSplineSet
Substitution2: "'c2sc' Capitals to Small Capitals in Latin lookup 2 subtable" eacute.smcp
EndChar

StartChar: Ecircumflex
Encoding: 202 202 139
Width: 563
GlyphClass: 2
Flags: W
LayerCount: 2
Fore
SplineSet
291 792 m 1,0,-1
 439 922 l 1,1,-1
 477 922 l 1,2,-1
 570 792 l 1,3,-1
 535 792 l 1,4,-1
 455 895 l 1,5,-1
 331 792 l 1,6,-1
 291 792 l 1,0,-1
313 732 m 0,7,8
 316 732 316 732 320 732 c 2,9,-1
 622 720 l 1,10,-1
 618 691 l 1,11,-1
 314 691 l 2,12,13
 229 691 229 691 215 602 c 2,14,-1
 180 384 l 1,15,-1
 528 377 l 1,16,-1
 523 348 l 1,17,-1
 174 341 l 1,18,-1
 139 123 l 2,19,20
 137 110 137 110 137 98 c 128,-1,21
 137 86 137 86 141 72.5 c 128,-1,22
 145 59 145 59 159 51 c 0,23,24
 182 38 182 38 221 38 c 2,25,-1
 515 38 l 1,26,-1
 510 9 l 1,27,-1
 214 -3 l 2,28,29
 210 -3 210 -3 197 -3 c 128,-1,30
 184 -3 184 -3 164 2 c 0,31,32
 95 19 95 19 95 94 c 0,33,34
 95 109 95 109 98 126 c 2,35,-1
 174 605 l 2,36,37
 185 674 185 674 223.5 703 c 128,-1,38
 262 732 262 732 313 732 c 0,7,8
EndSplineSet
Substitution2: "'c2sc' Capitals to Small Capitals in Latin lookup 2 subtable" ecircumflex.smcp
EndChar

StartChar: Edieresis
Encoding: 203 203 140
Width: 563
GlyphClass: 2
Flags: W
LayerCount: 2
Fore
SplineSet
307 871 m 128,-1,1
 319 871 319 871 326 863 c 128,-1,2
 333 855 333 855 331 843 c 128,-1,3
 329 831 329 831 319.5 822.5 c 128,-1,4
 310 814 310 814 298 814 c 128,-1,5
 286 814 286 814 278.5 822.5 c 128,-1,6
 271 831 271 831 273 843 c 128,-1,7
 275 855 275 855 285 863 c 128,-1,0
 295 871 295 871 307 871 c 128,-1,1
562 871 m 128,-1,9
 574 871 574 871 581 863 c 128,-1,10
 588 855 588 855 586 843 c 128,-1,11
 584 831 584 831 574.5 822.5 c 128,-1,12
 565 814 565 814 553 814 c 128,-1,13
 541 814 541 814 533.5 822.5 c 128,-1,14
 526 831 526 831 528 843 c 128,-1,15
 530 855 530 855 540 863 c 128,-1,8
 550 871 550 871 562 871 c 128,-1,9
313 732 m 0,16,17
 316 732 316 732 320 732 c 2,18,-1
 622 720 l 1,19,-1
 618 691 l 1,20,-1
 314 691 l 2,21,22
 229 691 229 691 215 602 c 2,23,-1
 180 384 l 1,24,-1
 528 377 l 1,25,-1
 523 348 l 1,26,-1
 174 341 l 1,27,-1
 139 123 l 2,28,29
 137 110 137 110 137 98 c 128,-1,30
 137 86 137 86 141 72.5 c 128,-1,31
 145 59 145 59 159 51 c 0,32,33
 182 38 182 38 221 38 c 2,34,-1
 515 38 l 1,35,-1
 510 9 l 1,36,-1
 214 -3 l 2,37,38
 210 -3 210 -3 197 -3 c 128,-1,39
 184 -3 184 -3 164 2 c 0,40,41
 95 19 95 19 95 94 c 0,42,43
 95 109 95 109 98 126 c 2,44,-1
 174 605 l 2,45,46
 185 674 185 674 223.5 703 c 128,-1,47
 262 732 262 732 313 732 c 0,16,17
EndSplineSet
Substitution2: "'c2sc' Capitals to Small Capitals in Latin lookup 2 subtable" edieresis.smcp
EndChar

StartChar: Igrave
Encoding: 204 204 141
Width: 203
GlyphClass: 2
Flags: W
LayerCount: 2
Fore
SplineSet
105 930 m 1,0,-1
 151 930 l 1,1,-1
 253 797 l 1,2,-1
 221 797 l 1,3,-1
 105 930 l 1,0,-1
90 0 m 1,4,-1
 206 732 l 1,5,-1
 247 732 l 1,6,-1
 131 0 l 1,7,-1
 90 0 l 1,4,-1
EndSplineSet
Substitution2: "'c2sc' Capitals to Small Capitals in Latin lookup 2 subtable" igrave.smcp
EndChar

StartChar: Iacute
Encoding: 205 205 142
Width: 203
GlyphClass: 2
Flags: W
LayerCount: 2
Fore
SplineSet
221 797 m 1,0,-1
 358 930 l 1,1,-1
 407 930 l 1,2,-1
 253 797 l 1,3,-1
 221 797 l 1,0,-1
90 0 m 1,4,-1
 206 732 l 1,5,-1
 247 732 l 1,6,-1
 131 0 l 1,7,-1
 90 0 l 1,4,-1
EndSplineSet
Substitution2: "'c2sc' Capitals to Small Capitals in Latin lookup 2 subtable" iacute.smcp
EndChar

StartChar: Icircumflex
Encoding: 206 206 143
Width: 203
GlyphClass: 2
Flags: W
LayerCount: 2
Fore
SplineSet
98 797 m 1,0,-1
 245 927 l 1,1,-1
 283 927 l 1,2,-1
 376 797 l 1,3,-1
 343 797 l 1,4,-1
 262 901 l 1,5,-1
 137 797 l 1,6,-1
 98 797 l 1,0,-1
90 0 m 1,7,-1
 206 732 l 1,8,-1
 247 732 l 1,9,-1
 131 0 l 1,10,-1
 90 0 l 1,7,-1
EndSplineSet
Substitution2: "'c2sc' Capitals to Small Capitals in Latin lookup 2 subtable" icircumflex.smcp
EndChar

StartChar: Idieresis
Encoding: 207 207 144
Width: 203
GlyphClass: 2
Flags: W
LayerCount: 2
Fore
SplineSet
107.5 852 m 128,-1,1
 113 854 113 854 122 854 c 128,-1,2
 131 854 131 854 138 846 c 128,-1,3
 145 838 145 838 143 828 c 128,-1,4
 141 818 141 818 137 812 c 0,5,6
 126 797 126 797 112 797 c 128,-1,7
 98 797 98 797 91.5 804.5 c 128,-1,8
 85 812 85 812 85 818 c 128,-1,9
 85 824 85 824 85.5 828 c 128,-1,10
 86 832 86 832 89.5 837.5 c 128,-1,11
 93 843 93 843 97.5 846.5 c 128,-1,0
 102 850 102 850 107.5 852 c 128,-1,1
374 854 m 128,-1,13
 386 854 386 854 392 847 c 128,-1,14
 398 840 398 840 398 834.5 c 128,-1,15
 398 829 398 829 397.5 824.5 c 128,-1,16
 397 820 397 820 394 814.5 c 128,-1,17
 391 809 391 809 386 806 c 1,18,19
 377 797 377 797 365 797 c 128,-1,20
 353 797 353 797 345.5 805.5 c 128,-1,21
 338 814 338 814 340 826 c 128,-1,22
 342 838 342 838 352 846 c 128,-1,12
 362 854 362 854 374 854 c 128,-1,13
90 0 m 1,23,-1
 206 732 l 1,24,-1
 247 732 l 1,25,-1
 131 0 l 1,26,-1
 90 0 l 1,23,-1
EndSplineSet
Substitution2: "'c2sc' Capitals to Small Capitals in Latin lookup 2 subtable" idieresis.smcp
EndChar

StartChar: Eth
Encoding: 208 208 145
Width: 679
GlyphClass: 2
Flags: W
LayerCount: 2
Fore
SplineSet
454 732 m 0,0,1
 564 732 564 732 613 666 c 0,2,3
 661 601 661 601 666 517 c 0,4,5
 667 494 667 494 667 473 c 0,6,7
 667 344 667 344 618 217 c 0,8,9
 533 0 533 0 343 0 c 2,10,-1
 79 0 l 1,11,-1
 136 359 l 1,12,-1
 71 359 l 1,13,-1
 75 387 l 1,14,-1
 140 387 l 1,15,-1
 195 732 l 1,16,17
 195 732 195 732 454 732 c 0,0,1
347 42 m 2,18,19
 394 42 394 42 435 61.5 c 128,-1,20
 476 81 476 81 505 112.5 c 128,-1,21
 534 144 534 144 557 187 c 0,22,23
 599 264 599 264 612.5 346 c 128,-1,24
 626 428 626 428 626 479 c 0,25,26
 626 691 626 691 447 691 c 2,27,-1
 229 691 l 1,28,-1
 181 387 l 1,29,-1
 334 387 l 1,30,-1
 329 359 l 1,31,-1
 177 359 l 1,32,-1
 127 42 l 1,33,-1
 347 42 l 2,18,19
EndSplineSet
Substitution2: "'c2sc' Capitals to Small Capitals in Latin lookup 2 subtable" eth.smcp
EndChar

StartChar: Ntilde
Encoding: 209 209 146
Width: 648
GlyphClass: 2
Flags: W
LayerCount: 2
Fore
SplineSet
520 830 m 0,0,1
 560 830 560 830 624 877 c 1,2,-1
 633 858 l 1,3,4
 629 855 629 855 619.5 847.5 c 128,-1,5
 610 840 610 840 606 837 c 128,-1,6
 602 834 602 834 593.5 828 c 128,-1,7
 585 822 585 822 580.5 819 c 128,-1,8
 576 816 576 816 568 811.5 c 128,-1,9
 560 807 560 807 554.5 804.5 c 128,-1,10
 549 802 549 802 542 800 c 0,11,12
 505 787 505 787 474 811 c 0,13,14
 453 826 453 826 435 840.5 c 128,-1,15
 417 855 417 855 404.5 855 c 128,-1,16
 392 855 392 855 381.5 853 c 128,-1,17
 371 851 371 851 359 845.5 c 128,-1,18
 347 840 347 840 340 836 c 128,-1,19
 333 832 333 832 318 823 c 128,-1,20
 303 814 303 814 297 810 c 1,21,-1
 290 830 l 1,22,23
 339 867 339 867 364.5 878.5 c 128,-1,24
 390 890 390 890 411 889.5 c 128,-1,25
 432 889 432 889 469 859.5 c 128,-1,26
 506 830 506 830 520 830 c 0,0,1
80 0 m 1,27,-1
 196 732 l 1,28,-1
 237 732 l 1,29,-1
 550 75 l 1,30,-1
 654 732 l 1,31,-1
 695 732 l 1,32,-1
 579 0 l 1,33,-1
 540 0 l 1,34,-1
 226 657 l 1,35,-1
 121 0 l 1,36,-1
 80 0 l 1,27,-1
EndSplineSet
AlternateSubs2: "'salt' Stylistic Alternatives in Latin lookup 16 subtable" Ntilde.salt
Substitution2: "'c2sc' Capitals to Small Capitals in Latin lookup 2 subtable" ntilde.smcp
EndChar

StartChar: Ograve
Encoding: 210 210 147
Width: 678
GlyphClass: 2
Flags: W
LayerCount: 2
Fore
SplineSet
325 930 m 1,0,-1
 371 930 l 1,1,-1
 473 797 l 1,2,-1
 441 797 l 1,3,-1
 325 930 l 1,0,-1
449 737 m 0,4,5
 488 737 488 737 517 733.5 c 128,-1,6
 546 730 546 730 575 720.5 c 128,-1,7
 604 711 604 711 622 694 c 0,8,9
 665 653 665 653 674 580 c 0,10,11
 677 553 677 553 677 527 c 0,12,13
 677 380 677 380 638 235 c 0,14,15
 609 127 609 127 568 79 c 0,16,17
 524 27 524 27 468 11 c 0,18,19
 415 -4 415 -4 354 -4 c 128,-1,20
 293 -4 293 -4 264 -1 c 128,-1,21
 235 2 235 2 206 11 c 128,-1,22
 177 20 177 20 159 37 c 0,23,24
 115 76 115 76 106 147 c 0,25,26
 103 173 103 173 103 198 c 0,27,28
 103 330 103 330 139 480 c 0,29,30
 161 568 161 568 199 634 c 1,31,32
 227 680 227 680 281 710 c 0,33,34
 330 737 330 737 449 737 c 0,4,5
174 449 m 0,35,36
 143 305 143 305 143 200 c 0,37,38
 143 89 143 89 207 58 c 0,39,40
 251 37 251 37 339 37 c 0,41,42
 422 37 422 37 463 54 c 128,-1,43
 504 71 504 71 525 94 c 128,-1,44
 546 117 546 117 565 153 c 0,45,46
 600 220 600 220 622 361 c 0,47,48
 636 451 636 451 636 498.5 c 128,-1,49
 636 546 636 546 634 573.5 c 128,-1,50
 632 601 632 601 619 625.5 c 128,-1,51
 606 650 606 650 592 663.5 c 128,-1,52
 578 677 578 677 552 685 c 0,53,54
 512 696 512 696 465 696 c 128,-1,55
 418 696 418 696 402 695.5 c 128,-1,56
 386 695 386 695 364 692.5 c 128,-1,57
 342 690 342 690 328 685 c 128,-1,58
 314 680 314 680 296 671.5 c 128,-1,59
 278 663 278 663 266 650 c 128,-1,60
 254 637 254 637 239.5 619 c 128,-1,61
 225 601 225 601 215 576 c 0,62,63
 188 513 188 513 174 449 c 0,35,36
EndSplineSet
Substitution2: "'c2sc' Capitals to Small Capitals in Latin lookup 2 subtable" ograve.smcp
EndChar

StartChar: Oacute
Encoding: 211 211 148
Width: 678
GlyphClass: 2
Flags: W
LayerCount: 2
Fore
SplineSet
441 797 m 1,0,-1
 578 930 l 1,1,-1
 627 930 l 1,2,-1
 473 797 l 1,3,-1
 441 797 l 1,0,-1
449 737 m 0,4,5
 488 737 488 737 517 733.5 c 128,-1,6
 546 730 546 730 575 720.5 c 128,-1,7
 604 711 604 711 622 694 c 0,8,9
 665 653 665 653 674 580 c 0,10,11
 677 553 677 553 677 527 c 0,12,13
 677 380 677 380 638 235 c 0,14,15
 609 127 609 127 568 79 c 0,16,17
 524 27 524 27 468 11 c 0,18,19
 415 -4 415 -4 354 -4 c 128,-1,20
 293 -4 293 -4 264 -1 c 128,-1,21
 235 2 235 2 206 11 c 128,-1,22
 177 20 177 20 159 37 c 0,23,24
 115 76 115 76 106 147 c 0,25,26
 103 173 103 173 103 198 c 0,27,28
 103 330 103 330 139 480 c 0,29,30
 161 568 161 568 199 634 c 1,31,32
 227 680 227 680 281 710 c 0,33,34
 330 737 330 737 449 737 c 0,4,5
174 449 m 0,35,36
 143 305 143 305 143 200 c 0,37,38
 143 89 143 89 207 58 c 0,39,40
 251 37 251 37 339 37 c 0,41,42
 422 37 422 37 463 54 c 128,-1,43
 504 71 504 71 525 94 c 128,-1,44
 546 117 546 117 565 153 c 0,45,46
 600 220 600 220 622 361 c 0,47,48
 636 451 636 451 636 498.5 c 128,-1,49
 636 546 636 546 634 573.5 c 128,-1,50
 632 601 632 601 619 625.5 c 128,-1,51
 606 650 606 650 592 663.5 c 128,-1,52
 578 677 578 677 552 685 c 0,53,54
 512 696 512 696 465 696 c 128,-1,55
 418 696 418 696 402 695.5 c 128,-1,56
 386 695 386 695 364 692.5 c 128,-1,57
 342 690 342 690 328 685 c 128,-1,58
 314 680 314 680 296 671.5 c 128,-1,59
 278 663 278 663 266 650 c 128,-1,60
 254 637 254 637 239.5 619 c 128,-1,61
 225 601 225 601 215 576 c 0,62,63
 188 513 188 513 174 449 c 0,35,36
EndSplineSet
Substitution2: "'c2sc' Capitals to Small Capitals in Latin lookup 2 subtable" oacute.smcp
EndChar

StartChar: Ocircumflex
Encoding: 212 212 149
Width: 678
GlyphClass: 2
Flags: W
LayerCount: 2
Fore
SplineSet
318 797 m 1,0,-1
 466 927 l 1,1,-1
 504 927 l 1,2,-1
 596 797 l 1,3,-1
 563 797 l 1,4,-1
 482 901 l 1,5,-1
 357 797 l 1,6,-1
 318 797 l 1,0,-1
449 737 m 0,7,8
 488 737 488 737 517 733.5 c 128,-1,9
 546 730 546 730 575 720.5 c 128,-1,10
 604 711 604 711 622 694 c 0,11,12
 665 653 665 653 674 580 c 0,13,14
 677 553 677 553 677 527 c 0,15,16
 677 380 677 380 638 235 c 0,17,18
 609 127 609 127 568 79 c 0,19,20
 524 27 524 27 468 11 c 0,21,22
 415 -4 415 -4 354 -4 c 128,-1,23
 293 -4 293 -4 264 -1 c 128,-1,24
 235 2 235 2 206 11 c 128,-1,25
 177 20 177 20 159 37 c 0,26,27
 115 76 115 76 106 147 c 0,28,29
 103 173 103 173 103 198 c 0,30,31
 103 330 103 330 139 480 c 0,32,33
 161 568 161 568 199 634 c 1,34,35
 227 680 227 680 281 710 c 0,36,37
 330 737 330 737 449 737 c 0,7,8
174 449 m 0,38,39
 143 305 143 305 143 200 c 0,40,41
 143 89 143 89 207 58 c 0,42,43
 251 37 251 37 339 37 c 0,44,45
 422 37 422 37 463 54 c 128,-1,46
 504 71 504 71 525 94 c 128,-1,47
 546 117 546 117 565 153 c 0,48,49
 600 220 600 220 622 361 c 0,50,51
 636 451 636 451 636 498.5 c 128,-1,52
 636 546 636 546 634 573.5 c 128,-1,53
 632 601 632 601 619 625.5 c 128,-1,54
 606 650 606 650 592 663.5 c 128,-1,55
 578 677 578 677 552 685 c 0,56,57
 512 696 512 696 465 696 c 128,-1,58
 418 696 418 696 402 695.5 c 128,-1,59
 386 695 386 695 364 692.5 c 128,-1,60
 342 690 342 690 328 685 c 128,-1,61
 314 680 314 680 296 671.5 c 128,-1,62
 278 663 278 663 266 650 c 128,-1,63
 254 637 254 637 239.5 619 c 128,-1,64
 225 601 225 601 215 576 c 0,65,66
 188 513 188 513 174 449 c 0,38,39
EndSplineSet
Substitution2: "'c2sc' Capitals to Small Capitals in Latin lookup 2 subtable" ocircumflex.smcp
EndChar

StartChar: Otilde
Encoding: 213 213 150
Width: 678
GlyphClass: 2
Flags: W
LayerCount: 2
Fore
SplineSet
524 832 m 0,0,1
 563 832 563 832 628 878 c 1,2,-1
 636 859 l 1,3,4
 633 857 633 857 621.5 848 c 128,-1,5
 610 839 610 839 606.5 836.5 c 128,-1,6
 603 834 603 834 592.5 826.5 c 128,-1,7
 582 819 582 819 577 816.5 c 128,-1,8
 572 814 572 814 563 809 c 128,-1,9
 554 804 554 804 548 802 c 0,10,11
 530 797 530 797 514 797 c 128,-1,12
 498 797 498 797 477.5 812.5 c 128,-1,13
 457 828 457 828 439 842.5 c 128,-1,14
 421 857 421 857 408.5 857 c 128,-1,15
 396 857 396 857 385 855 c 128,-1,16
 374 853 374 853 362 847.5 c 128,-1,17
 350 842 350 842 343.5 838 c 128,-1,18
 337 834 337 834 322 825 c 128,-1,19
 307 816 307 816 301 812 c 1,20,-1
 293 831 l 1,21,22
 343 869 343 869 368.5 880 c 128,-1,23
 394 891 394 891 414.5 891 c 128,-1,24
 435 891 435 891 472 861.5 c 128,-1,25
 509 832 509 832 524 832 c 0,0,1
449 737 m 0,26,27
 488 737 488 737 517 733.5 c 128,-1,28
 546 730 546 730 575 720.5 c 128,-1,29
 604 711 604 711 622 694 c 0,30,31
 665 653 665 653 674 580 c 0,32,33
 677 553 677 553 677 527 c 0,34,35
 677 380 677 380 638 235 c 0,36,37
 609 127 609 127 568 79 c 0,38,39
 524 27 524 27 468 11 c 0,40,41
 415 -4 415 -4 354 -4 c 128,-1,42
 293 -4 293 -4 264 -1 c 128,-1,43
 235 2 235 2 206 11 c 128,-1,44
 177 20 177 20 159 37 c 0,45,46
 115 76 115 76 106 147 c 0,47,48
 103 173 103 173 103 198 c 0,49,50
 103 330 103 330 139 480 c 0,51,52
 161 568 161 568 199 634 c 1,53,54
 227 680 227 680 281 710 c 0,55,56
 330 737 330 737 449 737 c 0,26,27
174 449 m 0,57,58
 143 305 143 305 143 200 c 0,59,60
 143 89 143 89 207 58 c 0,61,62
 251 37 251 37 339 37 c 0,63,64
 422 37 422 37 463 54 c 128,-1,65
 504 71 504 71 525 94 c 128,-1,66
 546 117 546 117 565 153 c 0,67,68
 600 220 600 220 622 361 c 0,69,70
 636 451 636 451 636 498.5 c 128,-1,71
 636 546 636 546 634 573.5 c 128,-1,72
 632 601 632 601 619 625.5 c 128,-1,73
 606 650 606 650 592 663.5 c 128,-1,74
 578 677 578 677 552 685 c 0,75,76
 512 696 512 696 465 696 c 128,-1,77
 418 696 418 696 402 695.5 c 128,-1,78
 386 695 386 695 364 692.5 c 128,-1,79
 342 690 342 690 328 685 c 128,-1,80
 314 680 314 680 296 671.5 c 128,-1,81
 278 663 278 663 266 650 c 128,-1,82
 254 637 254 637 239.5 619 c 128,-1,83
 225 601 225 601 215 576 c 0,84,85
 188 513 188 513 174 449 c 0,57,58
EndSplineSet
Substitution2: "'c2sc' Capitals to Small Capitals in Latin lookup 2 subtable" otilde.smcp
EndChar

StartChar: Odieresis
Encoding: 214 214 151
Width: 678
GlyphClass: 2
Flags: W
LayerCount: 2
Fore
SplineSet
339 854 m 128,-1,1
 351 854 351 854 358 846 c 128,-1,2
 365 838 365 838 363 826 c 128,-1,3
 361 814 361 814 351.5 805.5 c 128,-1,4
 342 797 342 797 330 797 c 128,-1,5
 318 797 318 797 310.5 805.5 c 128,-1,6
 303 814 303 814 305 826 c 128,-1,7
 307 838 307 838 317 846 c 128,-1,0
 327 854 327 854 339 854 c 128,-1,1
594 854 m 128,-1,9
 606 854 606 854 613 846 c 128,-1,10
 620 838 620 838 618 826 c 128,-1,11
 616 814 616 814 606.5 805.5 c 128,-1,12
 597 797 597 797 585 797 c 128,-1,13
 573 797 573 797 565.5 805.5 c 128,-1,14
 558 814 558 814 560 826 c 128,-1,15
 562 838 562 838 572 846 c 128,-1,8
 582 854 582 854 594 854 c 128,-1,9
449 737 m 0,16,17
 488 737 488 737 517 733.5 c 128,-1,18
 546 730 546 730 575 720.5 c 128,-1,19
 604 711 604 711 622 694 c 0,20,21
 665 653 665 653 674 580 c 0,22,23
 677 553 677 553 677 527 c 0,24,25
 677 380 677 380 638 235 c 0,26,27
 609 127 609 127 568 79 c 0,28,29
 524 27 524 27 468 11 c 0,30,31
 415 -4 415 -4 354 -4 c 128,-1,32
 293 -4 293 -4 264 -1 c 128,-1,33
 235 2 235 2 206 11 c 128,-1,34
 177 20 177 20 159 37 c 0,35,36
 115 76 115 76 106 147 c 0,37,38
 103 173 103 173 103 198 c 0,39,40
 103 330 103 330 139 480 c 0,41,42
 161 568 161 568 199 634 c 1,43,44
 227 680 227 680 281 710 c 0,45,46
 330 737 330 737 449 737 c 0,16,17
174 449 m 0,47,48
 143 305 143 305 143 200 c 0,49,50
 143 89 143 89 207 58 c 0,51,52
 251 37 251 37 339 37 c 0,53,54
 422 37 422 37 463 54 c 128,-1,55
 504 71 504 71 525 94 c 128,-1,56
 546 117 546 117 565 153 c 0,57,58
 600 220 600 220 622 361 c 0,59,60
 636 451 636 451 636 498.5 c 128,-1,61
 636 546 636 546 634 573.5 c 128,-1,62
 632 601 632 601 619 625.5 c 128,-1,63
 606 650 606 650 592 663.5 c 128,-1,64
 578 677 578 677 552 685 c 0,65,66
 512 696 512 696 465 696 c 128,-1,67
 418 696 418 696 402 695.5 c 128,-1,68
 386 695 386 695 364 692.5 c 128,-1,69
 342 690 342 690 328 685 c 128,-1,70
 314 680 314 680 296 671.5 c 128,-1,71
 278 663 278 663 266 650 c 128,-1,72
 254 637 254 637 239.5 619 c 128,-1,73
 225 601 225 601 215 576 c 0,74,75
 188 513 188 513 174 449 c 0,47,48
EndSplineSet
Substitution2: "'c2sc' Capitals to Small Capitals in Latin lookup 2 subtable" odieresis.smcp
EndChar

StartChar: multiply
Encoding: 215 215 152
Width: 448
GlyphClass: 2
Flags: W
LayerCount: 2
Fore
SplineSet
93 231 m 1,0,-1
 238 356 l 1,1,-1
 133 481 l 1,2,-1
 164 508 l 1,3,-1
 269 383 l 1,4,-1
 418 511 l 1,5,-1
 442 482 l 1,6,-1
 294 353 l 1,7,-1
 400 227 l 1,8,-1
 368 201 l 1,9,-1
 263 327 l 1,10,-1
 118 201 l 1,11,-1
 93 231 l 1,0,-1
EndSplineSet
EndChar

StartChar: Oslash
Encoding: 216 216 153
Width: 678
GlyphClass: 2
Flags: W
LayerCount: 2
Fore
SplineSet
132 65 m 1,0,1
 102 112 102 112 102 193 c 128,-1,2
 102 274 102 274 114 350.5 c 128,-1,3
 126 427 126 427 138 477.5 c 128,-1,4
 150 528 150 528 165.5 566 c 128,-1,5
 181 604 181 604 197 632 c 128,-1,6
 213 660 213 660 235 678.5 c 128,-1,7
 257 697 257 697 277.5 709 c 128,-1,8
 298 721 298 721 327 727 c 0,9,10
 375 737 375 737 443 737 c 128,-1,11
 511 737 511 737 556.5 726.5 c 128,-1,12
 602 716 602 716 630 686 c 1,13,-1
 666 732 l 1,14,-1
 699 732 l 1,15,-1
 646 666 l 1,16,17
 677 616 677 616 677 532 c 128,-1,18
 677 448 677 448 665 372 c 128,-1,19
 653 296 653 296 641 248 c 128,-1,20
 629 200 629 200 614 163.5 c 128,-1,21
 599 127 599 127 583 100 c 128,-1,22
 567 73 567 73 545.5 55 c 128,-1,23
 524 37 524 37 502.5 25 c 128,-1,24
 481 13 481 13 452 7 c 0,25,26
 403 -4 403 -4 333.5 -4 c 128,-1,27
 264 -4 264 -4 220 6 c 128,-1,28
 176 16 176 16 148 45 c 1,29,-1
 112 0 l 1,30,-1
 80 0 l 1,31,-1
 132 65 l 1,0,1
173.5 449 m 128,-1,33
 165 409 165 409 154 340.5 c 128,-1,34
 143 272 143 272 143 205 c 128,-1,35
 143 138 143 138 162 102 c 1,36,-1
 602 653 l 1,37,38
 571 690 571 690 493 695 c 0,39,40
 473 696 473 696 445 696 c 128,-1,41
 417 696 417 696 401 695.5 c 128,-1,42
 385 695 385 695 363 692.5 c 128,-1,43
 341 690 341 690 327 685 c 128,-1,44
 313 680 313 680 295 671.5 c 128,-1,45
 277 663 277 663 265 650 c 128,-1,46
 253 637 253 637 238.5 619 c 128,-1,47
 224 601 224 601 213.5 576.5 c 128,-1,48
 203 552 203 552 192.5 520.5 c 128,-1,32
 182 489 182 489 173.5 449 c 128,-1,33
286 39 m 0,49,50
 309 37 309 37 350.5 37 c 128,-1,51
 392 37 392 37 427 44 c 128,-1,52
 462 51 462 51 495 70.5 c 128,-1,53
 528 90 528 90 550 126 c 0,54,55
 596 202 596 202 621 361 c 0,56,57
 636 453 636 453 636 522 c 128,-1,58
 636 591 636 591 617 630 c 1,59,-1
 176 80 l 1,60,61
 207 45 207 45 286 39 c 0,49,50
EndSplineSet
Substitution2: "'c2sc' Capitals to Small Capitals in Latin lookup 2 subtable" oslash.smcp
EndChar

StartChar: Ugrave
Encoding: 217 217 154
Width: 672
GlyphClass: 2
Flags: W
LayerCount: 2
Fore
SplineSet
329 930 m 1,0,-1
 376 930 l 1,1,-1
 478 797 l 1,2,-1
 445 797 l 1,3,-1
 329 930 l 1,0,-1
171 314 m 2,4,5
 161 248 161 248 161 207 c 128,-1,6
 161 166 161 166 164 140.5 c 128,-1,7
 167 115 167 115 179.5 94.5 c 128,-1,8
 192 74 192 74 205.5 62.5 c 128,-1,9
 219 51 219 51 243 45 c 0,10,11
 279 36 279 36 331 36 c 128,-1,12
 383 36 383 36 413 41 c 128,-1,13
 443 46 443 46 474.5 62.5 c 128,-1,14
 506 79 506 79 528 109 c 0,15,16
 577 175 577 175 599 314 c 2,17,-1
 665 732 l 1,18,-1
 706 732 l 1,19,-1
 640 314 l 2,20,21
 610 122 610 122 535 56 c 0,22,23
 496 22 496 22 450.5 8.5 c 128,-1,24
 405 -5 405 -5 355 -5 c 128,-1,25
 305 -5 305 -5 280 -2.5 c 128,-1,26
 255 0 255 0 227 7.5 c 128,-1,27
 199 15 199 15 181 28 c 0,28,29
 137 62 137 62 125 123 c 0,30,31
 119 154 119 154 119 177.5 c 128,-1,32
 119 201 119 201 119.5 226.5 c 128,-1,33
 120 252 120 252 130 314 c 2,34,-1
 196 732 l 1,35,-1
 237 732 l 1,36,-1
 171 314 l 2,4,5
EndSplineSet
Substitution2: "'c2sc' Capitals to Small Capitals in Latin lookup 2 subtable" ugrave.smcp
EndChar

StartChar: Uacute
Encoding: 218 218 155
Width: 672
GlyphClass: 2
Flags: W
LayerCount: 2
Fore
SplineSet
445 797 m 1,0,-1
 582 930 l 1,1,-1
 632 930 l 1,2,-1
 478 797 l 1,3,-1
 445 797 l 1,0,-1
171 314 m 2,4,5
 161 248 161 248 161 207 c 128,-1,6
 161 166 161 166 164 140.5 c 128,-1,7
 167 115 167 115 179.5 94.5 c 128,-1,8
 192 74 192 74 205.5 62.5 c 128,-1,9
 219 51 219 51 243 45 c 0,10,11
 279 36 279 36 331 36 c 128,-1,12
 383 36 383 36 413 41 c 128,-1,13
 443 46 443 46 474.5 62.5 c 128,-1,14
 506 79 506 79 528 109 c 0,15,16
 577 175 577 175 599 314 c 2,17,-1
 665 732 l 1,18,-1
 706 732 l 1,19,-1
 640 314 l 2,20,21
 610 122 610 122 535 56 c 0,22,23
 496 22 496 22 450.5 8.5 c 128,-1,24
 405 -5 405 -5 355 -5 c 128,-1,25
 305 -5 305 -5 280 -2.5 c 128,-1,26
 255 0 255 0 227 7.5 c 128,-1,27
 199 15 199 15 181 28 c 0,28,29
 137 62 137 62 125 123 c 0,30,31
 119 154 119 154 119 177.5 c 128,-1,32
 119 201 119 201 119.5 226.5 c 128,-1,33
 120 252 120 252 130 314 c 2,34,-1
 196 732 l 1,35,-1
 237 732 l 1,36,-1
 171 314 l 2,4,5
EndSplineSet
Substitution2: "'c2sc' Capitals to Small Capitals in Latin lookup 2 subtable" uacute.smcp
EndChar

StartChar: Ucircumflex
Encoding: 219 219 156
Width: 672
GlyphClass: 2
Flags: W
LayerCount: 2
Fore
SplineSet
322 797 m 1,0,-1
 470 927 l 1,1,-1
 508 927 l 1,2,-1
 601 797 l 1,3,-1
 567 797 l 1,4,-1
 486 901 l 1,5,-1
 361 797 l 1,6,-1
 322 797 l 1,0,-1
171 314 m 2,7,8
 161 248 161 248 161 207 c 128,-1,9
 161 166 161 166 164 140.5 c 128,-1,10
 167 115 167 115 179.5 94.5 c 128,-1,11
 192 74 192 74 205.5 62.5 c 128,-1,12
 219 51 219 51 243 45 c 0,13,14
 279 36 279 36 331 36 c 128,-1,15
 383 36 383 36 413 41 c 128,-1,16
 443 46 443 46 474.5 62.5 c 128,-1,17
 506 79 506 79 528 109 c 0,18,19
 577 175 577 175 599 314 c 2,20,-1
 665 732 l 1,21,-1
 706 732 l 1,22,-1
 640 314 l 2,23,24
 610 122 610 122 535 56 c 0,25,26
 496 22 496 22 450.5 8.5 c 128,-1,27
 405 -5 405 -5 355 -5 c 128,-1,28
 305 -5 305 -5 280 -2.5 c 128,-1,29
 255 0 255 0 227 7.5 c 128,-1,30
 199 15 199 15 181 28 c 0,31,32
 137 62 137 62 125 123 c 0,33,34
 119 154 119 154 119 177.5 c 128,-1,35
 119 201 119 201 119.5 226.5 c 128,-1,36
 120 252 120 252 130 314 c 2,37,-1
 196 732 l 1,38,-1
 237 732 l 1,39,-1
 171 314 l 2,7,8
EndSplineSet
Substitution2: "'c2sc' Capitals to Small Capitals in Latin lookup 2 subtable" ucircumflex.smcp
EndChar

StartChar: Udieresis
Encoding: 220 220 157
Width: 672
GlyphClass: 2
Flags: W
LayerCount: 2
Fore
SplineSet
328.5 850.5 m 128,-1,1
 336 854 336 854 346 854 c 128,-1,2
 356 854 356 854 362.5 846 c 128,-1,3
 369 838 369 838 367.5 829 c 128,-1,4
 366 820 366 820 363 814.5 c 128,-1,5
 360 809 360 809 356 806 c 0,6,7
 346 797 346 797 334 797 c 128,-1,8
 322 797 322 797 315 805.5 c 128,-1,9
 308 814 308 814 309.5 824 c 128,-1,10
 311 834 311 834 316 840.5 c 128,-1,0
 321 847 321 847 328.5 850.5 c 128,-1,1
587 852 m 128,-1,12
 593 854 593 854 602 854 c 128,-1,13
 611 854 611 854 617.5 846 c 128,-1,14
 624 838 624 838 622.5 828 c 128,-1,15
 621 818 621 818 616 812 c 0,16,17
 606 797 606 797 591.5 797 c 128,-1,18
 577 797 577 797 570 805.5 c 128,-1,19
 563 814 563 814 564.5 823 c 128,-1,20
 566 832 566 832 569 837.5 c 128,-1,21
 572 843 572 843 576.5 846.5 c 128,-1,11
 581 850 581 850 587 852 c 128,-1,12
171 314 m 2,22,23
 161 248 161 248 161 207 c 128,-1,24
 161 166 161 166 164 140.5 c 128,-1,25
 167 115 167 115 179.5 94.5 c 128,-1,26
 192 74 192 74 205.5 62.5 c 128,-1,27
 219 51 219 51 243 45 c 0,28,29
 279 36 279 36 331 36 c 128,-1,30
 383 36 383 36 413 41 c 128,-1,31
 443 46 443 46 474.5 62.5 c 128,-1,32
 506 79 506 79 528 109 c 0,33,34
 577 175 577 175 599 314 c 2,35,-1
 665 732 l 1,36,-1
 706 732 l 1,37,-1
 640 314 l 2,38,39
 610 122 610 122 535 56 c 0,40,41
 496 22 496 22 450.5 8.5 c 128,-1,42
 405 -5 405 -5 355 -5 c 128,-1,43
 305 -5 305 -5 280 -2.5 c 128,-1,44
 255 0 255 0 227 7.5 c 128,-1,45
 199 15 199 15 181 28 c 0,46,47
 137 62 137 62 125 123 c 0,48,49
 119 154 119 154 119 177.5 c 128,-1,50
 119 201 119 201 119.5 226.5 c 128,-1,51
 120 252 120 252 130 314 c 2,52,-1
 196 732 l 1,53,-1
 237 732 l 1,54,-1
 171 314 l 2,22,23
EndSplineSet
Substitution2: "'c2sc' Capitals to Small Capitals in Latin lookup 2 subtable" udieresis.smcp
EndChar

StartChar: Yacute
Encoding: 221 221 158
Width: 628
GlyphClass: 2
Flags: W
LayerCount: 2
Fore
SplineSet
414 797 m 1,0,-1
 551 930 l 1,1,-1
 601 930 l 1,2,-1
 447 797 l 1,3,-1
 414 797 l 1,0,-1
150 732 m 1,4,-1
 194 732 l 1,5,-1
 341 312 l 1,6,-1
 641 732 l 1,7,-1
 690 732 l 1,8,-1
 356 260 l 1,9,-1
 315 0 l 1,10,-1
 274 0 l 1,11,-1
 315 260 l 1,12,-1
 150 732 l 1,4,-1
EndSplineSet
Substitution2: "'c2sc' Capitals to Small Capitals in Latin lookup 2 subtable" yacute.smcp
EndChar

StartChar: Thorn
Encoding: 222 222 159
Width: 553
GlyphClass: 2
Flags: W
LayerCount: 2
Fore
SplineSet
60 0 m 1,0,1
 60 0 60 0 175 729 c 1,2,-1
 216 729 l 1,3,-1
 194 588 l 1,4,-1
 404 588 l 2,5,6
 444 588 444 588 471.5 575.5 c 128,-1,7
 499 563 499 563 513 547 c 0,8,9
 551 504 551 504 551 435 c 0,10,11
 551 407 551 407 544.5 360 c 128,-1,12
 538 313 538 313 520.5 270.5 c 128,-1,13
 503 228 503 228 483 205 c 128,-1,14
 463 182 463 182 435.5 169.5 c 128,-1,15
 408 157 408 157 386.5 154 c 128,-1,16
 365 151 365 151 268.5 152 c 128,-1,17
 172 153 172 153 127 164 c 1,18,-1
 101 0 l 1,19,-1
 60 0 l 1,0,1
341 192 m 2,20,21
 444 192 444 192 482 285 c 0,22,23
 497 322 497 322 503.5 361.5 c 128,-1,24
 510 401 510 401 510 414.5 c 128,-1,25
 510 428 510 428 508.5 443.5 c 128,-1,26
 507 459 507 459 503.5 477 c 128,-1,27
 500 495 500 495 489.5 507.5 c 128,-1,28
 479 520 479 520 469.5 527.5 c 128,-1,29
 460 535 460 535 446 539 c 0,30,31
 424 546 424 546 397 547 c 1,32,-1
 187 547 l 1,33,-1
 131 192 l 1,34,-1
 341 192 l 2,20,21
EndSplineSet
Substitution2: "'c2sc' Capitals to Small Capitals in Latin lookup 2 subtable" thorn.smcp
EndChar

StartChar: germandbls
Encoding: 223 223 160
Width: 555
GlyphClass: 2
Flags: W
LayerCount: 2
Fore
SplineSet
549 652 m 0,0,1
 549 736 549 736 393 736 c 0,2,3
 310 736 310 736 257.5 694 c 128,-1,4
 205 652 205 652 191 566 c 2,5,-1
 101 0 l 1,6,-1
 60 0 l 1,7,-1
 150 566 l 2,8,9
 165 660 165 660 226 718.5 c 128,-1,10
 287 777 287 777 394 777 c 0,11,12
 516 777 516 777 560 728 c 0,13,14
 591 693 591 693 591 649 c 0,15,16
 591 610 591 610 569 569 c 0,17,18
 531 498 531 498 477 465 c 1,19,20
 461 454 461 454 438 441 c 128,-1,21
 415 428 415 428 402.5 420 c 128,-1,22
 390 412 390 412 376 401 c 0,23,24
 344 376 344 376 344 339 c 0,25,26
 344 321 344 321 357.5 307.5 c 128,-1,27
 371 294 371 294 397 289 c 128,-1,28
 423 284 423 284 453 277.5 c 128,-1,29
 483 271 483 271 508.5 263 c 128,-1,30
 534 255 534 255 546.5 235.5 c 128,-1,31
 559 216 559 216 559 200.5 c 128,-1,32
 559 185 559 185 558 176 c 2,33,-1
 551 127 l 1,34,35
 543 81 543 81 517 49 c 1,36,37
 467 -8 467 -8 381.5 -8 c 128,-1,38
 296 -8 296 -8 201 8 c 1,39,-1
 205 38 l 1,40,41
 349 33 349 33 379 33 c 0,42,43
 439 33 439 33 470.5 63 c 128,-1,44
 502 93 502 93 508 132 c 1,45,-1
 516 175 l 1,46,47
 516 181 516 181 516 192.5 c 128,-1,48
 516 204 516 204 502.5 217.5 c 128,-1,49
 489 231 489 231 463.5 236 c 128,-1,50
 438 241 438 241 407.5 248 c 128,-1,51
 377 255 377 255 351.5 263 c 128,-1,52
 326 271 326 271 313.5 290 c 128,-1,53
 301 309 301 309 301 325 c 0,54,55
 301 386 301 386 331.5 414 c 128,-1,56
 362 442 362 442 454 497 c 0,57,58
 482 514 482 514 507 546 c 0,59,60
 549 600 549 600 549 652 c 0,0,1
EndSplineSet
Substitution2: "'smcp' Lowercase to Small Capitals lookup 1 subtable" germandbls.smcp
EndChar

StartChar: agrave
Encoding: 224 224 161
Width: 543
GlyphClass: 2
Flags: W
LayerCount: 2
Fore
SplineSet
223 736 m 1,0,-1
 269 736 l 1,1,-1
 371 603 l 1,2,-1
 339 603 l 1,3,-1
 223 736 l 1,0,-1
257.5 531.5 m 128,-1,5
 279 537 279 537 302 540 c 128,-1,6
 325 543 325 543 355.5 543 c 128,-1,7
 386 543 386 543 447.5 528.5 c 128,-1,8
 509 514 509 514 545 479 c 1,9,-1
 475 0 l 1,10,-1
 448 0 l 1,11,-1
 445 60 l 1,12,13
 412 39 412 39 354 16 c 128,-1,14
 296 -7 296 -7 255.5 -7 c 128,-1,15
 215 -7 215 -7 191 -2 c 128,-1,16
 167 3 167 3 145 14 c 0,17,18
 104 36 104 36 87 99 c 0,19,20
 79 128 79 128 79 150 c 128,-1,21
 79 172 79 172 79.5 196.5 c 128,-1,22
 80 221 80 221 90.5 282 c 128,-1,23
 101 343 101 343 120 391 c 128,-1,24
 139 439 139 439 159.5 465.5 c 128,-1,25
 180 492 180 492 208 509 c 128,-1,4
 236 526 236 526 257.5 531.5 c 128,-1,5
120 173 m 0,26,27
 120 33 120 33 240 33 c 0,28,29
 307 33 307 33 371 57 c 0,30,31
 393 66 393 66 417.5 76.5 c 128,-1,32
 442 87 442 87 447 89 c 1,33,-1
 502 468 l 1,34,35
 422 503 422 503 350 503 c 0,36,37
 274 503 274 503 225 471 c 0,38,39
 155 424 155 424 127 248 c 0,40,41
 120 207 120 207 120 173 c 0,26,27
EndSplineSet
AlternateSubs2: "'salt' Stylistic Alternatives in Latin lookup 16 subtable" agrave.salt
Substitution2: "'smcp' Lowercase to Small Capitals lookup 1 subtable" agrave.smcp
EndChar

StartChar: aacute
Encoding: 225 225 162
Width: 543
GlyphClass: 2
Flags: W
LayerCount: 2
Fore
SplineSet
342 603 m 1,0,-1
 479 736 l 1,1,-1
 529 736 l 1,2,-1
 375 603 l 1,3,-1
 342 603 l 1,0,-1
257.5 531.5 m 128,-1,5
 279 537 279 537 302 540 c 128,-1,6
 325 543 325 543 355.5 543 c 128,-1,7
 386 543 386 543 447.5 528.5 c 128,-1,8
 509 514 509 514 545 479 c 1,9,-1
 475 0 l 1,10,-1
 448 0 l 1,11,-1
 445 60 l 1,12,13
 412 39 412 39 354 16 c 128,-1,14
 296 -7 296 -7 255.5 -7 c 128,-1,15
 215 -7 215 -7 191 -2 c 128,-1,16
 167 3 167 3 145 14 c 0,17,18
 104 36 104 36 87 99 c 0,19,20
 79 128 79 128 79 150 c 128,-1,21
 79 172 79 172 79.5 196.5 c 128,-1,22
 80 221 80 221 90.5 282 c 128,-1,23
 101 343 101 343 120 391 c 128,-1,24
 139 439 139 439 159.5 465.5 c 128,-1,25
 180 492 180 492 208 509 c 128,-1,4
 236 526 236 526 257.5 531.5 c 128,-1,5
120 173 m 0,26,27
 120 33 120 33 240 33 c 0,28,29
 307 33 307 33 371 57 c 0,30,31
 393 66 393 66 417.5 76.5 c 128,-1,32
 442 87 442 87 447 89 c 1,33,-1
 502 468 l 1,34,35
 422 503 422 503 350 503 c 0,36,37
 274 503 274 503 225 471 c 0,38,39
 155 424 155 424 127 248 c 0,40,41
 120 207 120 207 120 173 c 0,26,27
EndSplineSet
AlternateSubs2: "'salt' Stylistic Alternatives in Latin lookup 16 subtable" aacute.salt
Substitution2: "'smcp' Lowercase to Small Capitals lookup 1 subtable" aacute.smcp
EndChar

StartChar: acircumflex
Encoding: 226 226 163
Width: 543
GlyphClass: 2
Flags: W
LayerCount: 2
Fore
SplineSet
216 603 m 1,0,-1
 364 733 l 1,1,-1
 402 733 l 1,2,-1
 494 603 l 1,3,-1
 461 603 l 1,4,-1
 380 707 l 1,5,-1
 255 603 l 1,6,-1
 216 603 l 1,0,-1
257.5 531.5 m 128,-1,8
 279 537 279 537 302 540 c 128,-1,9
 325 543 325 543 355.5 543 c 128,-1,10
 386 543 386 543 447.5 528.5 c 128,-1,11
 509 514 509 514 545 479 c 1,12,-1
 475 0 l 1,13,-1
 448 0 l 1,14,-1
 445 60 l 1,15,16
 412 39 412 39 354 16 c 128,-1,17
 296 -7 296 -7 255.5 -7 c 128,-1,18
 215 -7 215 -7 191 -2 c 128,-1,19
 167 3 167 3 145 14 c 0,20,21
 104 36 104 36 87 99 c 0,22,23
 79 128 79 128 79 150 c 128,-1,24
 79 172 79 172 79.5 196.5 c 128,-1,25
 80 221 80 221 90.5 282 c 128,-1,26
 101 343 101 343 120 391 c 128,-1,27
 139 439 139 439 159.5 465.5 c 128,-1,28
 180 492 180 492 208 509 c 128,-1,7
 236 526 236 526 257.5 531.5 c 128,-1,8
120 173 m 0,29,30
 120 33 120 33 240 33 c 0,31,32
 307 33 307 33 371 57 c 0,33,34
 393 66 393 66 417.5 76.5 c 128,-1,35
 442 87 442 87 447 89 c 1,36,-1
 502 468 l 1,37,38
 422 503 422 503 350 503 c 0,39,40
 274 503 274 503 225 471 c 0,41,42
 155 424 155 424 127 248 c 0,43,44
 120 207 120 207 120 173 c 0,29,30
EndSplineSet
AlternateSubs2: "'salt' Stylistic Alternatives in Latin lookup 16 subtable" acircumflex.salt
Substitution2: "'smcp' Lowercase to Small Capitals lookup 1 subtable" acircumflex.smcp
EndChar

StartChar: atilde
Encoding: 227 227 164
Width: 543
GlyphClass: 2
Flags: W
LayerCount: 2
Fore
SplineSet
425 638 m 0,0,1
 464 638 464 638 529 684 c 1,2,-1
 537 665 l 1,3,4
 534 663 534 663 522.5 654 c 128,-1,5
 511 645 511 645 507 642 c 128,-1,6
 503 639 503 639 493 632 c 128,-1,7
 483 625 483 625 478 622.5 c 128,-1,8
 473 620 473 620 464 615 c 128,-1,9
 455 610 455 610 449 608 c 0,10,11
 412 598 412 598 391 610 c 128,-1,12
 370 622 370 622 358 633 c 0,13,14
 328 663 328 663 312 663 c 128,-1,15
 296 663 296 663 285.5 661 c 128,-1,16
 275 659 275 659 263 653 c 128,-1,17
 251 647 251 647 244 643.5 c 128,-1,18
 237 640 237 640 222.5 631 c 128,-1,19
 208 622 208 622 202 618 c 1,20,-1
 194 637 l 1,21,22
 244 675 244 675 269.5 686 c 128,-1,23
 295 697 295 697 313.5 697 c 128,-1,24
 332 697 332 697 353 682 c 128,-1,25
 374 667 374 667 393 652.5 c 128,-1,26
 412 638 412 638 425 638 c 0,0,1
257.5 531.5 m 128,-1,28
 279 537 279 537 302 540 c 128,-1,29
 325 543 325 543 355.5 543 c 128,-1,30
 386 543 386 543 447.5 528.5 c 128,-1,31
 509 514 509 514 545 479 c 1,32,-1
 475 0 l 1,33,-1
 448 0 l 1,34,-1
 445 60 l 1,35,36
 412 39 412 39 354 16 c 128,-1,37
 296 -7 296 -7 255.5 -7 c 128,-1,38
 215 -7 215 -7 191 -2 c 128,-1,39
 167 3 167 3 145 14 c 0,40,41
 104 36 104 36 87 99 c 0,42,43
 79 128 79 128 79 150 c 128,-1,44
 79 172 79 172 79.5 196.5 c 128,-1,45
 80 221 80 221 90.5 282 c 128,-1,46
 101 343 101 343 120 391 c 128,-1,47
 139 439 139 439 159.5 465.5 c 128,-1,48
 180 492 180 492 208 509 c 128,-1,27
 236 526 236 526 257.5 531.5 c 128,-1,28
120 173 m 0,49,50
 120 33 120 33 240 33 c 0,51,52
 307 33 307 33 371 57 c 0,53,54
 393 66 393 66 417.5 76.5 c 128,-1,55
 442 87 442 87 447 89 c 1,56,-1
 502 468 l 1,57,58
 422 503 422 503 350 503 c 0,59,60
 274 503 274 503 225 471 c 0,61,62
 155 424 155 424 127 248 c 0,63,64
 120 207 120 207 120 173 c 0,49,50
EndSplineSet
AlternateSubs2: "'salt' Stylistic Alternatives in Latin lookup 16 subtable" atilde.salt
Substitution2: "'smcp' Lowercase to Small Capitals lookup 1 subtable" atilde.smcp
EndChar

StartChar: adieresis
Encoding: 228 228 165
Width: 543
GlyphClass: 2
Flags: W
LayerCount: 2
Fore
SplineSet
215 652 m 128,-1,1
 225 660 225 660 235 660 c 128,-1,2
 245 660 245 660 251 657 c 0,3,4
 270 645 270 645 257 621 c 0,5,6
 247 603 247 603 231.5 603 c 128,-1,7
 216 603 216 603 208.5 611.5 c 128,-1,8
 201 620 201 620 203 632 c 128,-1,0
 205 644 205 644 215 652 c 128,-1,1
470 652 m 128,-1,10
 480 660 480 660 490 660 c 128,-1,11
 500 660 500 660 506 656.5 c 128,-1,12
 512 653 512 653 514.5 646.5 c 128,-1,13
 517 640 517 640 516 632 c 128,-1,14
 515 624 515 624 510 618 c 0,15,16
 500 603 500 603 485.5 603 c 128,-1,17
 471 603 471 603 463.5 611.5 c 128,-1,18
 456 620 456 620 458 632 c 128,-1,9
 460 644 460 644 470 652 c 128,-1,10
257.5 531.5 m 128,-1,20
 279 537 279 537 302 540 c 128,-1,21
 325 543 325 543 355.5 543 c 128,-1,22
 386 543 386 543 447.5 528.5 c 128,-1,23
 509 514 509 514 545 479 c 1,24,-1
 475 0 l 1,25,-1
 448 0 l 1,26,-1
 445 60 l 1,27,28
 412 39 412 39 354 16 c 128,-1,29
 296 -7 296 -7 255.5 -7 c 128,-1,30
 215 -7 215 -7 191 -2 c 128,-1,31
 167 3 167 3 145 14 c 0,32,33
 104 36 104 36 87 99 c 0,34,35
 79 128 79 128 79 150 c 128,-1,36
 79 172 79 172 79.5 196.5 c 128,-1,37
 80 221 80 221 90.5 282 c 128,-1,38
 101 343 101 343 120 391 c 128,-1,39
 139 439 139 439 159.5 465.5 c 128,-1,40
 180 492 180 492 208 509 c 128,-1,19
 236 526 236 526 257.5 531.5 c 128,-1,20
120 173 m 0,41,42
 120 33 120 33 240 33 c 0,43,44
 307 33 307 33 371 57 c 0,45,46
 393 66 393 66 417.5 76.5 c 128,-1,47
 442 87 442 87 447 89 c 1,48,-1
 502 468 l 1,49,50
 422 503 422 503 350 503 c 0,51,52
 274 503 274 503 225 471 c 0,53,54
 155 424 155 424 127 248 c 0,55,56
 120 207 120 207 120 173 c 0,41,42
EndSplineSet
AlternateSubs2: "'salt' Stylistic Alternatives in Latin lookup 16 subtable" adieresis.salt
Substitution2: "'smcp' Lowercase to Small Capitals lookup 1 subtable" adieresis.smcp
EndChar

StartChar: aring
Encoding: 229 229 166
Width: 543
GlyphClass: 2
Flags: W
LayerCount: 2
Fore
SplineSet
389 808 m 128,-1,1
 431 808 431 808 454 780.5 c 128,-1,2
 477 753 477 753 477 720 c 0,3,4
 477 668 477 668 440.5 635.5 c 128,-1,5
 404 603 404 603 361.5 603 c 128,-1,6
 319 603 319 603 295.5 630 c 128,-1,7
 272 657 272 657 272 690 c 0,8,9
 272 742 272 742 309.5 775 c 128,-1,0
 347 808 347 808 389 808 c 128,-1,1
298 693 m 0,10,11
 298 669 298 669 316 649 c 128,-1,12
 334 629 334 629 365 629 c 128,-1,13
 396 629 396 629 421 651 c 128,-1,14
 446 673 446 673 451 705 c 128,-1,15
 456 737 456 737 437 759.5 c 128,-1,16
 418 782 418 782 386.5 782 c 128,-1,17
 355 782 355 782 329 759 c 0,18,19
 298 732 298 732 298 693 c 0,10,11
257.5 531.5 m 128,-1,21
 279 537 279 537 302 540 c 128,-1,22
 325 543 325 543 355.5 543 c 128,-1,23
 386 543 386 543 447.5 528.5 c 128,-1,24
 509 514 509 514 545 479 c 1,25,-1
 475 0 l 1,26,-1
 448 0 l 1,27,-1
 445 60 l 1,28,29
 412 39 412 39 354 16 c 128,-1,30
 296 -7 296 -7 255.5 -7 c 128,-1,31
 215 -7 215 -7 191 -2 c 128,-1,32
 167 3 167 3 145 14 c 0,33,34
 104 36 104 36 87 99 c 0,35,36
 79 128 79 128 79 150 c 128,-1,37
 79 172 79 172 79.5 196.5 c 128,-1,38
 80 221 80 221 90.5 282 c 128,-1,39
 101 343 101 343 120 391 c 128,-1,40
 139 439 139 439 159.5 465.5 c 128,-1,41
 180 492 180 492 208 509 c 128,-1,20
 236 526 236 526 257.5 531.5 c 128,-1,21
120 173 m 0,42,43
 120 33 120 33 240 33 c 0,44,45
 307 33 307 33 371 57 c 0,46,47
 393 66 393 66 417.5 76.5 c 128,-1,48
 442 87 442 87 447 89 c 1,49,-1
 502 468 l 1,50,51
 422 503 422 503 350 503 c 0,52,53
 274 503 274 503 225 471 c 0,54,55
 155 424 155 424 127 248 c 0,56,57
 120 207 120 207 120 173 c 0,42,43
EndSplineSet
AlternateSubs2: "'salt' Stylistic Alternatives in Latin lookup 16 subtable" aring.salt
Substitution2: "'smcp' Lowercase to Small Capitals lookup 1 subtable" aring.smcp
EndChar

StartChar: ae
Encoding: 230 230 167
Width: 942
GlyphClass: 2
Flags: W
LayerCount: 2
Fore
SplineSet
401.5 527.5 m 128,-1,1
 464 512 464 512 507 482 c 1,2,3
 564 541 564 541 675 541 c 128,-1,4
 786 541 786 541 831 509 c 128,-1,5
 876 477 876 477 876 416 c 0,6,7
 876 346 876 346 841 305 c 128,-1,8
 806 264 806 264 763 249 c 0,9,10
 689 222 689 222 610 222 c 0,11,12
 564 222 564 222 519.5 229 c 128,-1,13
 475 236 475 236 464 240 c 1,14,15
 457 192 457 192 457 150.5 c 128,-1,16
 457 109 457 109 469 82 c 0,17,18
 489 34 489 34 559 33 c 0,19,20
 570 33 570 33 581 33 c 0,21,22
 665 33 665 33 800 52 c 1,23,-1
 795 22 l 1,24,25
 689 -7 689 -7 556 -7 c 0,26,27
 457 -7 457 -7 429 70 c 1,28,29
 302 -7 302 -7 205 -7 c 0,30,31
 106 -7 106 -7 69 48 c 0,32,33
 39 94 39 94 39 168 c 0,34,35
 39 265 39 265 71 363 c 0,36,37
 113 492 113 492 198 524 c 0,38,39
 246 543 246 543 292.5 543 c 128,-1,0
 339 543 339 543 401.5 527.5 c 128,-1,1
127 395.5 m 128,-1,41
 102 342 102 342 91 273.5 c 128,-1,42
 80 205 80 205 80 162 c 0,43,44
 80 33 80 33 201 33 c 0,45,46
 296 33 296 33 421 100 c 1,47,48
 417 124 417 124 417 165 c 128,-1,49
 417 206 417 206 434 302 c 128,-1,50
 451 398 451 398 485 456 c 1,51,52
 376 502 376 502 301 502 c 0,53,54
 233 502 233 502 185 471 c 0,55,40
 152 449 152 449 127 395.5 c 128,-1,41
468 268 m 1,56,57
 521 259 521 259 559 259 c 128,-1,58
 597 259 597 259 617 259.5 c 128,-1,59
 637 260 637 260 678 267 c 128,-1,60
 719 274 719 274 750 287 c 128,-1,61
 781 300 781 300 804 326 c 0,62,63
 834 360 834 360 834 408 c 128,-1,64
 834 456 834 456 801 478 c 128,-1,65
 768 500 768 500 688 500 c 0,66,67
 599 500 599 500 559 470 c 0,68,69
 544 459 544 459 533.5 450 c 128,-1,70
 523 441 523 441 513.5 423 c 128,-1,71
 504 405 504 405 499 393.5 c 128,-1,72
 494 382 494 382 488 358 c 0,73,74
 480 328 480 328 474.5 300 c 128,-1,75
 469 272 469 272 468 268 c 1,56,57
EndSplineSet
Substitution2: "'smcp' Lowercase to Small Capitals lookup 1 subtable" ae.smcp
EndChar

StartChar: ccedilla
Encoding: 231 231 168
Width: 495
GlyphClass: 2
Flags: W
LayerCount: 2
Fore
SplineSet
310 537 m 0,0,1
 391 537 391 537 514 510 c 1,2,-1
 509 482 l 1,3,4
 392 496 392 496 334 496 c 128,-1,5
 276 496 276 496 257.5 491.5 c 128,-1,6
 239 487 239 487 218.5 473 c 128,-1,7
 198 459 198 459 184 434 c 0,8,9
 151 378 151 378 132 262 c 0,10,11
 123 208 123 208 123 167.5 c 128,-1,12
 123 127 123 127 130 102 c 128,-1,13
 137 77 137 77 153 61 c 0,14,15
 179 35 179 35 225 35 c 0,16,17
 312 35 312 35 414 49 c 1,18,-1
 448 53 l 1,19,-1
 444 23 l 1,20,21
 381 7 381 7 336 1 c 128,-1,22
 291 -5 291 -5 243 -5 c 128,-1,23
 195 -5 195 -5 171 2.5 c 128,-1,24
 147 10 147 10 126 28 c 0,25,26
 88 61 88 61 82 157 c 0,27,28
 82 166 82 166 82 191.5 c 128,-1,29
 82 217 82 217 92.5 278.5 c 128,-1,30
 103 340 103 340 120.5 389.5 c 128,-1,31
 138 439 138 439 156.5 467.5 c 128,-1,32
 175 496 175 496 201.5 512 c 128,-1,33
 228 528 228 528 252 532.5 c 128,-1,34
 276 537 276 537 310 537 c 0,0,1
163 -172 m 2,35,-1
 125 -172 l 1,36,-1
 128 -154 l 1,37,-1
 169 -146 l 2,38,39
 194 -141 194 -141 209 -132 c 0,40,41
 241 -112 241 -112 252 -36 c 1,42,-1
 286 -36 l 1,43,44
 273 -113 273 -113 248 -142.5 c 128,-1,45
 223 -172 223 -172 163 -172 c 2,35,-1
EndSplineSet
Substitution2: "'smcp' Lowercase to Small Capitals lookup 1 subtable" ccedilla.smcp
EndChar

StartChar: egrave
Encoding: 232 232 169
Width: 532
GlyphClass: 2
Flags: W
LayerCount: 2
Fore
SplineSet
221 734 m 1,0,-1
 268 734 l 1,1,-1
 370 601 l 1,2,-1
 337 601 l 1,3,-1
 221 734 l 1,0,-1
490 509 m 128,-1,5
 535 477 535 477 535 416 c 0,6,7
 535 346 535 346 500 305 c 128,-1,8
 465 264 465 264 422 249 c 0,9,10
 347 222 347 222 268 222 c 0,11,12
 222 222 222 222 178 229 c 128,-1,13
 134 236 134 236 123 240 c 1,14,15
 116 191 116 191 116 150 c 128,-1,16
 116 109 116 109 127 82 c 0,17,18
 147 34 147 34 216 33 c 0,19,20
 227 33 227 33 239 33 c 0,21,22
 323 33 323 33 458 52 c 1,23,-1
 453 22 l 1,24,25
 347 -7 347 -7 214 -7 c 0,26,27
 120 -7 120 -7 91 62 c 0,28,29
 75 98 75 98 75 153 c 128,-1,30
 75 208 75 208 84.5 262 c 128,-1,31
 94 316 94 316 100 342 c 128,-1,32
 106 368 106 368 116.5 398 c 128,-1,33
 127 428 127 428 139 447.5 c 128,-1,34
 151 467 151 467 170 486.5 c 128,-1,35
 189 506 189 506 213 516 c 1,36,37
 266 541 266 541 355.5 541 c 128,-1,4
 445 541 445 541 490 509 c 128,-1,5
127 268 m 1,38,39
 179 259 179 259 217 259 c 128,-1,40
 255 259 255 259 275.5 259.5 c 128,-1,41
 296 260 296 260 337 267 c 128,-1,42
 378 274 378 274 408.5 287 c 128,-1,43
 439 300 439 300 463 326 c 0,44,45
 493 360 493 360 493 408 c 128,-1,46
 493 456 493 456 460.5 478 c 128,-1,47
 428 500 428 500 348 500 c 0,48,49
 259 500 259 500 219 471 c 0,50,51
 203 459 203 459 192.5 450.5 c 128,-1,52
 182 442 182 442 173 424.5 c 128,-1,53
 164 407 164 407 158.5 395.5 c 128,-1,54
 153 384 153 384 147 361 c 0,55,56
 140 332 140 332 134 303 c 128,-1,57
 128 274 128 274 127 268 c 1,38,39
EndSplineSet
Substitution2: "'smcp' Lowercase to Small Capitals lookup 1 subtable" egrave.smcp
EndChar

StartChar: eacute
Encoding: 233 233 170
Width: 532
GlyphClass: 2
Flags: W
LayerCount: 2
Fore
SplineSet
337 601 m 1,0,-1
 474 734 l 1,1,-1
 524 734 l 1,2,-1
 370 601 l 1,3,-1
 337 601 l 1,0,-1
490 509 m 128,-1,5
 535 477 535 477 535 416 c 0,6,7
 535 346 535 346 500 305 c 128,-1,8
 465 264 465 264 422 249 c 0,9,10
 347 222 347 222 268 222 c 0,11,12
 222 222 222 222 178 229 c 128,-1,13
 134 236 134 236 123 240 c 1,14,15
 116 191 116 191 116 150 c 128,-1,16
 116 109 116 109 127 82 c 0,17,18
 147 34 147 34 216 33 c 0,19,20
 227 33 227 33 239 33 c 0,21,22
 323 33 323 33 458 52 c 1,23,-1
 453 22 l 1,24,25
 347 -7 347 -7 214 -7 c 0,26,27
 120 -7 120 -7 91 62 c 0,28,29
 75 98 75 98 75 153 c 128,-1,30
 75 208 75 208 84.5 262 c 128,-1,31
 94 316 94 316 100 342 c 128,-1,32
 106 368 106 368 116.5 398 c 128,-1,33
 127 428 127 428 139 447.5 c 128,-1,34
 151 467 151 467 170 486.5 c 128,-1,35
 189 506 189 506 213 516 c 1,36,37
 266 541 266 541 355.5 541 c 128,-1,4
 445 541 445 541 490 509 c 128,-1,5
127 268 m 1,38,39
 179 259 179 259 217 259 c 128,-1,40
 255 259 255 259 275.5 259.5 c 128,-1,41
 296 260 296 260 337 267 c 128,-1,42
 378 274 378 274 408.5 287 c 128,-1,43
 439 300 439 300 463 326 c 0,44,45
 493 360 493 360 493 408 c 128,-1,46
 493 456 493 456 460.5 478 c 128,-1,47
 428 500 428 500 348 500 c 0,48,49
 259 500 259 500 219 471 c 0,50,51
 203 459 203 459 192.5 450.5 c 128,-1,52
 182 442 182 442 173 424.5 c 128,-1,53
 164 407 164 407 158.5 395.5 c 128,-1,54
 153 384 153 384 147 361 c 0,55,56
 140 332 140 332 134 303 c 128,-1,57
 128 274 128 274 127 268 c 1,38,39
EndSplineSet
Substitution2: "'smcp' Lowercase to Small Capitals lookup 1 subtable" eacute.smcp
EndChar

StartChar: ecircumflex
Encoding: 234 234 171
Width: 532
GlyphClass: 2
Flags: W
LayerCount: 2
Fore
SplineSet
214 601 m 1,0,-1
 362 731 l 1,1,-1
 400 731 l 1,2,-1
 493 601 l 1,3,-1
 460 601 l 1,4,-1
 378 705 l 1,5,-1
 253 601 l 1,6,-1
 214 601 l 1,0,-1
490 509 m 128,-1,8
 535 477 535 477 535 416 c 0,9,10
 535 346 535 346 500 305 c 128,-1,11
 465 264 465 264 422 249 c 0,12,13
 347 222 347 222 268 222 c 0,14,15
 222 222 222 222 178 229 c 128,-1,16
 134 236 134 236 123 240 c 1,17,18
 116 191 116 191 116 150 c 128,-1,19
 116 109 116 109 127 82 c 0,20,21
 147 34 147 34 216 33 c 0,22,23
 227 33 227 33 239 33 c 0,24,25
 323 33 323 33 458 52 c 1,26,-1
 453 22 l 1,27,28
 347 -7 347 -7 214 -7 c 0,29,30
 120 -7 120 -7 91 62 c 0,31,32
 75 98 75 98 75 153 c 128,-1,33
 75 208 75 208 84.5 262 c 128,-1,34
 94 316 94 316 100 342 c 128,-1,35
 106 368 106 368 116.5 398 c 128,-1,36
 127 428 127 428 139 447.5 c 128,-1,37
 151 467 151 467 170 486.5 c 128,-1,38
 189 506 189 506 213 516 c 1,39,40
 266 541 266 541 355.5 541 c 128,-1,7
 445 541 445 541 490 509 c 128,-1,8
127 268 m 1,41,42
 179 259 179 259 217 259 c 128,-1,43
 255 259 255 259 275.5 259.5 c 128,-1,44
 296 260 296 260 337 267 c 128,-1,45
 378 274 378 274 408.5 287 c 128,-1,46
 439 300 439 300 463 326 c 0,47,48
 493 360 493 360 493 408 c 128,-1,49
 493 456 493 456 460.5 478 c 128,-1,50
 428 500 428 500 348 500 c 0,51,52
 259 500 259 500 219 471 c 0,53,54
 203 459 203 459 192.5 450.5 c 128,-1,55
 182 442 182 442 173 424.5 c 128,-1,56
 164 407 164 407 158.5 395.5 c 128,-1,57
 153 384 153 384 147 361 c 0,58,59
 140 332 140 332 134 303 c 128,-1,60
 128 274 128 274 127 268 c 1,41,42
EndSplineSet
Substitution2: "'smcp' Lowercase to Small Capitals lookup 1 subtable" ecircumflex.smcp
EndChar

StartChar: edieresis
Encoding: 235 235 172
Width: 532
GlyphClass: 2
Flags: W
LayerCount: 2
Fore
SplineSet
236 658 m 128,-1,1
 248 658 248 658 254.5 650 c 128,-1,2
 261 642 261 642 259.5 633 c 128,-1,3
 258 624 258 624 255 618.5 c 128,-1,4
 252 613 252 613 248 610 c 0,5,6
 238 601 238 601 226 601 c 128,-1,7
 214 601 214 601 207 609.5 c 128,-1,8
 200 618 200 618 202 630 c 128,-1,9
 204 642 204 642 214 650 c 128,-1,0
 224 658 224 658 236 658 c 128,-1,1
491 658 m 128,-1,11
 503 658 503 658 509.5 650 c 128,-1,12
 516 642 516 642 514.5 633.5 c 128,-1,13
 513 625 513 625 511 621 c 128,-1,14
 509 617 509 617 506 613 c 128,-1,15
 503 609 503 609 499 607 c 0,16,17
 491 601 491 601 480 601 c 128,-1,18
 469 601 469 601 462 609.5 c 128,-1,19
 455 618 455 618 457 630 c 128,-1,20
 459 642 459 642 469 650 c 128,-1,10
 479 658 479 658 491 658 c 128,-1,11
490 509 m 128,-1,22
 535 477 535 477 535 416 c 0,23,24
 535 346 535 346 500 305 c 128,-1,25
 465 264 465 264 422 249 c 0,26,27
 347 222 347 222 268 222 c 0,28,29
 222 222 222 222 178 229 c 128,-1,30
 134 236 134 236 123 240 c 1,31,32
 116 191 116 191 116 150 c 128,-1,33
 116 109 116 109 127 82 c 0,34,35
 147 34 147 34 216 33 c 0,36,37
 227 33 227 33 239 33 c 0,38,39
 323 33 323 33 458 52 c 1,40,-1
 453 22 l 1,41,42
 347 -7 347 -7 214 -7 c 0,43,44
 120 -7 120 -7 91 62 c 0,45,46
 75 98 75 98 75 153 c 128,-1,47
 75 208 75 208 84.5 262 c 128,-1,48
 94 316 94 316 100 342 c 128,-1,49
 106 368 106 368 116.5 398 c 128,-1,50
 127 428 127 428 139 447.5 c 128,-1,51
 151 467 151 467 170 486.5 c 128,-1,52
 189 506 189 506 213 516 c 1,53,54
 266 541 266 541 355.5 541 c 128,-1,21
 445 541 445 541 490 509 c 128,-1,22
127 268 m 1,55,56
 179 259 179 259 217 259 c 128,-1,57
 255 259 255 259 275.5 259.5 c 128,-1,58
 296 260 296 260 337 267 c 128,-1,59
 378 274 378 274 408.5 287 c 128,-1,60
 439 300 439 300 463 326 c 0,61,62
 493 360 493 360 493 408 c 128,-1,63
 493 456 493 456 460.5 478 c 128,-1,64
 428 500 428 500 348 500 c 0,65,66
 259 500 259 500 219 471 c 0,67,68
 203 459 203 459 192.5 450.5 c 128,-1,69
 182 442 182 442 173 424.5 c 128,-1,70
 164 407 164 407 158.5 395.5 c 128,-1,71
 153 384 153 384 147 361 c 0,72,73
 140 332 140 332 134 303 c 128,-1,74
 128 274 128 274 127 268 c 1,55,56
EndSplineSet
Substitution2: "'smcp' Lowercase to Small Capitals lookup 1 subtable" edieresis.smcp
EndChar

StartChar: igrave
Encoding: 236 236 173
Width: 175
GlyphClass: 2
Flags: W
LayerCount: 2
Fore
SplineSet
15 729 m 1,0,-1
 62 729 l 1,1,-1
 164 596 l 1,2,-1
 131 596 l 1,3,-1
 15 729 l 1,0,-1
60 0 m 1,4,-1
 144 531 l 1,5,-1
 185 531 l 1,6,-1
 101 0 l 1,7,-1
 60 0 l 1,4,-1
EndSplineSet
Substitution2: "'smcp' Lowercase to Small Capitals lookup 1 subtable" igrave.smcp
EndChar

StartChar: iacute
Encoding: 237 237 174
Width: 175
GlyphClass: 2
Flags: W
LayerCount: 2
Fore
SplineSet
130 596 m 1,0,-1
 267 729 l 1,1,-1
 317 729 l 1,2,-1
 163 596 l 1,3,-1
 130 596 l 1,0,-1
60 0 m 1,4,-1
 144 531 l 1,5,-1
 185 531 l 1,6,-1
 101 0 l 1,7,-1
 60 0 l 1,4,-1
EndSplineSet
Substitution2: "'smcp' Lowercase to Small Capitals lookup 1 subtable" iacute.smcp
EndChar

StartChar: icircumflex
Encoding: 238 238 175
Width: 175
GlyphClass: 2
Flags: W
LayerCount: 2
Fore
SplineSet
6 596 m 1,0,-1
 154 726 l 1,1,-1
 192 726 l 1,2,-1
 285 596 l 1,3,-1
 252 596 l 1,4,-1
 171 700 l 1,5,-1
 46 596 l 1,6,-1
 6 596 l 1,0,-1
60 0 m 1,7,-1
 144 531 l 1,8,-1
 185 531 l 1,9,-1
 101 0 l 1,10,-1
 60 0 l 1,7,-1
EndSplineSet
Substitution2: "'smcp' Lowercase to Small Capitals lookup 1 subtable" icircumflex.smcp
EndChar

StartChar: idieresis
Encoding: 239 239 176
Width: 175
GlyphClass: 2
Flags: W
LayerCount: 2
Fore
SplineSet
27 653 m 128,-1,1
 39 653 39 653 45.5 645 c 128,-1,2
 52 637 52 637 50.5 628 c 128,-1,3
 49 619 49 619 46 613.5 c 128,-1,4
 43 608 43 608 39 605 c 0,5,6
 30 596 30 596 17.5 596 c 128,-1,7
 5 596 5 596 -1.5 603.5 c 128,-1,8
 -8 611 -8 611 -8 617 c 128,-1,9
 -8 623 -8 623 -6.5 630 c 128,-1,10
 -5 637 -5 637 5 645 c 128,-1,0
 15 653 15 653 27 653 c 128,-1,1
282 653 m 128,-1,12
 294 653 294 653 300 646 c 128,-1,13
 306 639 306 639 306 633.5 c 128,-1,14
 306 628 306 628 305 623.5 c 128,-1,15
 304 619 304 619 301 613.5 c 128,-1,16
 298 608 298 608 294 605 c 0,17,18
 285 596 285 596 272.5 596 c 128,-1,19
 260 596 260 596 253 604.5 c 128,-1,20
 246 613 246 613 248 625 c 128,-1,21
 250 637 250 637 260 645 c 128,-1,11
 270 653 270 653 282 653 c 128,-1,12
60 0 m 1,22,-1
 144 531 l 1,23,-1
 185 531 l 1,24,-1
 101 0 l 1,25,-1
 60 0 l 1,22,-1
EndSplineSet
Substitution2: "'smcp' Lowercase to Small Capitals lookup 1 subtable" idieresis.smcp
EndChar

StartChar: eth
Encoding: 240 240 177
Width: 543
GlyphClass: 2
Flags: W
LayerCount: 2
Fore
SplineSet
299 531 m 2,0,-1
 380 531 l 2,1,2
 421 531 421 531 451.5 515 c 128,-1,3
 482 499 482 499 489 482 c 1,4,5
 481 608 481 608 427 672 c 1,6,-1
 261 610 l 1,7,-1
 255 639 l 1,8,-1
 402 695 l 1,9,10
 340 747 340 747 241 747 c 1,11,-1
 246 783 l 1,12,13
 375 782 375 782 447 711 c 1,14,-1
 580 760 l 1,15,-1
 588 731 l 1,16,-1
 468 687 l 1,17,18
 533 598 533 598 533 435 c 0,19,20
 533 355 533 355 518 258 c 0,21,22
 496 119 496 119 442.5 59.5 c 128,-1,23
 389 0 389 0 298 0 c 2,24,-1
 215 0 l 2,25,26
 148 0 148 0 113 32.5 c 128,-1,27
 78 65 78 65 73 124 c 0,28,29
 71 142 71 142 71 175 c 128,-1,30
 71 208 71 208 80 266 c 0,31,32
 102 403 102 403 151.5 467 c 128,-1,33
 201 531 201 531 299 531 c 2,0,-1
141 65 m 0,34,35
 157 51 157 51 175 46.5 c 128,-1,36
 193 42 193 42 206.5 42 c 128,-1,37
 220 42 220 42 221 42 c 2,38,-1
 304 42 l 1,39,40
 304 42 304 42 305 42 c 0,41,42
 379 42 379 42 420 99 c 0,43,44
 474 173 474 173 486 334 c 0,45,46
 487 345 487 345 487 360.5 c 128,-1,47
 487 376 487 376 484 401 c 128,-1,48
 481 426 481 426 469 446 c 0,49,50
 443 490 443 490 374 490 c 2,51,-1
 294 490 l 2,52,53
 261 490 261 490 236.5 480.5 c 128,-1,54
 212 471 212 471 189 447 c 0,55,56
 143 400 143 400 121 262 c 0,57,58
 96 106 96 106 141 65 c 0,34,35
EndSplineSet
Substitution2: "'smcp' Lowercase to Small Capitals lookup 1 subtable" eth.smcp
EndChar

StartChar: ntilde
Encoding: 241 241 178
Width: 541
GlyphClass: 2
Flags: W
LayerCount: 2
Fore
SplineSet
429 635 m 0,0,1
 469 635 469 635 533 681 c 1,2,-1
 542 662 l 1,3,4
 538 660 538 660 526.5 651 c 128,-1,5
 515 642 515 642 511.5 639.5 c 128,-1,6
 508 637 508 637 498 629.5 c 128,-1,7
 488 622 488 622 483 619.5 c 128,-1,8
 478 617 478 617 469 612 c 128,-1,9
 460 607 460 607 453 605 c 0,10,11
 436 600 436 600 419.5 600 c 128,-1,12
 403 600 403 600 382.5 615.5 c 128,-1,13
 362 631 362 631 344 645.5 c 128,-1,14
 326 660 326 660 313.5 660 c 128,-1,15
 301 660 301 660 290.5 658 c 128,-1,16
 280 656 280 656 268 650.5 c 128,-1,17
 256 645 256 645 249 641 c 128,-1,18
 242 637 242 637 227 628 c 128,-1,19
 212 619 212 619 206 615 c 1,20,-1
 199 634 l 1,21,22
 261 681 261 681 282.5 687.5 c 128,-1,23
 304 694 304 694 322.5 694 c 128,-1,24
 341 694 341 694 378 664.5 c 128,-1,25
 415 635 415 635 429 635 c 0,0,1
396 540 m 0,26,27
 472 540 472 540 508 490 c 0,28,29
 536 452 536 452 536 402 c 0,30,31
 536 387 536 387 533 370 c 2,32,-1
 474 0 l 1,33,-1
 433 0 l 1,34,-1
 492 370 l 2,35,36
 494 384 494 384 494 397 c 0,37,38
 494 436 494 436 474 463 c 0,39,40
 446 499 446 499 388 499 c 128,-1,41
 330 499 330 499 284 485.5 c 128,-1,42
 238 472 238 472 171 439 c 1,43,-1
 101 0 l 1,44,-1
 60 0 l 1,45,-1
 144 531 l 1,46,-1
 171 531 l 1,47,-1
 175 469 l 1,48,49
 301 540 301 540 396 540 c 0,26,27
EndSplineSet
AlternateSubs2: "'salt' Stylistic Alternatives in Latin lookup 16 subtable" ntilde.salt
Substitution2: "'smcp' Lowercase to Small Capitals lookup 1 subtable" ntilde.smcp
EndChar

StartChar: ograve
Encoding: 242 242 179
Width: 561
GlyphClass: 2
Flags: W
LayerCount: 2
Fore
SplineSet
235 729 m 1,0,-1
 281 729 l 1,1,-1
 383 596 l 1,2,-1
 351 596 l 1,3,-1
 235 729 l 1,0,-1
357 536 m 0,4,5
 482 536 482 536 522 467 c 0,6,7
 547 424 547 424 547 365.5 c 128,-1,8
 547 307 547 307 539 253 c 0,9,10
 515 106 515 106 459 50.5 c 128,-1,11
 403 -5 403 -5 275.5 -5 c 128,-1,12
 148 -5 148 -5 107 56 c 1,13,14
 82 95 82 95 82 168 c 0,15,16
 82 257 82 257 110 358 c 0,17,18
 144 478 144 478 223 513 c 0,19,20
 274 536 274 536 357 536 c 0,4,5
123 152 m 0,21,22
 123 135 123 135 130 111.5 c 128,-1,23
 137 88 137 88 149 73 c 128,-1,24
 161 58 161 58 182 50 c 0,25,26
 217 36 217 36 273 36 c 128,-1,27
 329 36 329 36 361 44 c 128,-1,28
 393 52 393 52 421 75 c 0,29,30
 475 117 475 117 498 258 c 0,31,32
 507 314 507 314 507 350 c 128,-1,33
 507 386 507 386 500 410.5 c 128,-1,34
 493 435 493 435 481.5 452 c 128,-1,35
 470 469 470 469 449 478 c 0,36,37
 413 495 413 495 366 495 c 128,-1,38
 319 495 319 495 296.5 492.5 c 128,-1,39
 274 490 274 490 250 481.5 c 128,-1,40
 226 473 226 473 210 457 c 0,41,42
 171 419 171 419 147 335.5 c 128,-1,43
 123 252 123 252 123 152 c 0,21,22
EndSplineSet
Substitution2: "'smcp' Lowercase to Small Capitals lookup 1 subtable" ograve.smcp
EndChar

StartChar: oacute
Encoding: 243 243 180
Width: 561
GlyphClass: 2
Flags: W
LayerCount: 2
Fore
SplineSet
351 596 m 1,0,-1
 488 729 l 1,1,-1
 537 729 l 1,2,-1
 383 596 l 1,3,-1
 351 596 l 1,0,-1
357 536 m 0,4,5
 482 536 482 536 522 467 c 0,6,7
 547 424 547 424 547 365.5 c 128,-1,8
 547 307 547 307 539 253 c 0,9,10
 515 106 515 106 459 50.5 c 128,-1,11
 403 -5 403 -5 275.5 -5 c 128,-1,12
 148 -5 148 -5 107 56 c 1,13,14
 82 95 82 95 82 168 c 0,15,16
 82 257 82 257 110 358 c 0,17,18
 144 478 144 478 223 513 c 0,19,20
 274 536 274 536 357 536 c 0,4,5
123 152 m 0,21,22
 123 135 123 135 130 111.5 c 128,-1,23
 137 88 137 88 149 73 c 128,-1,24
 161 58 161 58 182 50 c 0,25,26
 217 36 217 36 273 36 c 128,-1,27
 329 36 329 36 361 44 c 128,-1,28
 393 52 393 52 421 75 c 0,29,30
 475 117 475 117 498 258 c 0,31,32
 507 314 507 314 507 350 c 128,-1,33
 507 386 507 386 500 410.5 c 128,-1,34
 493 435 493 435 481.5 452 c 128,-1,35
 470 469 470 469 449 478 c 0,36,37
 413 495 413 495 366 495 c 128,-1,38
 319 495 319 495 296.5 492.5 c 128,-1,39
 274 490 274 490 250 481.5 c 128,-1,40
 226 473 226 473 210 457 c 0,41,42
 171 419 171 419 147 335.5 c 128,-1,43
 123 252 123 252 123 152 c 0,21,22
EndSplineSet
Substitution2: "'smcp' Lowercase to Small Capitals lookup 1 subtable" oacute.smcp
EndChar

StartChar: ocircumflex
Encoding: 244 244 181
Width: 561
GlyphClass: 2
Flags: W
LayerCount: 2
Fore
SplineSet
228 596 m 1,0,-1
 376 726 l 1,1,-1
 414 726 l 1,2,-1
 506 596 l 1,3,-1
 473 596 l 1,4,-1
 392 700 l 1,5,-1
 267 596 l 1,6,-1
 228 596 l 1,0,-1
357 536 m 0,7,8
 482 536 482 536 522 467 c 0,9,10
 547 424 547 424 547 365.5 c 128,-1,11
 547 307 547 307 539 253 c 0,12,13
 515 106 515 106 459 50.5 c 128,-1,14
 403 -5 403 -5 275.5 -5 c 128,-1,15
 148 -5 148 -5 107 56 c 1,16,17
 82 95 82 95 82 168 c 0,18,19
 82 257 82 257 110 358 c 0,20,21
 144 478 144 478 223 513 c 0,22,23
 274 536 274 536 357 536 c 0,7,8
123 152 m 0,24,25
 123 135 123 135 130 111.5 c 128,-1,26
 137 88 137 88 149 73 c 128,-1,27
 161 58 161 58 182 50 c 0,28,29
 217 36 217 36 273 36 c 128,-1,30
 329 36 329 36 361 44 c 128,-1,31
 393 52 393 52 421 75 c 0,32,33
 475 117 475 117 498 258 c 0,34,35
 507 314 507 314 507 350 c 128,-1,36
 507 386 507 386 500 410.5 c 128,-1,37
 493 435 493 435 481.5 452 c 128,-1,38
 470 469 470 469 449 478 c 0,39,40
 413 495 413 495 366 495 c 128,-1,41
 319 495 319 495 296.5 492.5 c 128,-1,42
 274 490 274 490 250 481.5 c 128,-1,43
 226 473 226 473 210 457 c 0,44,45
 171 419 171 419 147 335.5 c 128,-1,46
 123 252 123 252 123 152 c 0,24,25
EndSplineSet
Substitution2: "'smcp' Lowercase to Small Capitals lookup 1 subtable" ocircumflex.smcp
EndChar

StartChar: otilde
Encoding: 245 245 182
Width: 561
GlyphClass: 2
Flags: W
LayerCount: 2
Fore
SplineSet
434 631 m 0,0,1
 474 631 474 631 538 677 c 1,2,-1
 546 658 l 1,3,4
 543 656 543 656 531.5 647 c 128,-1,5
 520 638 520 638 516.5 635.5 c 128,-1,6
 513 633 513 633 502.5 625.5 c 128,-1,7
 492 618 492 618 487 615.5 c 128,-1,8
 482 613 482 613 473 608 c 128,-1,9
 464 603 464 603 458 601 c 0,10,11
 440 596 440 596 424 596 c 128,-1,12
 408 596 408 596 387.5 611.5 c 128,-1,13
 367 627 367 627 349 641.5 c 128,-1,14
 331 656 331 656 318.5 656 c 128,-1,15
 306 656 306 656 295 654 c 128,-1,16
 284 652 284 652 272 646.5 c 128,-1,17
 260 641 260 641 253.5 637 c 128,-1,18
 247 633 247 633 232 624 c 128,-1,19
 217 615 217 615 211 611 c 1,20,-1
 203 630 l 1,21,22
 253 668 253 668 278.5 679 c 128,-1,23
 304 690 304 690 324.5 690 c 128,-1,24
 345 690 345 690 382.5 660.5 c 128,-1,25
 420 631 420 631 434 631 c 0,0,1
357 536 m 0,26,27
 482 536 482 536 522 467 c 0,28,29
 547 424 547 424 547 365.5 c 128,-1,30
 547 307 547 307 539 253 c 0,31,32
 515 106 515 106 459 50.5 c 128,-1,33
 403 -5 403 -5 275.5 -5 c 128,-1,34
 148 -5 148 -5 107 56 c 1,35,36
 82 95 82 95 82 168 c 0,37,38
 82 257 82 257 110 358 c 0,39,40
 144 478 144 478 223 513 c 0,41,42
 274 536 274 536 357 536 c 0,26,27
123 152 m 0,43,44
 123 135 123 135 130 111.5 c 128,-1,45
 137 88 137 88 149 73 c 128,-1,46
 161 58 161 58 182 50 c 0,47,48
 217 36 217 36 273 36 c 128,-1,49
 329 36 329 36 361 44 c 128,-1,50
 393 52 393 52 421 75 c 0,51,52
 475 117 475 117 498 258 c 0,53,54
 507 314 507 314 507 350 c 128,-1,55
 507 386 507 386 500 410.5 c 128,-1,56
 493 435 493 435 481.5 452 c 128,-1,57
 470 469 470 469 449 478 c 0,58,59
 413 495 413 495 366 495 c 128,-1,60
 319 495 319 495 296.5 492.5 c 128,-1,61
 274 490 274 490 250 481.5 c 128,-1,62
 226 473 226 473 210 457 c 0,63,64
 171 419 171 419 147 335.5 c 128,-1,65
 123 252 123 252 123 152 c 0,43,44
EndSplineSet
Substitution2: "'smcp' Lowercase to Small Capitals lookup 1 subtable" otilde.smcp
EndChar

StartChar: odieresis
Encoding: 246 246 183
Width: 561
GlyphClass: 2
Flags: W
LayerCount: 2
Fore
SplineSet
234 649.5 m 128,-1,1
 241 653 241 653 251 653 c 128,-1,2
 261 653 261 653 268 645 c 128,-1,3
 275 637 275 637 273.5 628 c 128,-1,4
 272 619 272 619 269 613.5 c 128,-1,5
 266 608 266 608 262 605 c 0,6,7
 252 596 252 596 240 596 c 128,-1,8
 228 596 228 596 220.5 604.5 c 128,-1,9
 213 613 213 613 215 623 c 128,-1,10
 217 633 217 633 222 639.5 c 128,-1,0
 227 646 227 646 234 649.5 c 128,-1,1
489 649.5 m 128,-1,12
 496 653 496 653 506 653 c 128,-1,13
 516 653 516 653 523 645 c 128,-1,14
 530 637 530 637 528.5 628 c 128,-1,15
 527 619 527 619 524 613.5 c 128,-1,16
 521 608 521 608 517 605 c 0,17,18
 507 596 507 596 495 596 c 128,-1,19
 483 596 483 596 475.5 604.5 c 128,-1,20
 468 613 468 613 470 623 c 128,-1,21
 472 633 472 633 477 639.5 c 128,-1,11
 482 646 482 646 489 649.5 c 128,-1,12
357 536 m 0,22,23
 482 536 482 536 522 467 c 0,24,25
 547 424 547 424 547 365.5 c 128,-1,26
 547 307 547 307 539 253 c 0,27,28
 515 106 515 106 459 50.5 c 128,-1,29
 403 -5 403 -5 275.5 -5 c 128,-1,30
 148 -5 148 -5 107 56 c 1,31,32
 82 95 82 95 82 168 c 0,33,34
 82 257 82 257 110 358 c 0,35,36
 144 478 144 478 223 513 c 0,37,38
 274 536 274 536 357 536 c 0,22,23
123 152 m 0,39,40
 123 135 123 135 130 111.5 c 128,-1,41
 137 88 137 88 149 73 c 128,-1,42
 161 58 161 58 182 50 c 0,43,44
 217 36 217 36 273 36 c 128,-1,45
 329 36 329 36 361 44 c 128,-1,46
 393 52 393 52 421 75 c 0,47,48
 475 117 475 117 498 258 c 0,49,50
 507 314 507 314 507 350 c 128,-1,51
 507 386 507 386 500 410.5 c 128,-1,52
 493 435 493 435 481.5 452 c 128,-1,53
 470 469 470 469 449 478 c 0,54,55
 413 495 413 495 366 495 c 128,-1,56
 319 495 319 495 296.5 492.5 c 128,-1,57
 274 490 274 490 250 481.5 c 128,-1,58
 226 473 226 473 210 457 c 0,59,60
 171 419 171 419 147 335.5 c 128,-1,61
 123 252 123 252 123 152 c 0,39,40
EndSplineSet
Substitution2: "'smcp' Lowercase to Small Capitals lookup 1 subtable" odieresis.smcp
EndChar

StartChar: divide
Encoding: 247 247 184
Width: 542
GlyphClass: 2
Flags: W
LayerCount: 2
Fore
SplineSet
100 332 m 1,0,-1
 107 374 l 1,1,-1
 523 374 l 1,2,-1
 516 332 l 1,3,-1
 100 332 l 1,0,-1
283 226 m 2,4,-1
 308 226 l 2,5,6
 322 226 322 226 320 210 c 2,7,-1
 313 164 l 2,8,9
 311 148 311 148 295 148 c 2,10,-1
 271 148 l 2,11,12
 263 148 263 148 259.5 152.5 c 128,-1,13
 256 157 256 157 257 164 c 2,14,-1
 264 210 l 2,15,16
 266 226 266 226 283 226 c 2,4,-1
334 550 m 2,17,-1
 358 550 l 2,18,19
 373 550 373 550 371 533 c 2,20,-1
 364 487 l 2,21,22
 362 471 362 471 346 471 c 2,23,-1
 322 471 l 2,24,25
 306 471 306 471 308 487 c 2,26,-1
 315 533 l 2,27,28
 317 550 317 550 334 550 c 2,17,-1
EndSplineSet
EndChar

StartChar: oslash
Encoding: 248 248 185
Width: 549
GlyphClass: 2
Flags: W
LayerCount: 2
Fore
SplineSet
100 55 m 1,0,1
 76 92 76 92 76 150 c 128,-1,2
 76 208 76 208 87 277.5 c 128,-1,3
 98 347 98 347 117.5 399 c 128,-1,4
 137 451 137 451 170 482 c 128,-1,5
 203 513 203 513 245.5 524.5 c 128,-1,6
 288 536 288 536 352 536 c 0,7,8
 450 536 450 536 495 495 c 1,9,-1
 527 531 l 1,10,-1
 562 531 l 1,11,-1
 512 476 l 1,12,13
 542 434 542 434 542 352 c 0,14,15
 542 308 542 308 533 253 c 0,16,17
 509 105 509 105 454.5 50 c 128,-1,18
 400 -5 400 -5 281 -5 c 128,-1,19
 162 -5 162 -5 117 37 c 1,20,-1
 84 0 l 1,21,-1
 51 0 l 1,22,-1
 100 55 l 1,0,1
118 184.5 m 128,-1,24
 118 117 118 117 131 90 c 1,25,-1
 467 463 l 1,26,27
 435 495 435 495 339.5 495 c 128,-1,28
 244 495 244 495 205 457 c 128,-1,29
 166 419 166 419 142 335.5 c 128,-1,23
 118 252 118 252 118 184.5 c 128,-1,24
194.5 43 m 128,-1,31
 225 36 225 36 274.5 36 c 128,-1,32
 324 36 324 36 355 43.5 c 128,-1,33
 386 51 386 51 415 73 c 0,34,35
 469 116 469 116 492 258 c 0,36,37
 501 313 501 313 501 363 c 128,-1,38
 501 413 501 413 484 444 c 1,39,-1
 146 69 l 1,40,30
 164 50 164 50 194.5 43 c 128,-1,31
EndSplineSet
Substitution2: "'smcp' Lowercase to Small Capitals lookup 1 subtable" oslash.smcp
EndChar

StartChar: ugrave
Encoding: 249 249 186
Width: 540
GlyphClass: 2
Flags: W
LayerCount: 2
Fore
SplineSet
219 729 m 1,0,-1
 266 729 l 1,1,-1
 368 596 l 1,2,-1
 335 596 l 1,3,-1
 219 729 l 1,0,-1
114 133 m 0,4,5
 114 94 114 94 135 68 c 0,6,7
 162 33 162 33 220.5 33 c 128,-1,8
 279 33 279 33 324.5 46.5 c 128,-1,9
 370 60 370 60 438 92 c 1,10,-1
 507 532 l 1,11,-1
 548 532 l 1,12,-1
 464 1 l 1,13,-1
 437 1 l 1,14,-1
 433 63 l 1,15,16
 307 -8 307 -8 222 -8 c 128,-1,17
 137 -8 137 -8 100 41 c 1,18,19
 73 79 73 79 73 129 c 0,20,21
 73 145 73 145 75 162 c 2,22,-1
 134 532 l 1,23,-1
 175 532 l 1,24,-1
 116 162 l 2,25,26
 114 147 114 147 114 133 c 0,4,5
EndSplineSet
AlternateSubs2: "'salt' Stylistic Alternatives in Latin lookup 16 subtable" ugrave.salt
Substitution2: "'smcp' Lowercase to Small Capitals lookup 1 subtable" ugrave.smcp
EndChar

StartChar: uacute
Encoding: 250 250 187
Width: 540
GlyphClass: 2
Flags: W
LayerCount: 2
Fore
SplineSet
335 596 m 1,0,-1
 472 729 l 1,1,-1
 522 729 l 1,2,-1
 368 596 l 1,3,-1
 335 596 l 1,0,-1
114 133 m 0,4,5
 114 94 114 94 135 68 c 0,6,7
 162 33 162 33 220.5 33 c 128,-1,8
 279 33 279 33 324.5 46.5 c 128,-1,9
 370 60 370 60 438 92 c 1,10,-1
 507 532 l 1,11,-1
 548 532 l 1,12,-1
 464 1 l 1,13,-1
 437 1 l 1,14,-1
 433 63 l 1,15,16
 307 -8 307 -8 222 -8 c 128,-1,17
 137 -8 137 -8 100 41 c 1,18,19
 73 79 73 79 73 129 c 0,20,21
 73 145 73 145 75 162 c 2,22,-1
 134 532 l 1,23,-1
 175 532 l 1,24,-1
 116 162 l 2,25,26
 114 147 114 147 114 133 c 0,4,5
EndSplineSet
AlternateSubs2: "'salt' Stylistic Alternatives in Latin lookup 16 subtable" uacute.salt
Substitution2: "'smcp' Lowercase to Small Capitals lookup 1 subtable" uacute.smcp
EndChar

StartChar: ucircumflex
Encoding: 251 251 188
Width: 540
GlyphClass: 2
Flags: W
LayerCount: 2
Fore
SplineSet
212 596 m 1,0,-1
 360 726 l 1,1,-1
 398 726 l 1,2,-1
 491 596 l 1,3,-1
 458 596 l 1,4,-1
 376 700 l 1,5,-1
 251 596 l 1,6,-1
 212 596 l 1,0,-1
114 133 m 0,7,8
 114 94 114 94 135 68 c 0,9,10
 162 33 162 33 220.5 33 c 128,-1,11
 279 33 279 33 324.5 46.5 c 128,-1,12
 370 60 370 60 438 92 c 1,13,-1
 507 532 l 1,14,-1
 548 532 l 1,15,-1
 464 1 l 1,16,-1
 437 1 l 1,17,-1
 433 63 l 1,18,19
 307 -8 307 -8 222 -8 c 128,-1,20
 137 -8 137 -8 100 41 c 1,21,22
 73 79 73 79 73 129 c 0,23,24
 73 145 73 145 75 162 c 2,25,-1
 134 532 l 1,26,-1
 175 532 l 1,27,-1
 116 162 l 2,28,29
 114 147 114 147 114 133 c 0,7,8
EndSplineSet
AlternateSubs2: "'salt' Stylistic Alternatives in Latin lookup 16 subtable" ucircumflex.salt
Substitution2: "'smcp' Lowercase to Small Capitals lookup 1 subtable" ucircumflex.smcp
EndChar

StartChar: udieresis
Encoding: 252 252 189
Width: 540
GlyphClass: 2
Flags: W
LayerCount: 2
Fore
SplineSet
234 653 m 128,-1,1
 246 653 246 653 252.5 645 c 128,-1,2
 259 637 259 637 257.5 628 c 128,-1,3
 256 619 256 619 253 613.5 c 128,-1,4
 250 608 250 608 246 605 c 0,5,6
 236 596 236 596 224 596 c 128,-1,7
 212 596 212 596 205 604.5 c 128,-1,8
 198 613 198 613 200 625 c 128,-1,9
 202 637 202 637 212 645 c 128,-1,0
 222 653 222 653 234 653 c 128,-1,1
489 653 m 128,-1,11
 501 653 501 653 507.5 645 c 128,-1,12
 514 637 514 637 512.5 628 c 128,-1,13
 511 619 511 619 508 613.5 c 128,-1,14
 505 608 505 608 501 605 c 0,15,16
 491 596 491 596 479 596 c 128,-1,17
 467 596 467 596 460 604.5 c 128,-1,18
 453 613 453 613 455 625 c 128,-1,19
 457 637 457 637 467 645 c 128,-1,10
 477 653 477 653 489 653 c 128,-1,11
114 133 m 0,20,21
 114 94 114 94 135 68 c 0,22,23
 162 33 162 33 220.5 33 c 128,-1,24
 279 33 279 33 324.5 46.5 c 128,-1,25
 370 60 370 60 438 92 c 1,26,-1
 507 532 l 1,27,-1
 548 532 l 1,28,-1
 464 1 l 1,29,-1
 437 1 l 1,30,-1
 433 63 l 1,31,32
 307 -8 307 -8 222 -8 c 128,-1,33
 137 -8 137 -8 100 41 c 1,34,35
 73 79 73 79 73 129 c 0,36,37
 73 145 73 145 75 162 c 2,38,-1
 134 532 l 1,39,-1
 175 532 l 1,40,-1
 116 162 l 2,41,42
 114 147 114 147 114 133 c 0,20,21
EndSplineSet
AlternateSubs2: "'salt' Stylistic Alternatives in Latin lookup 16 subtable" udieresis.salt
Substitution2: "'smcp' Lowercase to Small Capitals lookup 1 subtable" udieresis.smcp
EndChar

StartChar: yacute
Encoding: 253 253 190
Width: 540
GlyphClass: 2
Flags: W
LayerCount: 2
Fore
SplineSet
315 591 m 1,0,-1
 452 724 l 1,1,-1
 501 724 l 1,2,-1
 347 591 l 1,3,-1
 315 591 l 1,0,-1
556 536 m 1,4,5
 560 525 560 525 560 503.5 c 128,-1,6
 560 482 560 482 540 443 c 2,7,-1
 324 1 l 2,8,9
 323 -2 323 -2 318 -11 c 0,10,11
 192 -262 192 -262 97 -269 c 1,12,-1
 97 -242 l 1,13,14
 164 -226 164 -226 269 -16 c 0,15,16
 276 -1 276 -1 277 0 c 1,17,18
 252 1 252 1 229 14 c 0,19,20
 183 40 183 40 170 110 c 2,21,-1
 94 531 l 1,22,-1
 136 531 l 1,23,-1
 212 116 l 2,24,25
 225 49 225 49 281 43 c 1,26,-1
 298 43 l 1,27,-1
 499 454 l 2,28,29
 520 498 520 498 526 536 c 1,30,-1
 556 536 l 1,4,5
EndSplineSet
Substitution2: "'smcp' Lowercase to Small Capitals lookup 1 subtable" yacute.smcp
EndChar

StartChar: thorn
Encoding: 254 254 191
Width: 537
GlyphClass: 2
Flags: W
LayerCount: 2
Fore
SplineSet
286 514.5 m 128,-1,1
 359 540 359 540 405 540 c 128,-1,2
 451 540 451 540 482.5 515 c 128,-1,3
 514 490 514 490 527 450 c 1,4,5
 543 396 543 396 543 347 c 128,-1,6
 543 298 543 298 536 257.5 c 128,-1,7
 529 217 529 217 521.5 184.5 c 128,-1,8
 514 152 514 152 497.5 113 c 128,-1,9
 481 74 481 74 459 49 c 128,-1,10
 437 24 437 24 400.5 7 c 128,-1,11
 364 -10 364 -10 321 -10 c 128,-1,12
 278 -10 278 -10 217 0.5 c 128,-1,13
 156 11 156 11 115 29 c 1,14,-1
 68 -270 l 1,15,-1
 27 -270 l 1,16,-1
 194 782 l 1,17,-1
 235 782 l 1,18,-1
 185 471 l 1,19,0
 213 489 213 489 286 514.5 c 128,-1,1
495 269 m 0,20,21
 502 314 502 314 502 360 c 128,-1,22
 502 406 502 406 485 442 c 0,23,24
 458 499 458 499 399 499 c 0,25,26
 368 499 368 499 322 488 c 0,27,28
 270 476 270 476 181 443 c 1,29,-1
 120 59 l 1,30,31
 191 38 191 38 236 35 c 128,-1,32
 281 32 281 32 322 31 c 1,33,34
 392 31 392 31 434 87 c 128,-1,35
 476 143 476 143 495 269 c 0,20,21
EndSplineSet
Substitution2: "'smcp' Lowercase to Small Capitals lookup 1 subtable" thorn.smcp
EndChar

StartChar: ydieresis
Encoding: 255 255 192
Width: 540
GlyphClass: 2
Flags: W
LayerCount: 2
Fore
SplineSet
195 662 m 128,-1,1
 205 670 205 670 215 670 c 128,-1,2
 225 670 225 670 231 667 c 0,3,4
 243 659 243 659 240.5 644.5 c 128,-1,5
 238 630 238 630 228.5 621.5 c 128,-1,6
 219 613 219 613 207 613 c 128,-1,7
 195 613 195 613 188 621.5 c 128,-1,8
 181 630 181 630 183 642 c 128,-1,0
 185 654 185 654 195 662 c 128,-1,1
450 662 m 128,-1,10
 460 670 460 670 470 670 c 128,-1,11
 480 670 480 670 486 667 c 0,12,13
 498 659 498 659 495.5 644.5 c 128,-1,14
 493 630 493 630 483.5 621.5 c 128,-1,15
 474 613 474 613 462 613 c 128,-1,16
 450 613 450 613 443 621.5 c 128,-1,17
 436 630 436 630 438 642 c 128,-1,9
 440 654 440 654 450 662 c 128,-1,10
556 536 m 1,18,19
 560 525 560 525 560 503.5 c 128,-1,20
 560 482 560 482 540 443 c 2,21,-1
 324 1 l 2,22,23
 323 -2 323 -2 318 -11 c 0,24,25
 192 -262 192 -262 97 -269 c 1,26,-1
 97 -242 l 1,27,28
 164 -226 164 -226 269 -16 c 0,29,30
 276 -1 276 -1 277 0 c 1,31,32
 252 1 252 1 229 14 c 0,33,34
 183 40 183 40 170 110 c 2,35,-1
 94 531 l 1,36,-1
 136 531 l 1,37,-1
 212 116 l 2,38,39
 225 49 225 49 281 43 c 1,40,-1
 298 43 l 1,41,-1
 499 454 l 2,42,43
 520 498 520 498 526 536 c 1,44,-1
 556 536 l 1,18,19
EndSplineSet
Substitution2: "'smcp' Lowercase to Small Capitals lookup 1 subtable" ydieresis.smcp
EndChar

StartChar: Amacron
Encoding: 256 256 193
Width: 648
GlyphClass: 2
Flags: W
LayerCount: 2
Fore
SplineSet
335 797 m 1,0,-1
 340 828 l 1,1,-1
 605 828 l 1,2,-1
 600 797 l 1,3,-1
 335 797 l 1,0,-1
45 0 m 1,4,-1
 433 732 l 1,5,-1
 481 732 l 1,6,-1
 625 0 l 1,7,-1
 584 0 l 1,8,-1
 537 236 l 1,9,-1
 216 236 l 1,10,-1
 91 0 l 1,11,-1
 45 0 l 1,4,-1
238 277 m 1,12,-1
 529 277 l 1,13,-1
 451 681 l 1,14,-1
 238 277 l 1,12,-1
EndSplineSet
Substitution2: "'c2sc' Capitals to Small Capitals in Latin lookup 2 subtable" amacron.smcp
EndChar

StartChar: amacron
Encoding: 257 257 194
Width: 543
GlyphClass: 2
Flags: W
LayerCount: 2
Fore
SplineSet
222 603 m 1,0,-1
 227 634 l 1,1,-1
 493 634 l 1,2,-1
 488 603 l 1,3,-1
 222 603 l 1,0,-1
257.5 531.5 m 128,-1,5
 279 537 279 537 302 540 c 128,-1,6
 325 543 325 543 355.5 543 c 128,-1,7
 386 543 386 543 447.5 528.5 c 128,-1,8
 509 514 509 514 545 479 c 1,9,-1
 475 0 l 1,10,-1
 448 0 l 1,11,-1
 445 60 l 1,12,13
 412 39 412 39 354 16 c 128,-1,14
 296 -7 296 -7 255.5 -7 c 128,-1,15
 215 -7 215 -7 191 -2 c 128,-1,16
 167 3 167 3 145 14 c 0,17,18
 104 36 104 36 87 99 c 0,19,20
 79 128 79 128 79 150 c 128,-1,21
 79 172 79 172 79.5 196.5 c 128,-1,22
 80 221 80 221 90.5 282 c 128,-1,23
 101 343 101 343 120 391 c 128,-1,24
 139 439 139 439 159.5 465.5 c 128,-1,25
 180 492 180 492 208 509 c 128,-1,4
 236 526 236 526 257.5 531.5 c 128,-1,5
120 173 m 0,26,27
 120 33 120 33 240 33 c 0,28,29
 307 33 307 33 371 57 c 0,30,31
 393 66 393 66 417.5 76.5 c 128,-1,32
 442 87 442 87 447 89 c 1,33,-1
 502 468 l 1,34,35
 422 503 422 503 350 503 c 0,36,37
 274 503 274 503 225 471 c 0,38,39
 155 424 155 424 127 248 c 0,40,41
 120 207 120 207 120 173 c 0,26,27
EndSplineSet
AlternateSubs2: "'salt' Stylistic Alternatives in Latin lookup 16 subtable" amacron.salt
Substitution2: "'smcp' Lowercase to Small Capitals lookup 1 subtable" amacron.smcp
EndChar

StartChar: Abreve
Encoding: 258 258 195
Width: 648
GlyphClass: 2
Flags: W
LayerCount: 2
Fore
SplineSet
395 895 m 0,0,1
 395 867 395 867 414.5 844.5 c 128,-1,2
 434 822 434 822 469 822 c 0,3,4
 511 822 511 822 540 846 c 128,-1,5
 569 870 569 870 575 911 c 1,6,-1
 600 911 l 1,7,8
 592 856 592 856 555 826.5 c 128,-1,9
 518 797 518 797 472 797 c 128,-1,10
 426 797 426 797 398 825.5 c 128,-1,11
 370 854 370 854 370 893 c 0,12,13
 370 902 370 902 371 911 c 1,14,-1
 396 911 l 1,15,16
 395 903 395 903 395 895 c 0,0,1
45 0 m 1,17,-1
 433 732 l 1,18,-1
 481 732 l 1,19,-1
 625 0 l 1,20,-1
 584 0 l 1,21,-1
 537 236 l 1,22,-1
 216 236 l 1,23,-1
 91 0 l 1,24,-1
 45 0 l 1,17,-1
238 277 m 1,25,-1
 529 277 l 1,26,-1
 451 681 l 1,27,-1
 238 277 l 1,25,-1
EndSplineSet
Substitution2: "'c2sc' Capitals to Small Capitals in Latin lookup 2 subtable" abreve.smcp
EndChar

StartChar: abreve
Encoding: 259 259 196
Width: 543
GlyphClass: 2
Flags: W
LayerCount: 2
Fore
SplineSet
286 701 m 0,0,1
 286 673 286 673 305.5 650.5 c 128,-1,2
 325 628 325 628 360 628 c 0,3,4
 361 628 361 628 374.5 628 c 128,-1,5
 388 628 388 628 410 639 c 0,6,7
 458 661 458 661 466 717 c 1,8,-1
 491 717 l 1,9,10
 483 662 483 662 446 632.5 c 128,-1,11
 409 603 409 603 363 603 c 128,-1,12
 317 603 317 603 289 631.5 c 128,-1,13
 261 660 261 660 261 699 c 0,14,15
 261 708 261 708 262 717 c 1,16,-1
 287 717 l 1,17,18
 286 709 286 709 286 701 c 0,0,1
257.5 531.5 m 128,-1,20
 279 537 279 537 302 540 c 128,-1,21
 325 543 325 543 355.5 543 c 128,-1,22
 386 543 386 543 447.5 528.5 c 128,-1,23
 509 514 509 514 545 479 c 1,24,-1
 475 0 l 1,25,-1
 448 0 l 1,26,-1
 445 60 l 1,27,28
 412 39 412 39 354 16 c 128,-1,29
 296 -7 296 -7 255.5 -7 c 128,-1,30
 215 -7 215 -7 191 -2 c 128,-1,31
 167 3 167 3 145 14 c 0,32,33
 104 36 104 36 87 99 c 0,34,35
 79 128 79 128 79 150 c 128,-1,36
 79 172 79 172 79.5 196.5 c 128,-1,37
 80 221 80 221 90.5 282 c 128,-1,38
 101 343 101 343 120 391 c 128,-1,39
 139 439 139 439 159.5 465.5 c 128,-1,40
 180 492 180 492 208 509 c 128,-1,19
 236 526 236 526 257.5 531.5 c 128,-1,20
120 173 m 0,41,42
 120 33 120 33 240 33 c 0,43,44
 307 33 307 33 371 57 c 0,45,46
 393 66 393 66 417.5 76.5 c 128,-1,47
 442 87 442 87 447 89 c 1,48,-1
 502 468 l 1,49,50
 422 503 422 503 350 503 c 0,51,52
 274 503 274 503 225 471 c 0,53,54
 155 424 155 424 127 248 c 0,55,56
 120 207 120 207 120 173 c 0,41,42
EndSplineSet
Substitution2: "'smcp' Lowercase to Small Capitals lookup 1 subtable" abreve.smcp
EndChar

StartChar: Aogonek
Encoding: 260 260 197
Width: 866
GlyphClass: 2
Flags: W
LayerCount: 2
Fore
SplineSet
599 -110 m 0,0,1
 599 -41 599 -41 698 0 c 1,2,-1
 719 0 l 1,3,4
 666 -26 666 -26 645 -63 c 1,5,6
 633 -82 633 -82 633 -98 c 128,-1,7
 633 -114 633 -114 642 -126 c 0,8,9
 661 -151 661 -151 711 -151 c 0,10,11
 714 -151 714 -151 717 -151 c 1,12,-1
 713 -181 l 1,13,14
 701 -183 701 -183 691 -183 c 0,15,16
 648 -183 648 -183 623.5 -160 c 128,-1,17
 599 -137 599 -137 599 -110 c 0,0,1
147 0 m 1,18,-1
 535 732 l 1,19,-1
 583 732 l 1,20,-1
 727 0 l 1,21,-1
 686 0 l 1,22,-1
 639 236 l 1,23,-1
 318 236 l 1,24,-1
 193 0 l 1,25,-1
 147 0 l 1,18,-1
340 277 m 1,26,-1
 631 277 l 1,27,-1
 553 681 l 1,28,-1
 340 277 l 1,26,-1
EndSplineSet
Substitution2: "'c2sc' Capitals to Small Capitals in Latin lookup 2 subtable" aogonek.smcp
EndChar

StartChar: aogonek
Encoding: 261 261 198
Width: 525
GlyphClass: 2
Flags: W
LayerCount: 2
Fore
SplineSet
345 -110 m 0,0,1
 345 -41 345 -41 444 0 c 1,2,-1
 465 0 l 1,3,4
 412 -26 412 -26 390 -63 c 0,5,6
 379 -82 379 -82 379 -98 c 128,-1,7
 379 -114 379 -114 388 -126 c 0,8,9
 407 -151 407 -151 457 -151 c 0,10,11
 460 -151 460 -151 463 -151 c 1,12,-1
 459 -181 l 1,13,14
 447 -183 447 -183 436 -183 c 0,15,16
 394 -183 394 -183 369.5 -160 c 128,-1,17
 345 -137 345 -137 345 -110 c 0,0,1
250.5 531.5 m 128,-1,19
 272 537 272 537 295 540 c 128,-1,20
 318 543 318 543 348.5 543 c 128,-1,21
 379 543 379 543 440 528.5 c 128,-1,22
 501 514 501 514 538 479 c 1,23,-1
 468 0 l 1,24,-1
 440 0 l 1,25,-1
 437 60 l 1,26,27
 405 39 405 39 346.5 16 c 128,-1,28
 288 -7 288 -7 247.5 -7 c 128,-1,29
 207 -7 207 -7 183.5 -2 c 128,-1,30
 160 3 160 3 138 14 c 0,31,32
 97 36 97 36 79 99 c 1,33,34
 72 128 72 128 72 150 c 128,-1,35
 72 172 72 172 72.5 196.5 c 128,-1,36
 73 221 73 221 83.5 282 c 128,-1,37
 94 343 94 343 113 391 c 128,-1,38
 132 439 132 439 152 465.5 c 128,-1,39
 172 492 172 492 200.5 509 c 128,-1,18
 229 526 229 526 250.5 531.5 c 128,-1,19
113 173 m 0,40,41
 113 33 113 33 232 33 c 0,42,43
 300 33 300 33 363 57 c 0,44,45
 385 66 385 66 410 76.5 c 128,-1,46
 435 87 435 87 439 89 c 1,47,-1
 495 468 l 1,48,49
 414 503 414 503 343 503 c 0,50,51
 266 503 266 503 217 471 c 0,52,53
 147 424 147 424 119 248 c 0,54,55
 113 207 113 207 113 173 c 0,40,41
EndSplineSet
AlternateSubs2: "'salt' Stylistic Alternatives in Latin lookup 16 subtable" aogonek.salt
Substitution2: "'smcp' Lowercase to Small Capitals lookup 1 subtable" aogonek.smcp
EndChar

StartChar: Cacute
Encoding: 262 262 199
Width: 568
GlyphClass: 2
Flags: W
LayerCount: 2
Fore
SplineSet
416 800 m 1,0,-1
 554 933 l 1,1,-1
 603 933 l 1,2,-1
 449 800 l 1,3,-1
 416 800 l 1,0,-1
327 729 m 0,4,5
 367 740 367 740 434.5 740 c 128,-1,6
 502 740 502 740 638 714 c 1,7,-1
 634 685 l 1,8,9
 519 699 519 699 422 699 c 0,10,11
 375 699 375 699 345.5 692 c 128,-1,12
 316 685 316 685 285.5 664.5 c 128,-1,13
 255 644 255 644 233 608 c 0,14,15
 183 528 183 528 157 366 c 0,16,17
 146 298 146 298 146 244 c 0,18,19
 146 38 146 38 306 35 c 0,20,21
 310 35 310 35 345.5 35 c 128,-1,22
 381 35 381 35 533 46 c 1,23,-1
 529 16 l 1,24,25
 425 -6 425 -6 301 -6 c 0,26,27
 247 -6 247 -6 208 15 c 0,28,29
 105 68 105 68 105 246 c 0,30,31
 105 349 105 349 138 481 c 1,32,33
 164 590 164 590 205 644 c 0,34,35
 254 710 254 710 327 729 c 0,4,5
EndSplineSet
Substitution2: "'c2sc' Capitals to Small Capitals in Latin lookup 2 subtable" cacute.smcp
EndChar

StartChar: cacute
Encoding: 263 263 200
Width: 492
GlyphClass: 2
Flags: W
LayerCount: 2
Fore
SplineSet
332 597 m 1,0,-1
 470 730 l 1,1,-1
 519 730 l 1,2,-1
 365 597 l 1,3,-1
 332 597 l 1,0,-1
512 510 m 1,4,-1
 508 482 l 1,5,6
 390 496 390 496 332.5 496 c 128,-1,7
 275 496 275 496 256 491.5 c 128,-1,8
 237 487 237 487 217 473 c 128,-1,9
 197 459 197 459 182 434 c 0,10,11
 150 378 150 378 130 262 c 0,12,13
 121 205 121 205 121 172 c 128,-1,14
 121 139 121 139 125 117.5 c 128,-1,15
 129 96 129 96 138 79 c 128,-1,16
 147 62 147 62 161 53 c 0,17,18
 188 35 188 35 229 35 c 0,19,20
 310 35 310 35 413 49 c 1,21,-1
 447 53 l 1,22,-1
 442 23 l 1,23,24
 380 7 380 7 334.5 1 c 128,-1,25
 289 -5 289 -5 241.5 -5 c 128,-1,26
 194 -5 194 -5 169.5 2.5 c 128,-1,27
 145 10 145 10 124 28 c 0,28,29
 87 61 87 61 81 157 c 0,30,31
 80 166 80 166 80 191.5 c 128,-1,32
 80 217 80 217 90 273 c 128,-1,33
 100 329 100 329 113 373 c 128,-1,34
 126 417 126 417 142.5 446 c 128,-1,35
 159 475 159 475 176.5 493.5 c 128,-1,36
 194 512 194 512 217 521 c 0,37,38
 256 537 256 537 323 537 c 128,-1,39
 390 537 390 537 512 510 c 1,4,-1
EndSplineSet
Substitution2: "'smcp' Lowercase to Small Capitals lookup 1 subtable" cacute.smcp
EndChar

